<svg width="571" height="96" viewBox="0 0 571 96" fill="none" xmlns="http://www.w3.org/2000/svg">
<g id="Liga&#195;&#167;&#195;&#163;o: Personagem - Container">
<path id="circle2" d="M569.5 10.2283C569.5 15.0431 565.67 18.9021 561 18.9021C556.33 18.9021 552.5 15.0431 552.5 10.2283C552.5 5.41337 556.33 1.55444 561 1.55444C565.67 1.55444 569.5 5.41337 569.5 10.2283Z" stroke="white" stroke-width="3"/>
<path id="vetor" d="M10 20.4021V83.1623C10 89.2374 14.9249 94.1622 21 94.1622H550C556.075 94.1622 561 89.2374 561 83.1622V20.4021" stroke="white" stroke-width="3" stroke-linecap="round"/>
<path id="circle1" d="M18.5 10.2283C18.5 15.0431 14.6702 18.9021 10 18.9021C5.32984 18.9021 1.5 15.0431 1.5 10.2283C1.5 5.41337 5.32984 1.55444 10 1.55444C14.6702 1.55444 18.5 5.41337 18.5 10.2283Z" stroke="white" stroke-width="3"/>
</g>
</svg>
