<svg width="1354" height="112" viewBox="0 0 1354 112" fill="none" xmlns="http://www.w3.org/2000/svg">
<g opacity="0.3" filter="url(#filter0_d_137_83)">
<mask id="path-1-outside-1_137_83" maskUnits="userSpaceOnUse" x="3" y="-1" width="1348" height="106" fill="black">
<rect fill="white" x="3" y="-1" width="1348" height="106"/>
<path d="M58.66 103.24C50.82 103.24 43.54 102.027 36.82 99.6C30.1933 97.08 24.4067 93.5333 19.46 88.96C14.6067 84.3867 10.8267 78.9733 8.12 72.72C5.41333 66.4667 4.06 59.56 4.06 52C4.06 44.44 5.41333 37.5333 8.12 31.28C10.8267 25.0267 14.6067 19.6133 19.46 15.04C24.4067 10.4667 30.1933 6.96666 36.82 4.54C43.54 2.02 50.82 0.759997 58.66 0.759997C68.2733 0.759997 76.7667 2.44 84.14 5.8C91.6067 9.15999 97.7667 14.0133 102.62 20.36L81.76 38.98C78.8667 35.34 75.6467 32.54 72.1 30.58C68.6467 28.5267 64.7267 27.5 60.34 27.5C56.8867 27.5 53.76 28.06 50.96 29.18C48.16 30.3 45.7333 31.9333 43.68 34.08C41.72 36.2267 40.18 38.84 39.06 41.92C37.94 44.9067 37.38 48.2667 37.38 52C37.38 55.7333 37.94 59.14 39.06 62.22C40.18 65.2067 41.72 67.7733 43.68 69.92C45.7333 72.0667 48.16 73.7 50.96 74.82C53.76 75.94 56.8867 76.5 60.34 76.5C64.7267 76.5 68.6467 75.52 72.1 73.56C75.6467 71.5067 78.8667 68.66 81.76 65.02L102.62 83.64C97.7667 89.8933 91.6067 94.7467 84.14 98.2C76.7667 101.56 68.2733 103.24 58.66 103.24ZM161.489 103.24C153.556 103.24 146.182 101.98 139.369 99.46C132.649 96.94 126.816 93.3933 121.869 88.82C116.922 84.1533 113.049 78.6933 110.249 72.44C107.542 66.1867 106.189 59.3733 106.189 52C106.189 44.5333 107.542 37.72 110.249 31.56C113.049 25.3067 116.922 19.8933 121.869 15.32C126.816 10.6533 132.649 7.05999 139.369 4.54C146.182 2.02 153.556 0.759997 161.489 0.759997C169.516 0.759997 176.889 2.02 183.609 4.54C190.329 7.05999 196.162 10.6533 201.109 15.32C206.056 19.8933 209.882 25.3067 212.589 31.56C215.389 37.72 216.789 44.5333 216.789 52C216.789 59.3733 215.389 66.1867 212.589 72.44C209.882 78.6933 206.056 84.1533 201.109 88.82C196.162 93.3933 190.329 96.94 183.609 99.46C176.889 101.98 169.516 103.24 161.489 103.24ZM161.489 76.5C164.569 76.5 167.416 75.94 170.029 74.82C172.736 73.7 175.069 72.1133 177.029 70.06C179.082 67.9133 180.669 65.3467 181.789 62.36C182.909 59.28 183.469 55.8267 183.469 52C183.469 48.1733 182.909 44.7667 181.789 41.78C180.669 38.7 179.082 36.1333 177.029 34.08C175.069 31.9333 172.736 30.3 170.029 29.18C167.416 28.06 164.569 27.5 161.489 27.5C158.409 27.5 155.516 28.06 152.809 29.18C150.196 30.3 147.862 31.9333 145.809 34.08C143.849 36.1333 142.309 38.7 141.189 41.78C140.069 44.7667 139.509 48.1733 139.509 52C139.509 55.8267 140.069 59.28 141.189 62.36C142.309 65.3467 143.849 67.9133 145.809 70.06C147.862 72.1133 150.196 73.7 152.809 74.82C155.516 75.94 158.409 76.5 161.489 76.5ZM228.781 101V2.99999H255.941L305.781 62.64H293.181V2.99999H325.381V101H298.221L248.381 41.36H260.981V101H228.781ZM392.12 103.24C384.187 103.24 376.86 102.027 370.14 99.6C363.514 97.08 357.727 93.5333 352.78 88.96C347.927 84.3867 344.147 78.9733 341.44 72.72C338.734 66.4667 337.38 59.56 337.38 52C337.38 44.44 338.734 37.5333 341.44 31.28C344.147 25.0267 347.974 19.6133 352.92 15.04C357.867 10.4667 363.7 6.96666 370.42 4.54C377.234 2.02 384.7 0.759997 392.82 0.759997C402.527 0.759997 411.16 2.39333 418.72 5.65999C426.374 8.92666 432.674 13.5933 437.62 19.66L416.48 38.28C413.4 34.7333 410.04 32.0733 406.4 30.3C402.854 28.4333 398.887 27.5 394.5 27.5C390.86 27.5 387.547 28.06 384.56 29.18C381.667 30.3 379.194 31.9333 377.14 34.08C375.087 36.2267 373.5 38.7933 372.38 41.78C371.26 44.7667 370.7 48.1733 370.7 52C370.7 55.64 371.26 59 372.38 62.08C373.5 65.0667 375.087 67.6333 377.14 69.78C379.194 71.9267 381.62 73.6067 384.42 74.82C387.314 75.94 390.534 76.5 394.08 76.5C397.814 76.5 401.454 75.8933 405 74.68C408.547 73.3733 412.327 71.18 416.34 68.1L434.82 90.78C428.847 94.7933 422.034 97.8733 414.38 100.02C406.727 102.167 399.307 103.24 392.12 103.24ZM406.12 86.58V49.34H434.82V90.78L406.12 86.58ZM448.898 101V2.99999H496.078C505.225 2.99999 513.111 4.49333 519.738 7.47999C526.458 10.4667 531.638 14.76 535.278 20.36C538.918 25.8667 540.738 32.4 540.738 39.96C540.738 47.52 538.918 54.0533 535.278 59.56C531.638 64.9733 526.458 69.1267 519.738 72.02C513.111 74.9133 505.225 76.36 496.078 76.36H467.238L481.938 62.78V101H448.898ZM507.558 101L483.478 65.3H518.478L542.838 101H507.558ZM481.938 66.42L467.238 51.44H493.978C498.551 51.44 501.911 50.4133 504.058 48.36C506.298 46.3067 507.418 43.5067 507.418 39.96C507.418 36.4133 506.298 33.6133 504.058 31.56C501.911 29.5067 498.551 28.48 493.978 28.48H467.238L481.938 13.5V66.42ZM583.454 39.4H627.134V63.2H583.454V39.4ZM585.694 76.08H634.694V101H553.214V2.99999H632.874V27.92H585.694V76.08ZM683.954 103.24C675.74 103.24 667.807 102.307 660.154 100.44C652.5 98.5733 646.2 96.1467 641.254 93.16L651.894 69.08C656.56 71.7867 661.74 73.98 667.434 75.66C673.22 77.2467 678.82 78.04 684.234 78.04C687.407 78.04 689.88 77.8533 691.654 77.48C693.52 77.0133 694.874 76.4067 695.714 75.66C696.554 74.82 696.974 73.84 696.974 72.72C696.974 70.9467 695.994 69.5467 694.034 68.52C692.074 67.4933 689.46 66.6533 686.194 66C683.02 65.2533 679.52 64.5067 675.694 63.76C671.867 62.92 667.994 61.8467 664.074 60.54C660.247 59.2333 656.7 57.5067 653.434 55.36C650.26 53.2133 647.694 50.4133 645.734 46.96C643.774 43.4133 642.794 39.0267 642.794 33.8C642.794 27.7333 644.474 22.2267 647.834 17.28C651.287 12.24 656.374 8.22667 663.094 5.24C669.907 2.25333 678.354 0.759997 688.434 0.759997C695.06 0.759997 701.594 1.46 708.034 2.86C714.474 4.25999 720.26 6.40666 725.394 9.3L715.454 33.24C710.6 30.8133 705.887 28.9933 701.314 27.78C696.834 26.5667 692.447 25.96 688.154 25.96C684.98 25.96 682.46 26.24 680.594 26.8C678.727 27.36 677.374 28.1067 676.534 29.04C675.787 29.9733 675.414 31 675.414 32.12C675.414 33.8 676.394 35.1533 678.354 36.18C680.314 37.1133 682.88 37.9067 686.054 38.56C689.32 39.2133 692.867 39.9133 696.694 40.66C700.614 41.4067 704.487 42.4333 708.314 43.74C712.14 45.0467 715.64 46.7733 718.814 48.92C722.08 51.0667 724.694 53.8667 726.654 57.32C728.614 60.7733 729.594 65.0667 729.594 70.2C729.594 76.1733 727.867 81.68 724.414 86.72C721.054 91.6667 716.014 95.68 709.294 98.76C702.574 101.747 694.127 103.24 683.954 103.24ZM775.965 103.24C767.752 103.24 759.819 102.307 752.165 100.44C744.512 98.5733 738.212 96.1467 733.265 93.16L743.905 69.08C748.572 71.7867 753.752 73.98 759.445 75.66C765.232 77.2467 770.832 78.04 776.245 78.04C779.419 78.04 781.892 77.8533 783.665 77.48C785.532 77.0133 786.885 76.4067 787.725 75.66C788.565 74.82 788.985 73.84 788.985 72.72C788.985 70.9467 788.005 69.5467 786.045 68.52C784.085 67.4933 781.472 66.6533 778.205 66C775.032 65.2533 771.532 64.5067 767.705 63.76C763.879 62.92 760.005 61.8467 756.085 60.54C752.259 59.2333 748.712 57.5067 745.445 55.36C742.272 53.2133 739.705 50.4133 737.745 46.96C735.785 43.4133 734.805 39.0267 734.805 33.8C734.805 27.7333 736.485 22.2267 739.845 17.28C743.299 12.24 748.385 8.22667 755.105 5.24C761.919 2.25333 770.365 0.759997 780.445 0.759997C787.072 0.759997 793.605 1.46 800.045 2.86C806.485 4.25999 812.272 6.40666 817.405 9.3L807.465 33.24C802.612 30.8133 797.899 28.9933 793.325 27.78C788.845 26.5667 784.459 25.96 780.165 25.96C776.992 25.96 774.472 26.24 772.605 26.8C770.739 27.36 769.385 28.1067 768.545 29.04C767.799 29.9733 767.425 31 767.425 32.12C767.425 33.8 768.405 35.1533 770.365 36.18C772.325 37.1133 774.892 37.9067 778.065 38.56C781.332 39.2133 784.879 39.9133 788.705 40.66C792.625 41.4067 796.499 42.4333 800.325 43.74C804.152 45.0467 807.652 46.7733 810.825 48.92C814.092 51.0667 816.705 53.8667 818.665 57.32C820.625 60.7733 821.605 65.0667 821.605 70.2C821.605 76.1733 819.879 81.68 816.425 86.72C813.065 91.6667 808.025 95.68 801.305 98.76C794.585 101.747 786.139 103.24 775.965 103.24ZM882.817 103.24C874.884 103.24 867.51 101.98 860.697 99.46C853.977 96.94 848.144 93.3933 843.197 88.82C838.25 84.1533 834.377 78.6933 831.577 72.44C828.87 66.1867 827.517 59.3733 827.517 52C827.517 44.5333 828.87 37.72 831.577 31.56C834.377 25.3067 838.25 19.8933 843.197 15.32C848.144 10.6533 853.977 7.05999 860.697 4.54C867.51 2.02 874.884 0.759997 882.817 0.759997C890.844 0.759997 898.217 2.02 904.937 4.54C911.657 7.05999 917.49 10.6533 922.437 15.32C927.384 19.8933 931.21 25.3067 933.917 31.56C936.717 37.72 938.117 44.5333 938.117 52C938.117 59.3733 936.717 66.1867 933.917 72.44C931.21 78.6933 927.384 84.1533 922.437 88.82C917.49 93.3933 911.657 96.94 904.937 99.46C898.217 101.98 890.844 103.24 882.817 103.24ZM882.817 76.5C885.897 76.5 888.744 75.94 891.357 74.82C894.064 73.7 896.397 72.1133 898.357 70.06C900.41 67.9133 901.997 65.3467 903.117 62.36C904.237 59.28 904.797 55.8267 904.797 52C904.797 48.1733 904.237 44.7667 903.117 41.78C901.997 38.7 900.41 36.1333 898.357 34.08C896.397 31.9333 894.064 30.3 891.357 29.18C888.744 28.06 885.897 27.5 882.817 27.5C879.737 27.5 876.844 28.06 874.137 29.18C871.524 30.3 869.19 31.9333 867.137 34.08C865.177 36.1333 863.637 38.7 862.517 41.78C861.397 44.7667 860.837 48.1733 860.837 52C860.837 55.8267 861.397 59.28 862.517 62.36C863.637 65.3467 865.177 67.9133 867.137 70.06C869.19 72.1133 871.524 73.7 874.137 74.82C876.844 75.94 879.737 76.5 882.817 76.5ZM988.022 101V80.7L1023.44 47.94C1025.68 45.7933 1027.31 43.9267 1028.34 42.34C1029.46 40.7533 1030.21 39.3533 1030.58 38.14C1030.95 36.8333 1031.14 35.62 1031.14 34.5C1031.14 32.0733 1030.35 30.2067 1028.76 28.9C1027.17 27.5 1024.79 26.8 1021.62 26.8C1018.73 26.8 1015.97 27.5933 1013.36 29.18C1010.75 30.6733 1008.69 32.9133 1007.2 35.9L982.282 23.44C985.828 16.72 991.148 11.26 998.242 7.06C1005.33 2.86 1014.15 0.759997 1024.7 0.759997C1032.45 0.759997 1039.31 2.02 1045.28 4.54C1051.25 7.05999 1055.92 10.6067 1059.28 15.18C1062.64 19.7533 1064.32 25.1667 1064.32 31.42C1064.32 34.5933 1063.9 37.7667 1063.06 40.94C1062.31 44.1133 1060.73 47.4733 1058.3 51.02C1055.87 54.4733 1052.28 58.3467 1047.52 62.64L1020.92 86.86L1015.74 75.38H1066.56V101H988.022ZM1117.72 103.24C1109.04 103.24 1101.34 101.233 1094.62 97.22C1087.99 93.2067 1082.76 87.3733 1078.94 79.72C1075.2 72.0667 1073.34 62.8267 1073.34 52C1073.34 41.1733 1075.2 31.9333 1078.94 24.28C1082.76 16.6267 1087.99 10.7933 1094.62 6.77999C1101.34 2.76666 1109.04 0.759997 1117.72 0.759997C1126.4 0.759997 1134.05 2.76666 1140.68 6.77999C1147.4 10.7933 1152.62 16.6267 1156.36 24.28C1160.18 31.9333 1162.1 41.1733 1162.1 52C1162.1 62.8267 1160.18 72.0667 1156.36 79.72C1152.62 87.3733 1147.4 93.2067 1140.68 97.22C1134.05 101.233 1126.4 103.24 1117.72 103.24ZM1117.72 76.78C1119.86 76.78 1121.78 76.0333 1123.46 74.54C1125.14 73.0467 1126.44 70.48 1127.38 66.84C1128.4 63.2 1128.92 58.2533 1128.92 52C1128.92 45.6533 1128.4 40.7067 1127.38 37.16C1126.44 33.52 1125.14 30.9533 1123.46 29.46C1121.78 27.9667 1119.86 27.22 1117.72 27.22C1115.57 27.22 1113.66 27.9667 1111.98 29.46C1110.3 30.9533 1108.94 33.52 1107.92 37.16C1106.98 40.7067 1106.52 45.6533 1106.52 52C1106.52 58.2533 1106.98 63.2 1107.92 66.84C1108.94 70.48 1110.3 73.0467 1111.98 74.54C1113.66 76.0333 1115.57 76.78 1117.72 76.78ZM1168.76 101V80.7L1204.18 47.94C1206.42 45.7933 1208.06 43.9267 1209.08 42.34C1210.2 40.7533 1210.95 39.3533 1211.32 38.14C1211.7 36.8333 1211.88 35.62 1211.88 34.5C1211.88 32.0733 1211.09 30.2067 1209.5 28.9C1207.92 27.5 1205.54 26.8 1202.36 26.8C1199.47 26.8 1196.72 27.5933 1194.1 29.18C1191.49 30.6733 1189.44 32.9133 1187.94 35.9L1163.02 23.44C1166.57 16.72 1171.89 11.26 1178.98 7.06C1186.08 2.86 1194.9 0.759997 1205.44 0.759997C1213.19 0.759997 1220.05 2.02 1226.02 4.54C1232 7.05999 1236.66 10.6067 1240.02 15.18C1243.38 19.7533 1245.06 25.1667 1245.06 31.42C1245.06 34.5933 1244.64 37.7667 1243.8 40.94C1243.06 44.1133 1241.47 47.4733 1239.04 51.02C1236.62 54.4733 1233.02 58.3467 1228.26 62.64L1201.66 86.86L1196.48 75.38H1247.3V101H1168.76ZM1253.24 84.2V63.2L1294.82 2.99999H1328.7L1288.66 63.2L1273.26 58.58H1349.14V84.2H1253.24ZM1304.06 101V84.2L1305.04 58.58V43.6H1336.12V101H1304.06Z"/>
</mask>
<path d="M36.82 99.6L36.4646 100.535L36.4724 100.538L36.4804 100.541L36.82 99.6ZM19.46 88.96L18.7742 89.6878L18.7811 89.6943L19.46 88.96ZM8.12 72.72L7.20228 73.1172L8.12 72.72ZM8.12 31.28L7.20228 30.8828L8.12 31.28ZM19.46 15.04L18.7811 14.3057L18.7742 14.3122L19.46 15.04ZM36.82 4.54L37.1639 5.47905L37.1711 5.47633L36.82 4.54ZM84.14 5.8L83.7253 6.70998L83.7296 6.71192L84.14 5.8ZM102.62 20.36L103.286 21.106L103.977 20.4888L103.414 19.7525L102.62 20.36ZM81.76 38.98L80.9772 39.6022L81.636 40.4311L82.4259 39.726L81.76 38.98ZM72.1 30.58L71.5889 31.4395L71.6025 31.4476L71.6163 31.4552L72.1 30.58ZM50.96 29.18L51.3314 30.1085L50.96 29.18ZM43.68 34.08L42.9574 33.3888L42.9493 33.3972L42.9415 33.4057L43.68 34.08ZM39.06 41.92L39.9964 42.2711L39.9998 42.2617L39.06 41.92ZM39.06 62.22L38.1202 62.5618L38.1237 62.5711L39.06 62.22ZM43.68 69.92L42.9415 70.5943L42.9493 70.6028L42.9574 70.6112L43.68 69.92ZM50.96 74.82L50.5886 75.7485L50.96 74.82ZM72.1 73.56L72.5936 74.4297L72.601 74.4254L72.1 73.56ZM81.76 65.02L82.4259 64.274L81.636 63.5689L80.9772 64.3978L81.76 65.02ZM102.62 83.64L103.41 84.2531L103.982 83.5156L103.286 82.894L102.62 83.64ZM84.14 98.2L84.5547 99.11L84.5598 99.1076L84.14 98.2ZM58.66 102.24C50.9246 102.24 43.7606 101.043 37.1596 98.6594L36.4804 100.541C43.3194 103.01 50.7154 104.24 58.66 104.24V102.24ZM37.1754 98.6653C30.6621 96.1884 24.9867 92.7077 20.1389 88.2257L18.7811 89.6943C23.8267 94.359 29.7246 97.9716 36.4646 100.535L37.1754 98.6653ZM20.1458 88.2322C15.3936 83.7542 11.6916 78.4541 9.03772 72.3228L7.20228 73.1172C9.96176 79.4926 13.8197 85.0191 18.7742 89.6878L20.1458 88.2322ZM9.03772 72.3228C6.391 66.2079 5.06 59.4384 5.06 52H3.06C3.06 59.6816 4.43567 66.7254 7.20228 73.1172L9.03772 72.3228ZM5.06 52C5.06 44.5616 6.391 37.7921 9.03772 31.6772L7.20228 30.8828C4.43567 37.2746 3.06 44.3184 3.06 52H5.06ZM9.03772 31.6772C11.6916 25.5459 15.3936 20.2458 20.1458 15.7678L18.7742 14.3122C13.8197 18.9809 9.96176 24.5074 7.20228 30.8828L9.03772 31.6772ZM20.1389 15.7743C24.9839 11.2949 30.6553 7.86243 37.1639 5.47902L36.4761 3.60098C29.7314 6.07089 23.8294 9.63844 18.7811 14.3057L20.1389 15.7743ZM37.1711 5.47633C43.7689 3.00216 50.9288 1.76 58.66 1.76V-0.240002C50.7112 -0.240002 43.3111 1.03784 36.4689 3.60367L37.1711 5.47633ZM58.66 1.76C68.1566 1.76 76.5042 3.41932 83.7253 6.70997L84.5547 4.89003C77.0292 1.46067 68.3901 -0.240002 58.66 -0.240002V1.76ZM83.7296 6.71192C91.0489 10.0056 97.0757 14.7559 101.826 20.9674L103.414 19.7525C98.4577 13.2707 92.1644 8.31439 84.5504 4.88808L83.7296 6.71192ZM101.954 19.614L81.0941 38.234L82.4259 39.726L103.286 21.106L101.954 19.614ZM82.5428 38.3577C79.5794 34.6296 76.2615 31.7373 72.5837 29.7048L71.6163 31.4552C75.0318 33.3427 78.1539 36.0504 80.9772 39.6022L82.5428 38.3577ZM72.6111 29.7205C68.9891 27.5668 64.8895 26.5 60.34 26.5V28.5C64.5638 28.5 68.3042 29.4865 71.5889 31.4395L72.6111 29.7205ZM60.34 26.5C56.7777 26.5 53.5226 27.0779 50.5886 28.2515L51.3314 30.1085C53.9974 29.0421 56.9956 28.5 60.34 28.5V26.5ZM50.5886 28.2515C47.658 29.4238 45.111 31.1372 42.9574 33.3888L44.4026 34.7712C46.3557 32.7294 48.662 31.1762 51.3314 30.1085L50.5886 28.2515ZM42.9415 33.4057C40.8828 35.6606 39.2792 38.3909 38.1202 41.5783L39.9998 42.2617C41.0808 39.2891 42.5572 36.7928 44.4185 34.7543L42.9415 33.4057ZM38.1237 41.5689C36.9551 44.6852 36.38 48.1668 36.38 52H38.38C38.38 48.3665 38.9249 45.1282 39.9963 42.2711L38.1237 41.5689ZM36.38 52C36.38 55.8339 36.9552 59.3581 38.1202 62.5617L39.9998 61.8783C38.9248 58.9219 38.38 55.6328 38.38 52H36.38ZM38.1237 62.5711C39.2841 65.6655 40.8876 68.3447 42.9415 70.5943L44.4185 69.2457C42.5524 67.202 41.0759 64.7478 39.9963 61.8689L38.1237 62.5711ZM42.9574 70.6112C45.111 72.8628 47.658 74.5762 50.5886 75.7485L51.3314 73.8915C48.662 72.8238 46.3557 71.2706 44.4026 69.2288L42.9574 70.6112ZM50.5886 75.7485C53.5226 76.9221 56.7777 77.5 60.34 77.5V75.5C56.9956 75.5 53.9974 74.9579 51.3314 73.8915L50.5886 75.7485ZM60.34 77.5C64.8811 77.5 68.9744 76.4838 72.5936 74.4297L71.6064 72.6903C68.3189 74.5562 64.5722 75.5 60.34 75.5V77.5ZM72.601 74.4254C76.2696 72.3015 79.582 69.3671 82.5428 65.6422L80.9772 64.3978C78.1513 67.9529 75.0237 70.7118 71.599 72.6946L72.601 74.4254ZM81.0941 65.766L101.954 84.386L103.286 82.894L82.4259 64.274L81.0941 65.766ZM101.83 83.0269C97.0787 89.1488 91.0476 93.9035 83.7202 97.2924L84.5598 99.1076C92.1657 95.5899 98.4547 90.6379 103.41 84.2531L101.83 83.0269ZM83.7253 97.29C76.5042 100.581 68.1566 102.24 58.66 102.24V104.24C68.3901 104.24 77.0292 102.539 84.5547 99.11L83.7253 97.29ZM139.369 99.46L139.018 100.396L139.022 100.398L139.369 99.46ZM121.869 88.82L121.183 89.5474L121.19 89.5543L121.869 88.82ZM110.249 72.44L109.331 72.8372L109.336 72.8487L110.249 72.44ZM110.249 31.56L109.336 31.1513L109.333 31.1577L110.249 31.56ZM121.869 15.32L122.548 16.0543L122.555 16.0474L121.869 15.32ZM139.369 4.54L139.022 3.60209L139.018 3.60367L139.369 4.54ZM183.609 4.54L183.258 5.47633V5.47633L183.609 4.54ZM201.109 15.32L200.423 16.0474L200.43 16.0543L201.109 15.32ZM212.589 31.56L211.671 31.9572L211.675 31.9655L211.679 31.9738L212.589 31.56ZM212.589 72.44L211.676 72.0313L211.671 72.0428L212.589 72.44ZM201.109 88.82L201.788 89.5543L201.795 89.5474L201.109 88.82ZM183.609 99.46L183.258 98.5237L183.609 99.46ZM170.029 74.82L169.647 73.8959L169.635 73.9009L170.029 74.82ZM177.029 70.06L176.306 69.3688L176.306 69.3695L177.029 70.06ZM181.789 62.36L182.725 62.7111L182.729 62.7017L181.789 62.36ZM181.789 41.78L180.849 42.1218L180.853 42.1311L181.789 41.78ZM177.029 34.08L176.29 34.7543L176.306 34.771L176.322 34.7871L177.029 34.08ZM170.029 29.18L169.635 30.0992L169.647 30.104L170.029 29.18ZM152.809 29.18L152.427 28.2559L152.415 28.2609L152.809 29.18ZM145.809 34.08L145.086 33.3888L145.086 33.3895L145.809 34.08ZM141.189 41.78L142.125 42.1311L142.129 42.1217L141.189 41.78ZM141.189 62.36L140.249 62.7018L140.253 62.7111L141.189 62.36ZM145.809 70.06L145.07 70.7343L145.086 70.751L145.102 70.7671L145.809 70.06ZM152.809 74.82L152.415 75.7392L152.427 75.744L152.809 74.82ZM161.489 102.24C153.663 102.24 146.408 100.997 139.716 98.5221L139.022 100.398C145.956 102.963 153.448 104.24 161.489 104.24V102.24ZM139.72 98.5237C133.113 96.0462 127.393 92.5655 122.548 88.0857L121.19 89.5543C126.238 94.2212 132.185 97.8338 139.018 100.396L139.72 98.5237ZM122.555 88.0926C117.705 83.5169 113.908 78.1655 111.162 72.0313L109.336 72.8487C112.19 79.2212 116.14 84.7897 121.183 89.5474L122.555 88.0926ZM111.167 72.0428C108.519 65.9248 107.189 59.248 107.189 52H105.189C105.189 59.4986 106.566 66.4485 109.331 72.8372L111.167 72.0428ZM107.189 52C107.189 44.6566 108.519 37.9822 111.164 31.9623L109.333 31.1577C106.565 37.4578 105.189 44.4101 105.189 52H107.189ZM111.162 31.9687C113.907 25.8364 117.702 20.5344 122.548 16.0543L121.19 14.5857C116.143 19.2523 112.19 24.7769 109.336 31.1513L111.162 31.9687ZM122.555 16.0474C127.4 11.4769 133.118 7.95227 139.72 5.47633L139.018 3.60367C132.18 6.16772 126.231 9.82971 121.183 14.5926L122.555 16.0474ZM139.716 5.4779C146.408 3.00259 153.663 1.76 161.489 1.76V-0.240002C153.448 -0.240002 145.956 1.0374 139.022 3.6021L139.716 5.4779ZM161.489 1.76C169.41 1.76 176.663 3.00312 183.258 5.47633L183.96 3.60367C177.115 1.03688 169.621 -0.240002 161.489 -0.240002V1.76ZM183.258 5.47633C189.86 7.95227 195.578 11.4769 200.423 16.0474L201.795 14.5926C196.746 9.82971 190.798 6.16772 183.96 3.60367L183.258 5.47633ZM200.43 16.0543C205.273 20.532 209.019 25.8301 211.671 31.9572L213.507 31.1628C210.745 24.7832 206.838 19.2547 201.788 14.5857L200.43 16.0543ZM211.679 31.9738C214.414 37.9909 215.789 44.6612 215.789 52H217.789C217.789 44.4055 216.364 37.4491 213.499 31.1462L211.679 31.9738ZM215.789 52C215.789 59.2434 214.414 65.9161 211.676 72.0313L213.502 72.8487C216.363 66.4572 217.789 59.5033 217.789 52H215.789ZM211.671 72.0428C209.018 78.1717 205.27 83.5193 200.423 88.0926L201.795 89.5474C206.841 84.7873 210.746 79.2149 213.507 72.8372L211.671 72.0428ZM200.43 88.0857C195.585 92.5655 189.865 96.0462 183.258 98.5237L183.96 100.396C190.793 97.8338 196.74 94.2212 201.788 89.5543L200.43 88.0857ZM183.258 98.5237C176.663 100.997 169.41 102.24 161.489 102.24V104.24C169.621 104.24 177.115 102.963 183.96 100.396L183.258 98.5237ZM161.489 77.5C164.693 77.5 167.675 76.9168 170.423 75.7391L169.635 73.9009C167.156 74.9632 164.445 75.5 161.489 75.5V77.5ZM170.411 75.744C173.242 74.5725 175.693 72.9078 177.752 70.7505L176.306 69.3695C174.445 71.3189 172.229 72.8275 169.647 73.896L170.411 75.744ZM177.752 70.7512C179.905 68.4998 181.561 65.815 182.725 62.7111L180.853 62.0089C179.777 64.8783 178.259 67.3269 176.306 69.3688L177.752 70.7512ZM182.729 62.7017C183.895 59.4955 184.469 55.9241 184.469 52H182.469C182.469 55.7293 181.923 59.0645 180.849 62.0182L182.729 62.7017ZM184.469 52C184.469 48.0767 183.895 44.5478 182.725 41.4289L180.853 42.1311C181.923 44.9856 182.469 48.2699 182.469 52H184.469ZM182.729 41.4383C181.565 38.2386 179.905 35.5421 177.736 33.3729L176.322 34.7871C178.259 36.7246 179.773 39.1613 180.849 42.1217L182.729 41.4383ZM177.767 33.4057C175.708 31.1498 173.252 29.4316 170.411 28.256L169.647 30.104C172.219 31.1684 174.43 32.7168 176.29 34.7543L177.767 33.4057ZM170.423 28.2609C167.675 27.0832 164.693 26.5 161.489 26.5V28.5C164.445 28.5 167.156 29.0368 169.635 30.0991L170.423 28.2609ZM161.489 26.5C158.285 26.5 155.261 27.0833 152.427 28.256L153.191 30.104C155.771 29.0367 158.533 28.5 161.489 28.5V26.5ZM152.415 28.2609C149.672 29.4363 147.228 31.1492 145.086 33.3888L146.532 34.7712C148.496 32.7174 150.719 31.1637 153.203 30.0991L152.415 28.2609ZM145.086 33.3895C143.016 35.5572 141.409 38.2482 140.249 41.4383L142.129 42.1217C143.209 39.1518 144.681 36.7095 146.532 34.7705L145.086 33.3895ZM140.253 41.4289C139.083 44.5478 138.509 48.0767 138.509 52H140.509C140.509 48.2699 141.055 44.9856 142.125 42.1311L140.253 41.4289ZM138.509 52C138.509 55.9241 139.083 59.4955 140.249 62.7017L142.129 62.0183C141.055 59.0645 140.509 55.7293 140.509 52H138.509ZM140.253 62.7111C141.413 65.8055 143.016 68.4847 145.07 70.7343L146.547 69.3857C144.681 67.342 143.205 64.8878 142.125 62.0089L140.253 62.7111ZM145.102 70.7671C147.243 72.9084 149.682 74.5679 152.415 75.7391L153.203 73.9009C150.709 72.832 148.481 71.3182 146.516 69.3529L145.102 70.7671ZM152.427 75.744C155.261 76.9167 158.285 77.5 161.489 77.5V75.5C158.533 75.5 155.771 74.9633 153.191 73.896L152.427 75.744ZM228.781 101H227.781V102H228.781V101ZM228.781 2.99999V1.99999H227.781V2.99999H228.781ZM255.941 2.99999L256.708 2.35875L256.408 1.99999H255.941V2.99999ZM305.781 62.64V63.64H307.92L306.548 61.9987L305.781 62.64ZM293.181 62.64H292.181V63.64H293.181V62.64ZM293.181 2.99999V1.99999H292.181V2.99999H293.181ZM325.381 2.99999H326.381V1.99999H325.381V2.99999ZM325.381 101V102H326.381V101H325.381ZM298.221 101L297.453 101.641L297.753 102H298.221V101ZM248.381 41.36V40.36H246.242L247.613 42.0012L248.381 41.36ZM260.981 41.36H261.981V40.36H260.981V41.36ZM260.981 101V102H261.981V101H260.981ZM229.781 101V2.99999H227.781V101H229.781ZM228.781 3.99999H255.941V1.99999H228.781V3.99999ZM255.173 3.64124L305.013 63.2812L306.548 61.9987L256.708 2.35875L255.173 3.64124ZM305.781 61.64H293.181V63.64H305.781V61.64ZM294.181 62.64V2.99999H292.181V62.64H294.181ZM293.181 3.99999H325.381V1.99999H293.181V3.99999ZM324.381 2.99999V101H326.381V2.99999H324.381ZM325.381 100H298.221V102H325.381V100ZM298.988 100.359L249.148 40.7188L247.613 42.0012L297.453 101.641L298.988 100.359ZM248.381 42.36H260.981V40.36H248.381V42.36ZM259.981 41.36V101H261.981V41.36H259.981ZM260.981 100H228.781V102H260.981V100ZM370.14 99.6L369.785 100.535L369.793 100.538L369.801 100.541L370.14 99.6ZM352.78 88.96L352.094 89.6878L352.101 89.6943L352.78 88.96ZM341.44 72.72L340.523 73.1172L341.44 72.72ZM341.44 31.28L340.523 30.8828L341.44 31.28ZM352.92 15.04L352.241 14.3057L352.92 15.04ZM370.42 4.54L370.76 5.48058L370.767 5.4779L370.42 4.54ZM418.72 5.65999L418.324 6.57797L418.328 6.57972L418.72 5.65999ZM437.62 19.66L438.281 20.4104L439.004 19.7741L438.395 19.0281L437.62 19.66ZM416.48 38.28L415.725 38.9357L416.386 39.696L417.141 39.0304L416.48 38.28ZM406.4 30.3L405.935 31.1849L405.948 31.1922L405.962 31.199L406.4 30.3ZM384.56 29.18L384.209 28.2436L384.199 28.2474L384.56 29.18ZM377.14 34.08L377.863 34.7712L377.14 34.08ZM372.38 41.78L373.317 42.1311L372.38 41.78ZM372.38 62.08L371.44 62.4218L371.444 62.4311L372.38 62.08ZM377.14 69.78L377.863 69.0888L377.14 69.78ZM384.42 74.82L384.023 75.7376L384.041 75.7454L384.059 75.7526L384.42 74.82ZM405 74.68L405.324 75.6262L405.335 75.6224L405.346 75.6183L405 74.68ZM416.34 68.1L417.116 67.4683L416.502 66.7154L415.732 67.3067L416.34 68.1ZM434.82 90.78L435.378 91.61L436.288 90.9985L435.596 90.1483L434.82 90.78ZM414.38 100.02L414.65 100.983L414.38 100.02ZM406.12 86.58H405.12V87.4443L405.976 87.5695L406.12 86.58ZM406.12 49.34V48.34H405.12V49.34H406.12ZM434.82 49.34H435.82V48.34H434.82V49.34ZM434.82 90.78L434.676 91.7695L435.82 91.937V90.78H434.82ZM392.12 102.24C384.29 102.24 377.08 101.043 370.48 98.6594L369.801 100.541C376.641 103.011 384.084 104.24 392.12 104.24V102.24ZM370.496 98.6653C363.982 96.1884 358.307 92.7077 353.459 88.2257L352.101 89.6943C357.147 94.359 363.045 97.9716 369.785 100.535L370.496 98.6653ZM353.466 88.2322C348.714 83.7542 345.012 78.4541 342.358 72.3228L340.523 73.1172C343.282 79.4926 347.14 85.0191 352.095 89.6878L353.466 88.2322ZM342.358 72.3228C339.711 66.2079 338.38 59.4384 338.38 52H336.38C336.38 59.6816 337.756 66.7254 340.523 73.1172L342.358 72.3228ZM338.38 52C338.38 44.5616 339.711 37.7921 342.358 31.6772L340.523 30.8828C337.756 37.2746 336.38 44.3184 336.38 52H338.38ZM342.358 31.6772C345.01 25.5501 348.756 20.252 353.599 15.7743L352.241 14.3057C347.191 18.9747 343.284 24.5032 340.523 30.8828L342.358 31.6772ZM353.599 15.7743C358.442 11.2971 364.158 7.86461 370.76 5.48055L370.081 3.59945C363.243 6.06872 357.292 9.63623 352.241 14.3057L353.599 15.7743ZM370.767 5.4779C377.457 3.00352 384.805 1.76 392.82 1.76V-0.240002C384.596 -0.240002 377.01 1.03648 370.073 3.6021L370.767 5.4779ZM392.82 1.76C402.415 1.76 410.909 3.3742 418.324 6.57796L419.117 4.74202C411.411 1.41246 402.639 -0.240002 392.82 -0.240002V1.76ZM418.328 6.57972C425.842 9.78695 432.007 14.3586 436.845 20.2919L438.395 19.0281C433.34 12.828 426.905 8.06637 419.113 4.74027L418.328 6.57972ZM436.959 18.9096L415.819 37.5296L417.141 39.0304L438.281 20.4104L436.959 18.9096ZM417.235 37.6243C414.081 33.9921 410.617 31.242 406.838 29.401L405.962 31.199C409.464 32.9047 412.72 35.4745 415.725 38.9357L417.235 37.6243ZM406.866 29.4151C403.163 27.4659 399.034 26.5 394.5 26.5V28.5C398.74 28.5 402.545 29.4008 405.935 31.1849L406.866 29.4151ZM394.5 26.5C390.757 26.5 387.323 27.0761 384.209 28.2437L384.911 30.1163C387.771 29.0439 390.964 28.5 394.5 28.5V26.5ZM384.199 28.2474C381.175 29.418 378.577 31.1314 376.418 33.3888L377.863 34.7712C379.81 32.7353 382.159 31.182 384.921 30.1126L384.199 28.2474ZM376.418 33.3888C374.264 35.6402 372.608 38.325 371.444 41.4289L373.317 42.1311C374.393 39.2617 375.91 36.8131 377.863 34.7712L376.418 33.3888ZM371.444 41.4289C370.274 44.5478 369.7 48.0767 369.7 52H371.7C371.7 48.2699 372.246 44.9856 373.317 42.1311L371.444 41.4289ZM369.7 52C369.7 55.7437 370.277 59.2208 371.441 62.4217L373.32 61.7383C372.244 58.7792 371.7 55.5363 371.7 52H369.7ZM371.444 62.4311C372.608 65.535 374.264 68.2198 376.418 70.4712L377.863 69.0888C375.91 67.0469 374.393 64.5984 373.317 61.7289L371.444 62.4311ZM376.418 70.4712C378.566 72.7169 381.104 74.4727 384.023 75.7376L384.818 73.9024C382.137 72.7406 379.822 71.1364 377.863 69.0888L376.418 70.4712ZM384.059 75.7526C387.083 76.923 390.428 77.5 394.08 77.5V75.5C390.64 75.5 387.544 74.957 384.781 73.8874L384.059 75.7526ZM394.08 77.5C397.924 77.5 401.674 76.875 405.324 75.6262L404.677 73.7338C401.234 74.9117 397.703 75.5 394.08 75.5V77.5ZM405.346 75.6183C409.013 74.2673 412.881 72.0153 416.949 68.8933L415.732 67.3067C411.773 70.3447 408.081 72.4793 404.655 73.7417L405.346 75.6183ZM415.565 68.7317L434.045 91.4117L435.596 90.1483L417.116 67.4683L415.565 68.7317ZM434.263 89.95C428.386 93.8982 421.672 96.9362 414.11 99.0572L414.65 100.983C422.395 98.8105 429.308 95.6885 435.378 91.61L434.263 89.95ZM414.11 99.0572C406.536 101.182 399.207 102.24 392.12 102.24V104.24C399.407 104.24 406.918 103.152 414.65 100.983L414.11 99.0572ZM407.12 86.58V49.34H405.12V86.58H407.12ZM406.12 50.34H434.82V48.34H406.12V50.34ZM433.82 49.34V90.78H435.82V49.34H433.82ZM434.965 89.7905L406.265 85.5905L405.976 87.5695L434.676 91.7695L434.965 89.7905ZM448.898 101H447.898V102H448.898V101ZM448.898 2.99999V1.99999H447.898V2.99999H448.898ZM519.738 7.48L519.327 8.39169L519.332 8.39381L519.738 7.48ZM535.278 20.36L534.44 20.905L534.444 20.9114L535.278 20.36ZM535.278 59.56L536.108 60.118L536.112 60.1114L535.278 59.56ZM519.738 72.02L519.343 71.1015L519.338 71.1035L519.738 72.02ZM467.238 76.36L466.559 75.6255L464.682 77.36H467.238V76.36ZM481.938 62.78H482.938V60.4948L481.259 62.0455L481.938 62.78ZM481.938 101V102H482.938V101H481.938ZM507.558 101L506.729 101.559L507.026 102H507.558V101ZM483.478 65.3V64.3H481.597L482.649 65.8592L483.478 65.3ZM518.478 65.3L519.304 64.7364L519.006 64.3H518.478V65.3ZM542.838 101V102H544.731L543.664 100.436L542.838 101ZM481.938 66.42L481.224 67.1204L482.938 68.8668V66.42H481.938ZM467.238 51.44V50.44H464.856L466.524 52.1404L467.238 51.44ZM504.058 48.36L503.382 47.6228L503.374 47.63L503.367 47.6374L504.058 48.36ZM504.058 31.56L503.367 32.2826L503.374 32.29L503.382 32.2971L504.058 31.56ZM467.238 28.48L466.524 27.7796L464.856 29.48H467.238V28.48ZM481.938 13.5H482.938V11.0532L481.224 12.7996L481.938 13.5ZM449.898 101V2.99999H447.898V101H449.898ZM448.898 3.99999H496.078V1.99999H448.898V3.99999ZM496.078 3.99999C505.118 3.99999 512.858 5.47621 519.327 8.39167L520.149 6.56831C513.364 3.51044 505.331 1.99999 496.078 1.99999V3.99999ZM519.332 8.39381C525.894 11.3102 530.915 15.4834 534.44 20.905L536.116 19.815C532.36 14.0366 527.022 9.62316 520.144 6.56618L519.332 8.39381ZM534.444 20.9114C537.961 26.2317 539.738 32.5668 539.738 39.96H541.738C541.738 32.2332 539.875 25.5017 536.112 19.8086L534.444 20.9114ZM539.738 39.96C539.738 47.3532 537.961 53.6883 534.444 59.0086L536.112 60.1114C539.875 54.4183 541.738 47.6868 541.738 39.96H539.738ZM534.448 59.002C530.928 64.2371 525.908 68.2746 519.343 71.1015L520.133 72.9385C527.008 69.9787 532.348 65.7096 536.108 60.118L534.448 59.002ZM519.338 71.1035C512.866 73.9292 505.122 75.36 496.078 75.36V77.36C505.327 77.36 513.357 75.8974 520.138 72.9364L519.338 71.1035ZM496.078 75.36H467.238V77.36H496.078V75.36ZM467.917 77.0945L482.617 63.5145L481.259 62.0455L466.559 75.6255L467.917 77.0945ZM480.938 62.78V101H482.938V62.78H480.938ZM481.938 100H448.898V102H481.938V100ZM508.387 100.441L484.307 64.7408L482.649 65.8592L506.729 101.559L508.387 100.441ZM483.478 66.3H518.478V64.3H483.478V66.3ZM517.652 65.8636L542.012 101.564L543.664 100.436L519.304 64.7364L517.652 65.8636ZM542.838 100H507.558V102H542.838V100ZM482.652 65.7196L467.952 50.7396L466.524 52.1404L481.224 67.1204L482.652 65.7196ZM467.238 52.44H493.978V50.44H467.238V52.44ZM493.978 52.44C498.674 52.44 502.338 51.3894 504.749 49.0826L503.367 47.6374C501.485 49.4373 498.429 50.44 493.978 50.44V52.44ZM504.734 49.0972C507.215 46.8223 508.418 43.7357 508.418 39.96H506.418C506.418 43.2777 505.381 45.791 503.382 47.6228L504.734 49.0972ZM508.418 39.96C508.418 36.1843 507.215 33.0977 504.734 30.8228L503.382 32.2971C505.381 34.129 506.418 36.6423 506.418 39.96H508.418ZM504.749 30.8374C502.338 28.5306 498.674 27.48 493.978 27.48V29.48C498.429 29.48 501.485 30.4827 503.367 32.2826L504.749 30.8374ZM493.978 27.48H467.238V29.48H493.978V27.48ZM467.952 29.1804L482.652 14.2004L481.224 12.7996L466.524 27.7796L467.952 29.1804ZM480.938 13.5V66.42H482.938V13.5H480.938ZM583.454 39.4V38.4H582.454V39.4H583.454ZM627.134 39.4H628.134V38.4H627.134V39.4ZM627.134 63.2V64.2H628.134V63.2H627.134ZM583.454 63.2H582.454V64.2H583.454V63.2ZM585.694 76.08H584.694V77.08H585.694V76.08ZM634.694 76.08H635.694V75.08H634.694V76.08ZM634.694 101V102H635.694V101H634.694ZM553.214 101H552.214V102H553.214V101ZM553.214 2.99999V1.99999H552.214V2.99999H553.214ZM632.874 2.99999H633.874V1.99999H632.874V2.99999ZM632.874 27.92V28.92H633.874V27.92H632.874ZM585.694 27.92V26.92H584.694V27.92H585.694ZM583.454 40.4H627.134V38.4H583.454V40.4ZM626.134 39.4V63.2H628.134V39.4H626.134ZM627.134 62.2H583.454V64.2H627.134V62.2ZM584.454 63.2V39.4H582.454V63.2H584.454ZM585.694 77.08H634.694V75.08H585.694V77.08ZM633.694 76.08V101H635.694V76.08H633.694ZM634.694 100H553.214V102H634.694V100ZM554.214 101V2.99999H552.214V101H554.214ZM553.214 3.99999H632.874V1.99999H553.214V3.99999ZM631.874 2.99999V27.92H633.874V2.99999H631.874ZM632.874 26.92H585.694V28.92H632.874V26.92ZM584.694 27.92V76.08H586.694V27.92H584.694ZM660.154 100.44L660.391 99.4685L660.154 100.44ZM641.254 93.16L640.339 92.7558L639.983 93.5611L640.737 94.0161L641.254 93.16ZM651.894 69.08L652.395 68.215L651.43 67.6551L650.979 68.6758L651.894 69.08ZM667.434 75.66L667.151 76.6191L667.16 76.6218L667.169 76.6244L667.434 75.66ZM691.654 77.48L691.86 78.4585L691.878 78.4547L691.896 78.4501L691.654 77.48ZM695.714 75.66L696.378 76.4074L696.4 76.3879L696.421 76.3671L695.714 75.66ZM694.034 68.52L693.57 69.4058L694.034 68.52ZM686.194 66L685.965 66.9734L685.981 66.9773L685.997 66.9806L686.194 66ZM675.694 63.76L675.479 64.7367L675.491 64.7393L675.502 64.7415L675.694 63.76ZM664.074 60.54L663.75 61.4864L663.757 61.4887L664.074 60.54ZM653.434 55.36L652.873 56.1884L652.884 56.1957L653.434 55.36ZM645.734 46.96L644.858 47.4437L644.864 47.4536L645.734 46.96ZM647.834 17.28L647.009 16.7148L647.006 16.7181L647.834 17.28ZM663.094 5.24L662.692 4.32412L662.687 4.32619L663.094 5.24ZM708.034 2.86L707.821 3.83717L708.034 2.86ZM725.394 9.3L726.317 9.68346L726.657 8.86433L725.885 8.42884L725.394 9.3ZM715.454 33.24L715.006 34.1344L715.966 34.6141L716.377 33.6235L715.454 33.24ZM701.314 27.78L701.052 28.7452L701.057 28.7466L701.314 27.78ZM680.594 26.8L680.306 25.8422L680.594 26.8ZM676.534 29.04L675.79 28.371L675.771 28.3926L675.753 28.4153L676.534 29.04ZM678.354 36.18L677.89 37.0658L677.906 37.0747L677.924 37.0829L678.354 36.18ZM686.054 38.56L685.852 39.5395L685.857 39.5406L686.054 38.56ZM696.694 40.66L696.502 41.6415L696.506 41.6423L696.694 40.66ZM708.314 43.74L707.99 44.6863L708.314 43.74ZM718.814 48.92L718.253 49.7484L718.264 49.7557L718.814 48.92ZM726.654 57.32L725.784 57.8136L726.654 57.32ZM724.414 86.72L723.589 86.1548L723.586 86.1581L724.414 86.72ZM709.294 98.76L709.7 99.6739L709.71 99.6691L709.294 98.76ZM683.954 102.24C675.817 102.24 667.963 101.315 660.391 99.4685L659.917 101.412C667.651 103.298 675.664 104.24 683.954 104.24V102.24ZM660.391 99.4685C652.803 97.6178 646.605 95.223 641.77 92.3039L640.737 94.0161C645.795 97.0703 652.198 99.5289 659.917 101.412L660.391 99.4685ZM642.168 93.5642L652.808 69.4842L650.979 68.6758L640.339 92.7558L642.168 93.5642ZM651.392 69.945C656.134 72.6954 661.388 74.9188 667.151 76.6191L667.717 74.7009C662.092 73.0412 656.987 70.8779 652.395 68.215L651.392 69.945ZM667.169 76.6244C673.033 78.2322 678.722 79.04 684.234 79.04V77.04C678.919 77.04 673.408 76.2612 667.698 74.6956L667.169 76.6244ZM684.234 79.04C687.433 79.04 689.986 78.8529 691.86 78.4585L691.448 76.5014C689.774 76.8537 687.381 77.04 684.234 77.04V79.04ZM691.896 78.4501C693.822 77.9686 695.36 77.3123 696.378 76.4074L695.049 74.9126C694.387 75.5011 693.218 76.0581 691.411 76.5099L691.896 78.4501ZM696.421 76.3671C697.436 75.3522 697.974 74.1226 697.974 72.72H695.974C695.974 73.5574 695.672 74.2878 695.006 74.9529L696.421 76.3671ZM697.974 72.72C697.974 70.4767 696.69 68.7827 694.498 67.6342L693.57 69.4058C695.297 70.3107 695.974 71.4166 695.974 72.72H697.974ZM694.498 67.6342C692.422 66.5471 689.708 65.683 686.39 65.0194L685.997 66.9806C689.213 67.6237 691.725 68.4396 693.57 69.4058L694.498 67.6342ZM686.423 65.0266C683.235 64.2765 679.722 63.5272 675.885 62.7785L675.502 64.7415C679.319 65.4862 682.806 66.2302 685.965 66.9734L686.423 65.0266ZM675.908 62.7833C672.118 61.9512 668.278 60.8874 664.39 59.5913L663.757 61.4887C667.709 62.8059 671.616 63.8888 675.479 64.7367L675.908 62.7833ZM664.397 59.5937C660.647 58.3133 657.177 56.6231 653.983 54.5243L652.884 56.1957C656.224 58.3902 659.847 60.1534 663.75 61.4864L664.397 59.5937ZM653.994 54.5317C650.953 52.4745 648.49 49.7909 646.603 46.4664L644.864 47.4536C646.897 51.0358 649.568 53.9522 652.873 56.1883L653.994 54.5317ZM646.609 46.4763C644.751 43.1146 643.794 38.9053 643.794 33.8H641.794C641.794 39.1481 642.796 43.7121 644.858 47.4437L646.609 46.4763ZM643.794 33.8C643.794 27.9306 645.415 22.6202 648.661 17.8419L647.006 16.7181C643.532 21.8331 641.794 27.5361 641.794 33.8H643.794ZM648.659 17.8452C651.988 12.9865 656.914 9.08069 663.5 6.15381L662.687 4.32619C655.833 7.37264 650.586 11.4935 647.009 16.7148L648.659 17.8452ZM663.495 6.15587C670.145 3.24065 678.446 1.76 688.434 1.76V-0.240002C678.262 -0.240002 669.668 1.26601 662.692 4.32413L663.495 6.15587ZM688.434 1.76C694.989 1.76 701.451 2.45243 707.821 3.83717L708.246 1.88282C701.736 0.467564 695.131 -0.240002 688.434 -0.240002V1.76ZM707.821 3.83717C714.175 5.21843 719.866 7.33229 724.903 10.1711L725.885 8.42884C720.655 5.48103 714.772 3.30156 708.246 1.88282L707.821 3.83717ZM724.47 8.91653L714.53 32.8565L716.377 33.6235L726.317 9.68346L724.47 8.91653ZM715.901 32.3456C710.995 29.8928 706.218 28.0466 701.57 26.8134L701.057 28.7466C705.556 29.9401 710.205 31.7339 715.006 34.1344L715.901 32.3456ZM701.575 26.8148C697.017 25.5802 692.542 24.96 688.154 24.96V26.96C692.352 26.96 696.651 27.5531 701.052 28.7452L701.575 26.8148ZM688.154 24.96C684.936 24.96 682.306 25.2422 680.306 25.8422L680.881 27.7578C682.615 27.2377 685.025 26.96 688.154 26.96V24.96ZM680.306 25.8422C678.353 26.4282 676.803 27.2459 675.79 28.371L677.277 29.709C677.944 28.9674 679.101 28.2918 680.881 27.7578L680.306 25.8422ZM675.753 28.4153C674.874 29.5132 674.414 30.7571 674.414 32.12H676.414C676.414 31.2429 676.699 30.4335 677.314 29.6647L675.753 28.4153ZM674.414 32.12C674.414 34.2918 675.722 35.9303 677.89 37.0658L678.818 35.2942C677.065 34.3764 676.414 33.3082 676.414 32.12H674.414ZM677.924 37.0829C679.983 38.0633 682.634 38.877 685.852 39.5395L686.255 37.5805C683.126 36.9363 680.645 36.1634 678.784 35.2771L677.924 37.0829ZM685.857 39.5406C689.126 40.1943 692.674 40.8946 696.502 41.6415L696.885 39.6785C693.06 38.9321 689.515 38.2324 686.25 37.5794L685.857 39.5406ZM696.506 41.6423C700.38 42.3801 704.208 43.3947 707.99 44.6863L708.637 42.7936C704.766 41.472 700.847 40.4332 696.881 39.6777L696.506 41.6423ZM707.99 44.6863C711.738 45.9659 715.157 47.654 718.253 49.7483L719.374 48.0917C716.123 45.8927 712.543 44.1274 708.637 42.7936L707.99 44.6863ZM718.264 49.7557C721.396 51.8139 723.901 54.4958 725.784 57.8136L727.523 56.8264C725.486 53.2375 722.764 50.3194 719.363 48.0843L718.264 49.7557ZM725.784 57.8136C727.637 61.0786 728.594 65.1903 728.594 70.2H730.594C730.594 64.9431 729.59 60.468 727.523 56.8264L725.784 57.8136ZM728.594 70.2C728.594 75.9667 726.931 81.2772 723.589 86.1548L725.239 87.2852C728.803 82.0828 730.594 76.3799 730.594 70.2H728.594ZM723.586 86.1581C720.351 90.9218 715.47 94.8291 708.877 97.8509L709.71 99.6691C716.557 96.5309 721.757 92.4116 725.241 87.2819L723.586 86.1581ZM708.887 97.8462C702.334 100.759 694.037 102.24 683.954 102.24V104.24C694.217 104.24 702.813 102.735 709.7 99.6738L708.887 97.8462ZM752.165 100.44L752.402 99.4685L752.165 100.44ZM733.265 93.16L732.351 92.7558L731.995 93.5611L732.748 94.0161L733.265 93.16ZM743.905 69.08L744.407 68.215L743.442 67.6551L742.991 68.6758L743.905 69.08ZM759.445 75.66L759.162 76.6191L759.172 76.6218L759.181 76.6244L759.445 75.66ZM783.665 77.48L783.871 78.4585L783.89 78.4547L783.908 78.4501L783.665 77.48ZM787.725 75.66L788.39 76.4074L788.412 76.3879L788.432 76.3671L787.725 75.66ZM786.045 68.52L785.581 69.4058L786.045 68.52ZM778.205 66L777.976 66.9734L777.993 66.9773L778.009 66.9806L778.205 66ZM767.705 63.76L767.491 64.7367L767.502 64.7393L767.514 64.7415L767.705 63.76ZM756.085 60.54L755.762 61.4864L755.769 61.4887L756.085 60.54ZM745.445 55.36L744.885 56.1884L744.896 56.1957L745.445 55.36ZM737.745 46.96L736.87 47.4437L736.876 47.4536L737.745 46.96ZM739.845 17.28L739.02 16.7148L739.018 16.7181L739.845 17.28ZM755.105 5.24L754.704 4.32412L754.699 4.32619L755.105 5.24ZM800.045 2.86L799.833 3.83717L800.045 2.86ZM817.405 9.3L818.329 9.68346L818.669 8.86433L817.896 8.42884L817.405 9.3ZM807.465 33.24L807.018 34.1344L807.978 34.6141L808.389 33.6235L807.465 33.24ZM793.325 27.78L793.064 28.7452L793.069 28.7466L793.325 27.78ZM772.605 26.8L772.318 25.8422L772.605 26.8ZM768.545 29.04L767.802 28.371L767.783 28.3926L767.764 28.4153L768.545 29.04ZM770.365 36.18L769.901 37.0658L769.918 37.0747L769.935 37.0829L770.365 36.18ZM778.065 38.56L777.864 39.5395L777.869 39.5406L778.065 38.56ZM788.705 40.66L788.514 41.6415L788.518 41.6423L788.705 40.66ZM800.325 43.74L800.002 44.6863L800.325 43.74ZM810.825 48.92L810.265 49.7484L810.276 49.7557L810.825 48.92ZM818.665 57.32L817.796 57.8136L818.665 57.32ZM816.425 86.72L815.6 86.1548L815.598 86.1581L816.425 86.72ZM801.305 98.76L801.711 99.6739L801.722 99.6691L801.305 98.76ZM775.965 102.24C767.828 102.24 759.975 101.315 752.402 99.4685L751.928 101.412C759.662 103.298 767.676 104.24 775.965 104.24V102.24ZM752.402 99.4685C744.814 97.6178 738.617 95.223 733.782 92.3039L732.748 94.0161C737.807 97.0703 744.21 99.5289 751.928 101.412L752.402 99.4685ZM734.18 93.5642L744.82 69.4842L742.991 68.6758L732.351 92.7558L734.18 93.5642ZM743.404 69.945C748.146 72.6954 753.4 74.9188 759.162 76.6191L759.728 74.7009C754.104 73.0412 748.998 70.8779 744.407 68.215L743.404 69.945ZM759.181 76.6244C765.044 78.2322 770.734 79.04 776.245 79.04V77.04C770.93 77.04 765.419 76.2612 759.71 74.6956L759.181 76.6244ZM776.245 79.04C779.445 79.04 781.998 78.8529 783.871 78.4585L783.459 76.5014C781.786 76.8537 779.393 77.04 776.245 77.04V79.04ZM783.908 78.4501C785.834 77.9686 787.372 77.3123 788.39 76.4074L787.061 74.9126C786.399 75.5011 785.23 76.0581 783.423 76.5099L783.908 78.4501ZM788.432 76.3671C789.447 75.3522 789.985 74.1226 789.985 72.72H787.985C787.985 73.5574 787.683 74.2878 787.018 74.9529L788.432 76.3671ZM789.985 72.72C789.985 70.4767 788.702 68.7827 786.509 67.6342L785.581 69.4058C787.309 70.3107 787.985 71.4166 787.985 72.72H789.985ZM786.509 67.6342C784.434 66.5471 781.719 65.683 778.401 65.0194L778.009 66.9806C781.225 67.6237 783.737 68.4396 785.581 69.4058L786.509 67.6342ZM778.434 65.0266C775.246 64.2765 771.734 63.5272 767.897 62.7785L767.514 64.7415C771.33 65.4862 774.818 66.2302 777.976 66.9734L778.434 65.0266ZM767.92 62.7833C764.129 61.9512 760.29 60.8874 756.402 59.5913L755.769 61.4887C759.721 62.8059 763.628 63.8888 767.491 64.7367L767.92 62.7833ZM756.408 59.5937C752.659 58.3133 749.188 56.6231 745.995 54.5243L744.896 56.1957C748.236 58.3902 751.859 60.1534 755.762 61.4864L756.408 59.5937ZM746.006 54.5317C742.964 52.4745 740.502 49.7909 738.615 46.4664L736.876 47.4536C738.909 51.0358 741.579 53.9522 744.885 56.1883L746.006 54.5317ZM738.621 46.4763C736.763 43.1146 735.805 38.9053 735.805 33.8H733.805C733.805 39.1481 734.808 43.7121 736.87 47.4437L738.621 46.4763ZM735.805 33.8C735.805 27.9306 737.427 22.6202 740.673 17.8419L739.018 16.7181C735.544 21.8331 733.805 27.5361 733.805 33.8H735.805ZM740.67 17.8452C743.999 12.9865 748.926 9.08069 755.511 6.15381L754.699 4.32619C747.845 7.37264 742.598 11.4935 739.02 16.7148L740.67 17.8452ZM755.507 6.15587C762.157 3.24065 770.457 1.76 780.445 1.76V-0.240002C770.273 -0.240002 761.68 1.26601 754.704 4.32413L755.507 6.15587ZM780.445 1.76C787.001 1.76 793.463 2.45243 799.833 3.83717L800.258 1.88282C793.748 0.467564 787.143 -0.240002 780.445 -0.240002V1.76ZM799.833 3.83717C806.187 5.21843 811.878 7.33229 816.914 10.1711L817.896 8.42884C812.666 5.48103 806.784 3.30156 800.258 1.88282L799.833 3.83717ZM816.482 8.91653L806.542 32.8565L808.389 33.6235L818.329 9.68346L816.482 8.91653ZM807.913 32.3456C803.007 29.8928 798.23 28.0466 793.582 26.8134L793.069 28.7466C797.568 29.9401 802.217 31.7339 807.018 34.1344L807.913 32.3456ZM793.587 26.8148C789.028 25.5802 784.554 24.96 780.165 24.96V26.96C784.364 26.96 788.662 27.5531 793.064 28.7452L793.587 26.8148ZM780.165 24.96C776.948 24.96 774.318 25.2422 772.318 25.8422L772.893 27.7578C774.626 27.2377 777.036 26.96 780.165 26.96V24.96ZM772.318 25.8422C770.365 26.4282 768.815 27.2459 767.802 28.371L769.289 29.709C769.956 28.9674 771.113 28.2918 772.893 27.7578L772.318 25.8422ZM767.764 28.4153C766.886 29.5132 766.425 30.7571 766.425 32.12H768.425C768.425 31.2429 768.711 30.4335 769.326 29.6647L767.764 28.4153ZM766.425 32.12C766.425 34.2918 767.733 35.9303 769.901 37.0658L770.829 35.2942C769.077 34.3764 768.425 33.3082 768.425 32.12H766.425ZM769.935 37.0829C771.994 38.0633 774.646 38.877 777.864 39.5395L778.267 37.5805C775.138 36.9363 772.656 36.1634 770.795 35.2771L769.935 37.0829ZM777.869 39.5406C781.138 40.1943 784.686 40.8946 788.514 41.6415L788.897 39.6785C785.071 38.9321 781.526 38.2324 778.261 37.5794L777.869 39.5406ZM788.518 41.6423C792.391 42.3801 796.219 43.3947 800.002 44.6863L800.648 42.7936C796.778 41.472 792.859 40.4332 788.892 39.6777L788.518 41.6423ZM800.002 44.6863C803.75 45.9659 807.169 47.654 810.265 49.7483L811.386 48.0917C808.135 45.8927 804.554 44.1274 800.648 42.7936L800.002 44.6863ZM810.276 49.7557C813.408 51.8139 815.913 54.4958 817.796 57.8136L819.535 56.8264C817.498 53.2375 814.776 50.3194 811.375 48.0843L810.276 49.7557ZM817.796 57.8136C819.649 61.0786 820.605 65.1903 820.605 70.2H822.605C822.605 64.9431 821.602 60.468 819.535 56.8264L817.796 57.8136ZM820.605 70.2C820.605 75.9667 818.942 81.2772 815.6 86.1548L817.25 87.2852C820.815 82.0828 822.605 76.3799 822.605 70.2H820.605ZM815.598 86.1581C812.362 90.9218 807.482 94.8291 800.889 97.8509L801.722 99.6691C808.569 96.5309 813.768 92.4116 817.253 87.2819L815.598 86.1581ZM800.899 97.8462C794.346 100.759 786.049 102.24 775.965 102.24V104.24C786.228 104.24 794.825 102.735 801.711 99.6738L800.899 97.8462ZM860.697 99.46L860.346 100.396L860.35 100.398L860.697 99.46ZM843.197 88.82L842.511 89.5474L842.518 89.5543L843.197 88.82ZM831.577 72.44L830.659 72.8372L830.664 72.8487L831.577 72.44ZM831.577 31.56L830.664 31.1513L830.661 31.1577L831.577 31.56ZM843.197 15.32L843.876 16.0543L843.883 16.0474L843.197 15.32ZM860.697 4.54L860.35 3.60209L860.346 3.60367L860.697 4.54ZM904.937 4.54L904.586 5.47633V5.47633L904.937 4.54ZM922.437 15.32L921.751 16.0474L921.758 16.0543L922.437 15.32ZM933.917 31.56L932.999 31.9572L933.003 31.9655L933.007 31.9738L933.917 31.56ZM933.917 72.44L933.004 72.0313L932.999 72.0428L933.917 72.44ZM922.437 88.82L923.116 89.5543L923.123 89.5474L922.437 88.82ZM904.937 99.46L904.586 98.5237L904.937 99.46ZM891.357 74.82L890.975 73.8959L890.963 73.9009L891.357 74.82ZM898.357 70.06L897.634 69.3688L897.634 69.3695L898.357 70.06ZM903.117 62.36L904.053 62.7111L904.057 62.7017L903.117 62.36ZM903.117 41.78L902.177 42.1218L902.181 42.1311L903.117 41.78ZM898.357 34.08L897.619 34.7543L897.634 34.771L897.65 34.7871L898.357 34.08ZM891.357 29.18L890.963 30.0992L890.975 30.104L891.357 29.18ZM874.137 29.18L873.755 28.2559L873.743 28.2609L874.137 29.18ZM867.137 34.08L866.414 33.3888L866.414 33.3895L867.137 34.08ZM862.517 41.78L863.453 42.1311L863.457 42.1217L862.517 41.78ZM862.517 62.36L861.577 62.7018L861.581 62.7111L862.517 62.36ZM867.137 70.06L866.399 70.7343L866.414 70.751L866.43 70.7671L867.137 70.06ZM874.137 74.82L873.743 75.7392L873.755 75.744L874.137 74.82ZM882.817 102.24C874.991 102.24 867.736 100.997 861.044 98.5221L860.35 100.398C867.284 102.963 874.776 104.24 882.817 104.24V102.24ZM861.048 98.5237C854.441 96.0462 848.721 92.5655 843.876 88.0857L842.518 89.5543C847.566 94.2212 853.513 97.8338 860.346 100.396L861.048 98.5237ZM843.883 88.0926C839.033 83.5169 835.236 78.1655 832.49 72.0313L830.664 72.8487C833.518 79.2212 837.468 84.7897 842.511 89.5474L843.883 88.0926ZM832.495 72.0428C829.847 65.9248 828.517 59.248 828.517 52H826.517C826.517 59.4986 827.894 66.4485 830.659 72.8372L832.495 72.0428ZM828.517 52C828.517 44.6566 829.847 37.9822 832.493 31.9623L830.661 31.1577C827.893 37.4578 826.517 44.4101 826.517 52H828.517ZM832.49 31.9687C835.236 25.8364 839.03 20.5344 843.876 16.0543L842.518 14.5857C837.471 19.2523 833.519 24.7769 830.664 31.1513L832.49 31.9687ZM843.883 16.0474C848.728 11.4769 854.446 7.95227 861.048 5.47633L860.346 3.60367C853.508 6.16772 847.559 9.82971 842.511 14.5926L843.883 16.0474ZM861.044 5.4779C867.736 3.00259 874.991 1.76 882.817 1.76V-0.240002C874.776 -0.240002 867.284 1.0374 860.35 3.6021L861.044 5.4779ZM882.817 1.76C890.738 1.76 897.991 3.00312 904.586 5.47633L905.288 3.60367C898.443 1.03688 890.95 -0.240002 882.817 -0.240002V1.76ZM904.586 5.47633C911.188 7.95227 916.906 11.4769 921.751 16.0474L923.123 14.5926C918.075 9.82971 912.126 6.16772 905.288 3.60367L904.586 5.47633ZM921.758 16.0543C926.601 20.532 930.347 25.8301 932.999 31.9572L934.835 31.1628C932.073 24.7832 928.166 19.2547 923.116 14.5857L921.758 16.0543ZM933.007 31.9738C935.742 37.9909 937.117 44.6612 937.117 52H939.117C939.117 44.4055 937.692 37.4491 934.827 31.1462L933.007 31.9738ZM937.117 52C937.117 59.2434 935.742 65.9161 933.004 72.0313L934.83 72.8487C937.692 66.4572 939.117 59.5033 939.117 52H937.117ZM932.999 72.0428C930.346 78.1717 926.599 83.5193 921.751 88.0926L923.123 89.5474C928.169 84.7873 932.074 79.2149 934.835 72.8372L932.999 72.0428ZM921.758 88.0857C916.913 92.5655 911.193 96.0462 904.586 98.5237L905.288 100.396C912.121 97.8338 918.068 94.2212 923.116 89.5543L921.758 88.0857ZM904.586 98.5237C897.991 100.997 890.738 102.24 882.817 102.24V104.24C890.95 104.24 898.443 102.963 905.288 100.396L904.586 98.5237ZM882.817 77.5C886.021 77.5 889.003 76.9168 891.751 75.7391L890.963 73.9009C888.484 74.9632 885.773 75.5 882.817 75.5V77.5ZM891.739 75.744C894.571 74.5725 897.021 72.9078 899.08 70.7505L897.634 69.3695C895.773 71.3189 893.557 72.8275 890.975 73.896L891.739 75.744ZM899.08 70.7512C901.233 68.4998 902.889 65.815 904.053 62.7111L902.181 62.0089C901.105 64.8783 899.587 67.3269 897.634 69.3688L899.08 70.7512ZM904.057 62.7017C905.223 59.4955 905.797 55.9241 905.797 52H903.797C903.797 55.7293 903.251 59.0645 902.177 62.0182L904.057 62.7017ZM905.797 52C905.797 48.0767 905.223 44.5478 904.053 41.4289L902.181 42.1311C903.251 44.9856 903.797 48.2699 903.797 52H905.797ZM904.057 41.4383C902.893 38.2386 901.233 35.5421 899.064 33.3729L897.65 34.7871C899.587 36.7246 901.101 39.1613 902.177 42.1217L904.057 41.4383ZM899.096 33.4057C897.036 31.1498 894.581 29.4316 891.739 28.256L890.975 30.104C893.547 31.1684 895.758 32.7168 897.619 34.7543L899.096 33.4057ZM891.751 28.2609C889.003 27.0832 886.021 26.5 882.817 26.5V28.5C885.773 28.5 888.484 29.0368 890.963 30.0991L891.751 28.2609ZM882.817 26.5C879.613 26.5 876.589 27.0833 873.755 28.256L874.519 30.104C877.099 29.0367 879.861 28.5 882.817 28.5V26.5ZM873.743 28.2609C871 29.4363 868.557 31.1492 866.414 33.3888L867.86 34.7712C869.824 32.7174 872.047 31.1637 874.531 30.0991L873.743 28.2609ZM866.414 33.3895C864.345 35.5572 862.737 38.2482 861.577 41.4383L863.457 42.1217C864.537 39.1518 866.01 36.7095 867.86 34.7705L866.414 33.3895ZM861.581 41.4289C860.411 44.5478 859.837 48.0767 859.837 52H861.837C861.837 48.2699 862.383 44.9856 863.453 42.1311L861.581 41.4289ZM859.837 52C859.837 55.9241 860.411 59.4955 861.577 62.7017L863.457 62.0183C862.383 59.0645 861.837 55.7293 861.837 52H859.837ZM861.581 62.7111C862.741 65.8055 864.345 68.4847 866.399 70.7343L867.875 69.3857C866.009 67.342 864.533 64.8878 863.453 62.0089L861.581 62.7111ZM866.43 70.7671C868.571 72.9084 871.01 74.5679 873.743 75.7391L874.531 73.9009C872.037 72.832 869.809 71.3182 867.844 69.3529L866.43 70.7671ZM873.755 75.744C876.589 76.9167 879.613 77.5 882.817 77.5V75.5C879.861 75.5 877.099 74.9633 874.519 73.896L873.755 75.744ZM988.022 101H987.022V102H988.022V101ZM988.022 80.7L987.343 79.9659L987.022 80.2628V80.7H988.022ZM1023.44 47.94L1024.12 48.6741L1024.13 48.6681L1024.13 48.662L1023.44 47.94ZM1028.34 42.34L1027.52 41.7633L1027.51 41.7798L1027.5 41.7967L1028.34 42.34ZM1030.58 38.14L1031.54 38.4341L1031.54 38.4244L1031.54 38.4147L1030.58 38.14ZM1028.76 28.9L1028.1 29.6498L1028.11 29.6611L1028.13 29.6719L1028.76 28.9ZM1013.36 29.18L1013.86 30.0482L1013.87 30.0417L1013.88 30.0348L1013.36 29.18ZM1007.2 35.9L1006.75 36.7944L1007.65 37.2416L1008.1 36.3472L1007.2 35.9ZM982.282 23.44L981.397 22.9732L980.92 23.8773L981.834 24.3344L982.282 23.44ZM998.242 7.06L998.751 7.92048L998.242 7.06ZM1045.28 4.54L1044.89 5.46136V5.46136L1045.28 4.54ZM1059.28 15.18L1058.48 15.7721L1059.28 15.18ZM1063.06 40.94L1062.09 40.6841L1062.09 40.6975L1062.09 40.711L1063.06 40.94ZM1058.3 51.02L1059.12 51.595L1059.13 51.5847L1058.3 51.02ZM1047.52 62.64L1046.85 61.8974L1046.85 61.9006L1047.52 62.64ZM1020.92 86.86L1020.01 87.2713L1020.58 88.5266L1021.59 87.5994L1020.92 86.86ZM1015.74 75.38V74.38H1014.19L1014.83 75.7913L1015.74 75.38ZM1066.56 75.38H1067.56V74.38H1066.56V75.38ZM1066.56 101V102H1067.56V101H1066.56ZM989.022 101V80.7H987.022V101H989.022ZM988.701 81.4341L1024.12 48.6741L1022.76 47.2059L987.343 79.9659L988.701 81.4341ZM1024.13 48.662C1026.4 46.4912 1028.09 44.5631 1029.18 42.8832L1027.5 41.7967C1026.54 43.2903 1024.96 45.0955 1022.75 47.218L1024.13 48.662ZM1029.16 42.9167C1030.31 41.2844 1031.12 39.7869 1031.54 38.4341L1029.63 37.8459C1029.3 38.9198 1028.61 40.2223 1027.52 41.7633L1029.16 42.9167ZM1031.54 38.4147C1031.94 37.037 1032.14 35.7302 1032.14 34.5H1030.14C1030.14 35.5098 1029.97 36.6296 1029.62 37.8653L1031.54 38.4147ZM1032.14 34.5C1032.14 31.8345 1031.26 29.6598 1029.4 28.1281L1028.13 29.6719C1029.44 30.7535 1030.14 32.3122 1030.14 34.5H1032.14ZM1029.42 28.1502C1027.58 26.525 1024.92 25.8 1021.62 25.8V27.8C1024.67 27.8 1026.77 28.475 1028.1 29.6498L1029.42 28.1502ZM1021.62 25.8C1018.53 25.8 1015.6 26.6492 1012.84 28.3252L1013.88 30.0348C1016.35 28.5375 1018.92 27.8 1021.62 27.8V25.8ZM1012.87 28.3118C1010.06 29.9136 1007.88 32.3096 1006.31 35.4528L1008.1 36.3472C1009.51 33.5171 1011.43 31.4331 1013.86 30.0482L1012.87 28.3118ZM1007.65 35.0056L982.729 22.5456L981.834 24.3344L1006.75 36.7944L1007.65 35.0056ZM983.166 23.9068C986.619 17.3639 991.803 12.0347 998.751 7.92048L997.732 6.19952C990.494 10.4853 985.037 16.0761 981.397 22.9732L983.166 23.9068ZM998.751 7.92048C1005.65 3.83399 1014.28 1.76 1024.7 1.76V-0.240002C1014.02 -0.240002 1005.02 1.88601 997.732 6.19952L998.751 7.92048ZM1024.7 1.76C1032.34 1.76 1039.06 3.00233 1044.89 5.46136L1045.67 3.61863C1039.55 1.03766 1032.56 -0.240002 1024.7 -0.240002V1.76ZM1044.89 5.46136C1050.72 7.92141 1055.24 11.3639 1058.48 15.7721L1060.09 14.5879C1056.61 9.84946 1051.79 6.19857 1045.67 3.61863L1044.89 5.46136ZM1058.48 15.7721C1061.7 20.1562 1063.32 25.3568 1063.32 31.42H1065.32C1065.32 24.9765 1063.59 19.3504 1060.09 14.5879L1058.48 15.7721ZM1063.32 31.42C1063.32 34.504 1062.91 37.5914 1062.09 40.6841L1064.03 41.1959C1064.89 37.9419 1065.32 34.6826 1065.32 31.42H1063.32ZM1062.09 40.711C1061.38 43.7327 1059.85 46.9798 1057.48 50.4553L1059.13 51.5847C1061.6 47.9669 1063.25 44.4939 1064.04 41.169L1062.09 40.711ZM1057.48 50.4451C1055.12 53.8143 1051.58 57.6312 1046.85 61.8974L1048.19 63.3826C1052.98 59.0621 1056.63 55.1324 1059.12 51.5949L1057.48 50.4451ZM1046.85 61.9006L1020.25 86.1206L1021.59 87.5994L1048.19 63.3794L1046.85 61.9006ZM1021.83 86.4487L1016.65 74.9687L1014.83 75.7913L1020.01 87.2713L1021.83 86.4487ZM1015.74 76.38H1066.56V74.38H1015.74V76.38ZM1065.56 75.38V101H1067.56V75.38H1065.56ZM1066.56 100H988.022V102H1066.56V100ZM1094.62 97.22L1094.1 98.0754L1094.1 98.0785L1094.62 97.22ZM1078.94 79.72L1078.04 80.1584L1078.04 80.1672L1078.94 79.72ZM1078.94 24.28L1078.04 23.8328L1078.04 23.8416L1078.94 24.28ZM1094.62 6.77999L1094.1 5.92144L1094.1 5.92464L1094.62 6.77999ZM1140.68 6.77999L1140.16 7.63537L1140.16 7.63854L1140.68 6.77999ZM1156.36 24.28L1155.46 24.7184L1155.46 24.7272L1156.36 24.28ZM1156.36 79.72L1155.46 79.2728L1155.46 79.2816L1156.36 79.72ZM1140.68 97.22L1140.16 96.3614L1140.16 96.3646L1140.68 97.22ZM1127.38 66.84L1126.41 66.5685L1126.41 66.58L1126.41 66.5916L1127.38 66.84ZM1127.38 37.16L1126.41 37.4084L1126.41 37.4233L1126.42 37.4381L1127.38 37.16ZM1123.46 29.46L1124.12 28.7126L1123.46 29.46ZM1111.98 29.46L1111.31 28.7126L1111.98 29.46ZM1107.92 37.16L1106.95 36.8885L1106.95 36.897L1106.95 36.9055L1107.92 37.16ZM1107.92 66.84L1106.95 67.0884L1106.95 67.1L1106.95 67.1115L1107.92 66.84ZM1117.72 102.24C1109.2 102.24 1101.68 100.272 1095.13 96.3615L1094.1 98.0785C1101 102.194 1108.88 104.24 1117.72 104.24V102.24ZM1095.14 96.3646C1088.69 92.4592 1083.58 86.7755 1079.83 79.2728L1078.04 80.1672C1081.94 87.9711 1087.29 93.9542 1094.1 98.0754L1095.14 96.3646ZM1079.84 79.2816C1076.18 71.7967 1074.34 62.7147 1074.34 52H1072.34C1072.34 62.9386 1074.22 72.3366 1078.04 80.1584L1079.84 79.2816ZM1074.34 52C1074.34 41.2853 1076.18 32.2033 1079.84 24.7184L1078.04 23.8416C1074.22 31.6634 1072.34 41.0614 1072.34 52H1074.34ZM1079.83 24.7272C1083.58 17.2245 1088.69 11.5408 1095.14 7.63535L1094.1 5.92464C1087.29 10.0458 1081.94 16.0288 1078.04 23.8328L1079.83 24.7272ZM1095.13 7.63854C1101.68 3.72763 1109.2 1.76 1117.72 1.76V-0.240002C1108.88 -0.240002 1101 1.8057 1094.1 5.92145L1095.13 7.63854ZM1117.72 1.76C1126.24 1.76 1133.71 3.72768 1140.16 7.63535L1141.2 5.92463C1134.39 1.80564 1126.56 -0.240002 1117.72 -0.240002V1.76ZM1140.16 7.63854C1146.7 11.5435 1151.8 17.2236 1155.46 24.7184L1157.26 23.8416C1153.45 16.0297 1148.09 10.0431 1141.19 5.92145L1140.16 7.63854ZM1155.46 24.7272C1159.2 32.2098 1161.1 41.2885 1161.1 52H1163.1C1163.1 41.0582 1161.16 31.6569 1157.25 23.8328L1155.46 24.7272ZM1161.1 52C1161.1 62.7115 1159.2 71.7902 1155.46 79.2728L1157.25 80.1672C1161.16 72.3431 1163.1 62.9418 1163.1 52H1161.1ZM1155.46 79.2816C1151.8 86.7764 1146.7 92.4565 1140.16 96.3615L1141.19 98.0785C1148.09 93.9569 1153.45 87.9703 1157.26 80.1584L1155.46 79.2816ZM1140.16 96.3646C1133.71 100.272 1126.24 102.24 1117.72 102.24V104.24C1126.56 104.24 1134.39 102.194 1141.2 98.0754L1140.16 96.3646ZM1117.72 77.78C1120.12 77.78 1122.27 76.9351 1124.12 75.2874L1122.79 73.7926C1121.29 75.1316 1119.61 75.78 1117.72 75.78V77.78ZM1124.12 75.2874C1126.02 73.5997 1127.39 70.8049 1128.35 67.0884L1126.41 66.5916C1125.49 70.1551 1124.25 72.4936 1122.79 73.7926L1124.12 75.2874ZM1128.34 67.1115C1129.4 63.3444 1129.92 58.2936 1129.92 52H1127.92C1127.92 58.213 1127.41 63.0555 1126.41 66.5685L1128.34 67.1115ZM1129.92 52C1129.92 45.6164 1129.4 40.561 1128.34 36.8819L1126.42 37.4381C1127.41 40.8523 1127.92 45.6903 1127.92 52H1129.92ZM1128.35 36.9116C1127.39 33.1951 1126.02 30.4003 1124.12 28.7126L1122.79 30.2074C1124.25 31.5064 1125.49 33.8449 1126.41 37.4084L1128.35 36.9116ZM1124.12 28.7126C1122.27 27.0649 1120.12 26.22 1117.72 26.22V28.22C1119.61 28.22 1121.29 28.8684 1122.79 30.2074L1124.12 28.7126ZM1117.72 26.22C1115.31 26.22 1113.17 27.0649 1111.31 28.7126L1112.64 30.2074C1114.15 28.8684 1115.83 28.22 1117.72 28.22V26.22ZM1111.31 28.7126C1109.42 30.3927 1108 33.1765 1106.95 36.8885L1108.88 37.4315C1109.89 33.8634 1111.17 31.514 1112.64 30.2074L1111.31 28.7126ZM1106.95 36.9055C1105.98 40.5742 1105.52 45.6202 1105.52 52H1107.52C1107.52 45.6865 1107.98 40.8391 1108.88 37.4145L1106.95 36.9055ZM1105.52 52C1105.52 58.2896 1105.99 63.3314 1106.95 67.0884L1108.89 66.5916C1107.98 63.0686 1107.52 58.2171 1107.52 52H1105.52ZM1106.95 67.1115C1108 70.8235 1109.42 73.6073 1111.31 75.2874L1112.64 73.7926C1111.17 72.486 1109.89 70.1365 1108.88 66.5685L1106.95 67.1115ZM1111.31 75.2874C1113.17 76.9351 1115.31 77.78 1117.72 77.78V75.78C1115.83 75.78 1114.15 75.1316 1112.64 73.7926L1111.31 75.2874ZM1168.76 101H1167.76V102H1168.76V101ZM1168.76 80.7L1168.08 79.9659L1167.76 80.2628V80.7H1168.76ZM1204.18 47.94L1204.86 48.6741L1204.87 48.6681L1204.88 48.662L1204.18 47.94ZM1209.08 42.34L1208.27 41.7633L1208.26 41.7798L1208.24 41.7967L1209.08 42.34ZM1211.32 38.14L1212.28 38.4341L1212.28 38.4244L1212.29 38.4147L1211.32 38.14ZM1209.5 28.9L1208.84 29.6498L1208.85 29.6611L1208.87 29.6719L1209.5 28.9ZM1194.1 29.18L1194.6 30.0482L1194.61 30.0417L1194.62 30.0348L1194.1 29.18ZM1187.94 35.9L1187.5 36.7944L1188.39 37.2416L1188.84 36.3472L1187.94 35.9ZM1163.02 23.44L1162.14 22.9732L1161.66 23.8773L1162.58 24.3344L1163.02 23.44ZM1178.98 7.06L1179.49 7.92048L1178.98 7.06ZM1226.02 4.54L1225.64 5.46136V5.46136L1226.02 4.54ZM1240.02 15.18L1239.22 15.7721L1240.02 15.18ZM1243.8 40.94L1242.84 40.6841L1242.83 40.6975L1242.83 40.711L1243.8 40.94ZM1239.04 51.02L1239.86 51.595L1239.87 51.5847L1239.04 51.02ZM1228.26 62.64L1227.59 61.8974L1227.59 61.9006L1228.26 62.64ZM1201.66 86.86L1200.75 87.2713L1201.32 88.5266L1202.34 87.5994L1201.66 86.86ZM1196.48 75.38V74.38H1194.94L1195.57 75.7913L1196.48 75.38ZM1247.3 75.38H1248.3V74.38H1247.3V75.38ZM1247.3 101V102H1248.3V101H1247.3ZM1169.76 101V80.7H1167.76V101H1169.76ZM1169.44 81.4341L1204.86 48.6741L1203.5 47.2059L1168.08 79.9659L1169.44 81.4341ZM1204.88 48.662C1207.14 46.4912 1208.84 44.5631 1209.92 42.8832L1208.24 41.7967C1207.28 43.2903 1205.71 45.0955 1203.49 47.218L1204.88 48.662ZM1209.9 42.9167C1211.05 41.2844 1211.86 39.7869 1212.28 38.4341L1210.37 37.8459C1210.04 38.9198 1209.35 40.2223 1208.27 41.7633L1209.9 42.9167ZM1212.29 38.4147C1212.68 37.037 1212.88 35.7302 1212.88 34.5H1210.88C1210.88 35.5098 1210.72 36.6296 1210.36 37.8653L1212.29 38.4147ZM1212.88 34.5C1212.88 31.8345 1212 29.6598 1210.14 28.1281L1208.87 29.6719C1210.18 30.7535 1210.88 32.3122 1210.88 34.5H1212.88ZM1210.17 28.1502C1208.32 26.525 1205.66 25.8 1202.36 25.8V27.8C1205.41 27.8 1207.51 28.475 1208.84 29.6498L1210.17 28.1502ZM1202.36 25.8C1199.28 25.8 1196.35 26.6492 1193.58 28.3252L1194.62 30.0348C1197.09 28.5375 1199.66 27.8 1202.36 27.8V25.8ZM1193.61 28.3118C1190.8 29.9136 1188.62 32.3096 1187.05 35.4528L1188.84 36.3472C1190.25 33.5171 1192.18 31.4331 1194.6 30.0482L1193.61 28.3118ZM1188.39 35.0056L1163.47 22.5456L1162.58 24.3344L1187.5 36.7944L1188.39 35.0056ZM1163.91 23.9068C1167.36 17.3639 1172.54 12.0347 1179.49 7.92048L1178.47 6.19952C1171.24 10.4853 1165.78 16.0761 1162.14 22.9732L1163.91 23.9068ZM1179.49 7.92048C1186.39 3.83399 1195.03 1.76 1205.44 1.76V-0.240002C1194.77 -0.240002 1185.76 1.88601 1178.47 6.19952L1179.49 7.92048ZM1205.44 1.76C1213.08 1.76 1219.81 3.00233 1225.64 5.46136L1226.41 3.61863C1220.29 1.03766 1213.3 -0.240002 1205.44 -0.240002V1.76ZM1225.64 5.46136C1231.47 7.92141 1235.98 11.3639 1239.22 15.7721L1240.83 14.5879C1237.35 9.84946 1232.53 6.19857 1226.41 3.61863L1225.64 5.46136ZM1239.22 15.7721C1242.44 20.1562 1244.06 25.3568 1244.06 31.42H1246.06C1246.06 24.9765 1244.33 19.3504 1240.83 14.5879L1239.22 15.7721ZM1244.06 31.42C1244.06 34.504 1243.66 37.5914 1242.84 40.6841L1244.77 41.1959C1245.63 37.9419 1246.06 34.6826 1246.06 31.42H1244.06ZM1242.83 40.711C1242.12 43.7327 1240.6 46.9798 1238.22 50.4553L1239.87 51.5847C1242.34 47.9669 1243.99 44.4939 1244.78 41.169L1242.83 40.711ZM1238.23 50.4451C1235.86 53.8143 1232.32 57.6312 1227.59 61.8974L1228.93 63.3826C1233.72 59.0621 1237.38 55.1324 1239.86 51.5949L1238.23 50.4451ZM1227.59 61.9006L1200.99 86.1206L1202.34 87.5994L1228.94 63.3794L1227.59 61.9006ZM1202.58 86.4487L1197.4 74.9687L1195.57 75.7913L1200.75 87.2713L1202.58 86.4487ZM1196.48 76.38H1247.3V74.38H1196.48V76.38ZM1246.3 75.38V101H1248.3V75.38H1246.3ZM1247.3 100H1168.76V102H1247.3V100ZM1253.24 84.2H1252.24V85.2H1253.24V84.2ZM1253.24 63.2L1252.42 62.6317L1252.24 62.8882V63.2H1253.24ZM1294.82 2.99999V1.99999H1294.29L1294 2.43168L1294.82 2.99999ZM1328.7 2.99999L1329.53 3.5538L1330.57 1.99999H1328.7V2.99999ZM1288.66 63.2L1288.37 64.1578L1289.08 64.3707L1289.49 63.7538L1288.66 63.2ZM1273.26 58.58V57.58L1272.97 59.5378L1273.26 58.58ZM1349.14 58.58H1350.14V57.58H1349.14V58.58ZM1349.14 84.2V85.2H1350.14V84.2H1349.14ZM1304.06 101H1303.06V102H1304.06V101ZM1304.06 84.2L1303.06 84.1618L1303.06 84.1809V84.2H1304.06ZM1305.04 58.58L1306.04 58.6182L1306.04 58.5991V58.58H1305.04ZM1305.04 43.6V42.6H1304.04V43.6H1305.04ZM1336.12 43.6H1337.12V42.6H1336.12V43.6ZM1336.12 101V102H1337.12V101H1336.12ZM1254.24 84.2V63.2H1252.24V84.2H1254.24ZM1254.06 63.7683L1295.64 3.56831L1294 2.43168L1252.42 62.6317L1254.06 63.7683ZM1294.82 3.99999H1328.7V1.99999H1294.82V3.99999ZM1327.87 2.44619L1287.83 62.6462L1289.49 63.7538L1329.53 3.5538L1327.87 2.44619ZM1288.95 62.2422L1273.55 57.6222L1272.97 59.5378L1288.37 64.1578L1288.95 62.2422ZM1273.26 59.58H1349.14V57.58H1273.26V59.58ZM1348.14 58.58V84.2H1350.14V58.58H1348.14ZM1349.14 83.2H1253.24V85.2H1349.14V83.2ZM1305.06 101V84.2H1303.06V101H1305.06ZM1305.06 84.2382L1306.04 58.6182L1304.04 58.5418L1303.06 84.1618L1305.06 84.2382ZM1306.04 58.58V43.6H1304.04V58.58H1306.04ZM1305.04 44.6H1336.12V42.6H1305.04V44.6ZM1335.12 43.6V101H1337.12V43.6H1335.12ZM1336.12 100H1304.06V102H1336.12V100Z" fill="#E0A273" mask="url(#path-1-outside-1_137_83)"/>
</g>
<defs>
<filter id="filter0_d_137_83" x="0.0595703" y="0.76001" width="1353.08" height="110.48" filterUnits="userSpaceOnUse" color-interpolation-filters="sRGB">
<feFlood flood-opacity="0" result="BackgroundImageFix"/>
<feColorMatrix in="SourceAlpha" type="matrix" values="0 0 0 0 0 0 0 0 0 0 0 0 0 0 0 0 0 0 127 0" result="hardAlpha"/>
<feOffset dy="4"/>
<feGaussianBlur stdDeviation="2"/>
<feComposite in2="hardAlpha" operator="out"/>
<feColorMatrix type="matrix" values="0 0 0 0 0 0 0 0 0 0 0 0 0 0 0 0 0 0 0.25 0"/>
<feBlend mode="normal" in2="BackgroundImageFix" result="effect1_dropShadow_137_83"/>
<feBlend mode="normal" in="SourceGraphic" in2="effect1_dropShadow_137_83" result="shape"/>
</filter>
</defs>
</svg>
