<svg width="32" height="32" viewBox="0 0 32 32" fill="none" xmlns="http://www.w3.org/2000/svg">
<g clip-path="url(#clip0_6053_510)">
<path d="M28.412 17.781V11.5205C28.412 10.632 29.139 9.90953 30.0325 9.90953C30.4597 9.90966 30.8693 10.0794 31.1713 10.3816C31.4733 10.6837 31.643 11.0933 31.643 11.5205V20.093C31.6427 21.2755 31.2201 22.419 30.4515 23.3175L25.106 28.9945C24.5755 29.494 24.4455 29.936 24.4455 30.606V31.6395H18.627L18.6205 29.1805C18.6205 28.244 18.544 26.9925 19.716 25.7645L26.499 18.9535C26.7354 18.7174 27.0545 18.5825 27.3886 18.5774C27.7227 18.5722 28.0457 18.6972 28.2894 18.926C28.533 19.1547 28.6781 19.4692 28.6939 19.803C28.7098 20.1368 28.5953 20.4637 28.3745 20.7145L25.103 24.219C24.891 24.4675 24.532 24.936 24.354 25.51C24.258 25.808 24.2305 26.0985 24.225 26.432H25.278C25.282 26.1945 25.3 26.0035 25.3565 25.8265C25.4595 25.4955 25.6645 25.1975 25.819 25.0065L29.14 21.3615C29.5575 20.9405 29.7865 20.3955 29.7865 19.8225C29.7865 18.962 29.269 18.1705 28.413 17.7805L28.412 17.781ZM3.89949 17.781V11.5205C3.89949 10.632 3.17249 9.90953 2.27899 9.90953C1.85181 9.90966 1.44217 10.0794 1.14016 10.3816C0.838149 10.6837 0.668488 11.0933 0.668488 11.5205V20.093C0.668488 21.2785 1.09499 22.4235 1.86049 23.3175L7.20649 28.9945C7.73649 29.494 7.86699 29.936 7.86699 30.606V31.6395H13.6855L13.692 29.1805C13.692 28.244 13.7685 26.9925 12.5965 25.7645L5.81349 18.9535C5.57703 18.7174 5.25801 18.5825 4.92388 18.5774C4.58975 18.5722 4.26673 18.6972 4.02312 18.926C3.77951 19.1547 3.63442 19.4692 3.61853 19.803C3.60264 20.1368 3.7172 20.4637 3.93799 20.7145L7.20999 24.219C7.42199 24.4675 7.78099 24.936 7.95899 25.51C8.05549 25.808 8.08249 26.0985 8.08799 26.432H7.03499C7.03099 26.1945 7.01349 26.0035 6.95599 25.8265C6.85349 25.4955 6.64799 25.1975 6.49349 25.0065L3.17249 21.362C2.75499 20.941 2.52599 20.3955 2.52599 19.823C2.52599 18.962 3.04349 18.171 3.89949 17.781ZM16.768 3.06153C17.1344 3.06153 17.4858 2.91598 17.7449 2.65689C18.0039 2.39781 18.1495 2.04642 18.1495 1.68003C18.1495 1.31363 18.0039 0.96224 17.7449 0.703158C17.4858 0.444077 17.1344 0.298526 16.768 0.298526C16.4016 0.298526 16.0502 0.444077 15.7911 0.703158C15.532 0.96224 15.3865 1.31363 15.3865 1.68003C15.3865 2.04642 15.532 2.39781 15.7911 2.65689C16.0502 2.91598 16.4016 3.06153 16.768 3.06153ZM9.27449 3.06903C9.09117 3.06982 8.90949 3.03446 8.73984 2.96499C8.57019 2.89552 8.4159 2.7933 8.28578 2.66416C8.15567 2.53502 8.05228 2.3815 7.98154 2.21238C7.91079 2.04325 7.87408 1.86185 7.87349 1.67853C7.87414 1.49525 7.91091 1.31389 7.98168 1.14483C8.05246 0.975766 8.15585 0.822306 8.28596 0.693219C8.41607 0.564132 8.57034 0.46195 8.73995 0.39251C8.90957 0.323071 9.09121 0.287737 9.27449 0.288526C10.0485 0.288526 10.6775 0.910526 10.6775 1.67853C10.6775 2.44803 10.0485 3.06903 9.27449 3.06903ZM23.6305 8.40103C23.7577 8.40096 23.8837 8.37583 24.0013 8.32707C24.1188 8.27832 24.2256 8.20689 24.3155 8.11686C24.4055 8.02683 24.4768 7.91997 24.5254 7.80238C24.5741 7.68479 24.5991 7.55878 24.599 7.43153C24.5989 7.30428 24.5738 7.17828 24.525 7.06074C24.4763 6.9432 24.4048 6.83642 24.3148 6.74649C24.2248 6.65655 24.1179 6.58523 24.0003 6.5366C23.8828 6.48796 23.7567 6.46296 23.6295 6.46303C23.3725 6.46316 23.1261 6.56538 22.9444 6.74719C22.7628 6.92901 22.6609 7.17553 22.661 7.43253C22.6611 7.68952 22.7633 7.93594 22.9452 8.11757C23.127 8.2992 23.3735 8.40116 23.6305 8.40103Z" fill="#00E6AF"/>
<path d="M28.412 17.781V11.5205C28.412 10.632 29.139 9.90953 30.0325 9.90953C30.4597 9.90966 30.8693 10.0794 31.1713 10.3816C31.4733 10.6837 31.643 11.0933 31.643 11.5205V20.093C31.6427 21.2755 31.2201 22.419 30.4515 23.3175L25.106 28.9945C24.5755 29.494 24.4455 29.936 24.4455 30.606V31.6395H18.627L18.6205 29.1805C18.6205 28.244 18.544 26.9925 19.716 25.7645L26.499 18.9535C26.7354 18.7174 27.0545 18.5825 27.3886 18.5774C27.7227 18.5722 28.0457 18.6972 28.2894 18.926C28.533 19.1547 28.6781 19.4692 28.6939 19.803C28.7098 20.1368 28.5953 20.4637 28.3745 20.7145L25.103 24.219C24.891 24.4675 24.532 24.936 24.354 25.51C24.258 25.808 24.2305 26.0985 24.225 26.432H25.278C25.282 26.1945 25.3 26.0035 25.3565 25.8265C25.4595 25.4955 25.6645 25.1975 25.819 25.0065L29.14 21.3615C29.5575 20.9405 29.7865 20.3955 29.7865 19.8225C29.7865 18.962 29.269 18.1705 28.413 17.7805L28.412 17.781ZM3.89949 17.781V11.5205C3.89949 10.632 3.17249 9.90953 2.27899 9.90953C1.85181 9.90966 1.44217 10.0794 1.14016 10.3816C0.838149 10.6837 0.668488 11.0933 0.668488 11.5205V20.093C0.668488 21.2785 1.09499 22.4235 1.86049 23.3175L7.20649 28.9945C7.73649 29.494 7.86699 29.936 7.86699 30.606V31.6395H13.6855L13.692 29.1805C13.692 28.244 13.7685 26.9925 12.5965 25.7645L5.81349 18.9535C5.57703 18.7174 5.25801 18.5825 4.92388 18.5774C4.58975 18.5722 4.26673 18.6972 4.02312 18.926C3.77951 19.1547 3.63442 19.4692 3.61853 19.803C3.60264 20.1368 3.7172 20.4637 3.93799 20.7145L7.20999 24.219C7.42199 24.4675 7.78099 24.936 7.95899 25.51C8.05549 25.808 8.08249 26.0985 8.08799 26.432H7.03499C7.03099 26.1945 7.01349 26.0035 6.95599 25.8265C6.85349 25.4955 6.64799 25.1975 6.49349 25.0065L3.17249 21.362C2.75499 20.941 2.52599 20.3955 2.52599 19.823C2.52599 18.962 3.04349 18.171 3.89949 17.781ZM16.768 3.06153C17.1344 3.06153 17.4858 2.91598 17.7449 2.65689C18.0039 2.39781 18.1495 2.04642 18.1495 1.68003C18.1495 1.31363 18.0039 0.96224 17.7449 0.703158C17.4858 0.444077 17.1344 0.298526 16.768 0.298526C16.4016 0.298526 16.0502 0.444077 15.7911 0.703158C15.532 0.96224 15.3865 1.31363 15.3865 1.68003C15.3865 2.04642 15.532 2.39781 15.7911 2.65689C16.0502 2.91598 16.4016 3.06153 16.768 3.06153ZM9.27449 3.06903C9.09117 3.06982 8.90949 3.03446 8.73984 2.96499C8.57019 2.89552 8.4159 2.7933 8.28578 2.66416C8.15567 2.53502 8.05228 2.3815 7.98154 2.21238C7.91079 2.04325 7.87408 1.86185 7.87349 1.67853C7.87414 1.49525 7.91091 1.31389 7.98168 1.14483C8.05246 0.975766 8.15585 0.822306 8.28596 0.693219C8.41607 0.564132 8.57034 0.46195 8.73995 0.39251C8.90957 0.323071 9.09121 0.287737 9.27449 0.288526C10.0485 0.288526 10.6775 0.910526 10.6775 1.67853C10.6775 2.44803 10.0485 3.06903 9.27449 3.06903ZM23.6305 8.40103C23.7577 8.40096 23.8837 8.37583 24.0013 8.32707C24.1188 8.27832 24.2256 8.20689 24.3155 8.11686C24.4055 8.02683 24.4768 7.91997 24.5254 7.80238C24.5741 7.68479 24.5991 7.55878 24.599 7.43153C24.5989 7.30428 24.5738 7.17828 24.525 7.06074C24.4763 6.9432 24.4048 6.83642 24.3148 6.74649C24.2248 6.65655 24.1179 6.58523 24.0003 6.5366C23.8828 6.48796 23.7567 6.46296 23.6295 6.46303C23.3725 6.46316 23.1261 6.56538 22.9444 6.74719C22.7628 6.92901 22.6609 7.17553 22.661 7.43253C22.6611 7.68952 22.7633 7.93594 22.9452 8.11757C23.127 8.2992 23.3735 8.40116 23.6305 8.40103Z" fill="black" fill-opacity="0.5"/>
<path d="M25.0335 8.87899H22.42C22.408 8.87899 21.5455 8.80049 21.5455 8.80049L20.451 4.98549C20.0105 3.44949 18.7225 3.49649 18.7225 3.49649H15.1795C15.1795 3.49649 13.8925 3.44949 13.452 4.98549L12.9115 6.86399L12.3725 4.98549C11.9295 3.44949 10.645 3.49649 10.645 3.49649H7.90349C7.90349 3.49649 6.61549 3.44949 6.17499 4.98549L5.07149 8.82999C4.96649 9.18999 5.16349 9.46299 5.47849 9.55399C5.79249 9.64349 6.11399 9.48499 6.19449 9.19849L7.26949 5.45099L7.79299 5.44999L6.22399 11.9385H7.61049V16.5475C7.61049 16.927 7.91649 17.236 8.29699 17.236C8.67649 17.236 8.98699 16.927 8.98699 16.5475V11.9385H9.56849V16.5475C9.56849 16.927 9.87499 17.236 10.2545 17.236C10.4374 17.2363 10.6129 17.1639 10.7425 17.0348C10.8721 16.9057 10.9451 16.7304 10.9455 16.5475V11.9385H12.308L10.7555 5.44999L11.277 5.45099L12.34 9.15899C12.3575 9.22249 12.386 9.28049 12.423 9.33049C12.527 9.48799 12.7085 9.57499 12.9105 9.56849C13.1125 9.57499 13.293 9.48849 13.397 9.33349C13.4404 9.27678 13.4712 9.21151 13.4875 9.14199L14.545 5.45049L15.027 5.44949V16.4135C15.027 16.8615 15.3935 17.2235 15.8405 17.2235C16.288 17.2235 16.6505 16.8615 16.6505 16.4135V10.1755H17.2495V16.4135C17.2495 16.8615 17.6125 17.2235 18.0585 17.2235C18.507 17.2235 18.8745 16.8615 18.8745 16.4135V5.44949L19.3985 5.45049L20.4275 9.19799C20.4835 9.38249 20.6375 9.50449 20.822 9.55149C20.83 9.55349 20.834 9.55699 20.8405 9.55899C21.0045 9.59599 21.7605 9.81049 22.3155 9.96899V16.769C22.3217 16.916 22.3844 17.055 22.4906 17.1569C22.5968 17.2587 22.7383 17.3156 22.8855 17.3156C23.0327 17.3156 23.1741 17.2587 23.2804 17.1569C23.3866 17.055 23.4493 16.916 23.4555 16.769V13.372H23.9015V16.769C23.9015 17.083 24.156 17.3375 24.47 17.3375C24.784 17.3375 25.042 17.083 25.042 16.769V10.417H25.4795V12.569C25.4795 12.8055 25.671 12.9955 25.9035 12.9955C25.9591 12.9952 26.0141 12.984 26.0653 12.9624C26.1165 12.9407 26.1629 12.9092 26.2018 12.8695C26.2408 12.8299 26.2715 12.7829 26.2922 12.7313C26.3129 12.6797 26.3232 12.6246 26.3225 12.569V10.121C26.3235 9.43549 25.72 8.87899 25.0345 8.87899H25.0335Z" fill="#00E6AF"/>
<path d="M25.0335 8.87899H22.42C22.408 8.87899 21.5455 8.80049 21.5455 8.80049L20.451 4.98549C20.0105 3.44949 18.7225 3.49649 18.7225 3.49649H15.1795C15.1795 3.49649 13.8925 3.44949 13.452 4.98549L12.9115 6.86399L12.3725 4.98549C11.9295 3.44949 10.645 3.49649 10.645 3.49649H7.90349C7.90349 3.49649 6.61549 3.44949 6.17499 4.98549L5.07149 8.82999C4.96649 9.18999 5.16349 9.46299 5.47849 9.55399C5.79249 9.64349 6.11399 9.48499 6.19449 9.19849L7.26949 5.45099L7.79299 5.44999L6.22399 11.9385H7.61049V16.5475C7.61049 16.927 7.91649 17.236 8.29699 17.236C8.67649 17.236 8.98699 16.927 8.98699 16.5475V11.9385H9.56849V16.5475C9.56849 16.927 9.87499 17.236 10.2545 17.236C10.4374 17.2363 10.6129 17.1639 10.7425 17.0348C10.8721 16.9057 10.9451 16.7304 10.9455 16.5475V11.9385H12.308L10.7555 5.44999L11.277 5.45099L12.34 9.15899C12.3575 9.22249 12.386 9.28049 12.423 9.33049C12.527 9.48799 12.7085 9.57499 12.9105 9.56849C13.1125 9.57499 13.293 9.48849 13.397 9.33349C13.4404 9.27678 13.4712 9.21151 13.4875 9.14199L14.545 5.45049L15.027 5.44949V16.4135C15.027 16.8615 15.3935 17.2235 15.8405 17.2235C16.288 17.2235 16.6505 16.8615 16.6505 16.4135V10.1755H17.2495V16.4135C17.2495 16.8615 17.6125 17.2235 18.0585 17.2235C18.507 17.2235 18.8745 16.8615 18.8745 16.4135V5.44949L19.3985 5.45049L20.4275 9.19799C20.4835 9.38249 20.6375 9.50449 20.822 9.55149C20.83 9.55349 20.834 9.55699 20.8405 9.55899C21.0045 9.59599 21.7605 9.81049 22.3155 9.96899V16.769C22.3217 16.916 22.3844 17.055 22.4906 17.1569C22.5968 17.2587 22.7383 17.3156 22.8855 17.3156C23.0327 17.3156 23.1741 17.2587 23.2804 17.1569C23.3866 17.055 23.4493 16.916 23.4555 16.769V13.372H23.9015V16.769C23.9015 17.083 24.156 17.3375 24.47 17.3375C24.784 17.3375 25.042 17.083 25.042 16.769V10.417H25.4795V12.569C25.4795 12.8055 25.671 12.9955 25.9035 12.9955C25.9591 12.9952 26.0141 12.984 26.0653 12.9624C26.1165 12.9407 26.1629 12.9092 26.2018 12.8695C26.2408 12.8299 26.2715 12.7829 26.2922 12.7313C26.3129 12.6797 26.3232 12.6246 26.3225 12.569V10.121C26.3235 9.43549 25.72 8.87899 25.0345 8.87899H25.0335Z" fill="black" fill-opacity="0.5"/>
</g>
<defs>
<clipPath id="clip0_6053_510">
<rect width="32" height="32" fill="white"/>
</clipPath>
</defs>
</svg>
