<svg width="30" height="30" viewBox="0 0 30 30" fill="none" xmlns="http://www.w3.org/2000/svg">
<path d="M8.54487 0.78278C8.44825 0.782717 8.35175 0.783405 8.2555 0.78478C6.9725 0.802905 5.7265 0.952092 4.60712 1.27865C2.81612 1.80115 1.30687 2.82259 0.687311 4.51203C0.134436 6.01972 0.616561 7.3979 1.58431 8.45653C2.552 9.51515 3.96787 10.3698 5.46806 11.2236C6.96831 12.0773 8.5565 12.9218 9.84894 13.8617C11.1414 14.8015 12.1136 15.8243 12.4877 16.9925C12.5579 17.2117 12.5049 17.8959 12.3676 18.4575C12.3129 18.6813 12.2546 18.8774 12.202 19.0455L13.2986 19.3102C13.3511 19.1384 13.4078 18.9399 13.4604 18.7248C13.6159 18.0889 13.7824 17.3467 13.5591 16.6494C13.0733 15.1324 11.8967 13.9598 10.5106 12.9519C9.12437 11.9439 7.50406 11.0879 6.02462 10.246C4.54512 9.40403 3.21012 8.56772 2.41462 7.69747C1.61912 6.82728 1.32569 6.0389 1.74362 4.89934C2.21225 3.62134 3.33825 2.82078 4.92219 2.35859C6.50612 1.89647 8.5055 1.81734 10.4799 2.00353C12.4543 2.18978 14.4071 2.63784 15.9049 3.1839C16.5514 3.41959 17.1127 3.67441 17.5489 3.92503C17.7499 3.77522 17.9622 3.62522 18.1854 3.49128C18.3212 3.40972 18.4629 3.33334 18.6109 3.2674C18.5241 3.20676 18.436 3.14816 18.3465 3.09166C17.7909 2.74203 17.0934 2.41978 16.2904 2.12703C14.6843 1.54153 12.658 1.0789 10.5856 0.883405C9.90562 0.81928 9.22112 0.783405 8.54487 0.78278ZM19.5389 4.17578C19.5162 4.17653 19.4931 4.17815 19.4692 4.18053C19.2778 4.19928 19.0326 4.29478 18.7644 4.45578C18.3819 4.68547 17.9806 5.03234 17.5621 5.34409L21.4652 10.5983L22.7306 10.3017C22.4642 8.40559 21.8419 5.76147 20.0094 4.34778C19.8287 4.20834 19.6972 4.17047 19.5389 4.17578ZM22.8389 11.4318L21.7437 11.6886L24.8852 25.0923H26.0407L22.8389 11.4318ZM2.58769 18.9123L2.46487 20.0672C2.82962 20.0798 3.2055 20.0972 3.59056 20.1193L3.70631 19.0313L2.58769 18.9123ZM10.2866 19.7406L9.97475 20.8879L13.7424 21.8017L14.0863 20.6576L10.2866 19.7406ZM1.1085 21.1667C1.05012 21.1667 1.03944 21.1605 0.948624 21.2857C0.857811 21.411 0.748811 21.6665 0.672999 22.0047C0.521249 22.6812 0.484499 23.67 0.544874 24.6577C0.605311 25.6454 0.759374 26.6424 0.949124 27.3583C1.04394 27.7162 1.15162 28.006 1.23587 28.1639C1.25456 28.199 1.25637 28.197 1.27025 28.2173H1.85119C1.6498 27.7648 1.54582 27.275 1.546 26.7798C1.546 24.8189 3.14769 23.2173 5.1085 23.2173C7.06937 23.2173 8.671 24.8189 8.671 26.7798C8.6712 27.275 8.56724 27.7648 8.36587 28.2173H14.0231C14.0517 28.1795 14.1053 28.0931 14.1574 27.9485C14.2699 27.6359 14.3644 27.1324 14.4244 26.5927C14.5444 25.5131 14.546 24.2798 14.546 23.7798C14.546 23.7407 14.5262 23.6537 14.3419 23.4927C14.1576 23.3316 13.8319 23.1392 13.4043 22.9577C12.5489 22.5944 11.2937 22.2622 9.87894 21.9946C7.0495 21.4593 3.56444 21.1667 1.1085 21.1667ZM5.1085 24.3423C3.75569 24.3423 2.671 25.4269 2.671 26.7798C2.671 28.1326 3.75569 29.2173 5.1085 29.2173C6.46137 29.2173 7.546 28.1326 7.546 26.7798C7.546 25.4269 6.46137 24.3423 5.1085 24.3423ZM24.4562 26.2173L24.0187 27.0923H27.1984L26.7609 26.2173H24.4562ZM21.671 28.2173V29.0923H29.546V28.2173H21.671Z" fill="#00E6AF"/>
<path d="M8.54487 0.78278C8.44825 0.782717 8.35175 0.783405 8.2555 0.78478C6.9725 0.802905 5.7265 0.952092 4.60712 1.27865C2.81612 1.80115 1.30687 2.82259 0.687311 4.51203C0.134436 6.01972 0.616561 7.3979 1.58431 8.45653C2.552 9.51515 3.96787 10.3698 5.46806 11.2236C6.96831 12.0773 8.5565 12.9218 9.84894 13.8617C11.1414 14.8015 12.1136 15.8243 12.4877 16.9925C12.5579 17.2117 12.5049 17.8959 12.3676 18.4575C12.3129 18.6813 12.2546 18.8774 12.202 19.0455L13.2986 19.3102C13.3511 19.1384 13.4078 18.9399 13.4604 18.7248C13.6159 18.0889 13.7824 17.3467 13.5591 16.6494C13.0733 15.1324 11.8967 13.9598 10.5106 12.9519C9.12437 11.9439 7.50406 11.0879 6.02462 10.246C4.54512 9.40403 3.21012 8.56772 2.41462 7.69747C1.61912 6.82728 1.32569 6.0389 1.74362 4.89934C2.21225 3.62134 3.33825 2.82078 4.92219 2.35859C6.50612 1.89647 8.5055 1.81734 10.4799 2.00353C12.4543 2.18978 14.4071 2.63784 15.9049 3.1839C16.5514 3.41959 17.1127 3.67441 17.5489 3.92503C17.7499 3.77522 17.9622 3.62522 18.1854 3.49128C18.3212 3.40972 18.4629 3.33334 18.6109 3.2674C18.5241 3.20676 18.436 3.14816 18.3465 3.09166C17.7909 2.74203 17.0934 2.41978 16.2904 2.12703C14.6843 1.54153 12.658 1.0789 10.5856 0.883405C9.90562 0.81928 9.22112 0.783405 8.54487 0.78278ZM19.5389 4.17578C19.5162 4.17653 19.4931 4.17815 19.4692 4.18053C19.2778 4.19928 19.0326 4.29478 18.7644 4.45578C18.3819 4.68547 17.9806 5.03234 17.5621 5.34409L21.4652 10.5983L22.7306 10.3017C22.4642 8.40559 21.8419 5.76147 20.0094 4.34778C19.8287 4.20834 19.6972 4.17047 19.5389 4.17578ZM22.8389 11.4318L21.7437 11.6886L24.8852 25.0923H26.0407L22.8389 11.4318ZM2.58769 18.9123L2.46487 20.0672C2.82962 20.0798 3.2055 20.0972 3.59056 20.1193L3.70631 19.0313L2.58769 18.9123ZM10.2866 19.7406L9.97475 20.8879L13.7424 21.8017L14.0863 20.6576L10.2866 19.7406ZM1.1085 21.1667C1.05012 21.1667 1.03944 21.1605 0.948624 21.2857C0.857811 21.411 0.748811 21.6665 0.672999 22.0047C0.521249 22.6812 0.484499 23.67 0.544874 24.6577C0.605311 25.6454 0.759374 26.6424 0.949124 27.3583C1.04394 27.7162 1.15162 28.006 1.23587 28.1639C1.25456 28.199 1.25637 28.197 1.27025 28.2173H1.85119C1.6498 27.7648 1.54582 27.275 1.546 26.7798C1.546 24.8189 3.14769 23.2173 5.1085 23.2173C7.06937 23.2173 8.671 24.8189 8.671 26.7798C8.6712 27.275 8.56724 27.7648 8.36587 28.2173H14.0231C14.0517 28.1795 14.1053 28.0931 14.1574 27.9485C14.2699 27.6359 14.3644 27.1324 14.4244 26.5927C14.5444 25.5131 14.546 24.2798 14.546 23.7798C14.546 23.7407 14.5262 23.6537 14.3419 23.4927C14.1576 23.3316 13.8319 23.1392 13.4043 22.9577C12.5489 22.5944 11.2937 22.2622 9.87894 21.9946C7.0495 21.4593 3.56444 21.1667 1.1085 21.1667ZM5.1085 24.3423C3.75569 24.3423 2.671 25.4269 2.671 26.7798C2.671 28.1326 3.75569 29.2173 5.1085 29.2173C6.46137 29.2173 7.546 28.1326 7.546 26.7798C7.546 25.4269 6.46137 24.3423 5.1085 24.3423ZM24.4562 26.2173L24.0187 27.0923H27.1984L26.7609 26.2173H24.4562ZM21.671 28.2173V29.0923H29.546V28.2173H21.671Z" fill="black" fill-opacity="0.5"/>
</svg>
