<svg width="47" height="48" viewBox="0 0 47 48" fill="none" xmlns="http://www.w3.org/2000/svg">
<rect width="46.1766" height="48" rx="23.0883" fill="white"/>
<path d="M23.3373 23.3931C23.5184 23.378 23.6732 23.3062 23.8018 23.1776C23.9304 23.049 23.9944 22.8945 23.9938 22.714C23.9938 22.5027 23.9259 22.3331 23.79 22.2051C23.6542 22.0771 23.4807 22.0204 23.2694 22.0349C22.6507 22.0801 21.9942 21.9105 21.3 21.526C20.6058 21.1415 20.1681 20.4433 19.9871 19.4316C19.9569 19.2656 19.8778 19.1298 19.7498 19.0242C19.6218 18.9185 19.4746 18.8657 19.3079 18.8657C19.0967 18.8657 18.9231 18.9451 18.7873 19.1038C18.6515 19.2626 18.6062 19.4473 18.6515 19.658C18.908 21.0313 19.5117 22.0122 20.4624 22.6008C21.4132 23.1894 22.3715 23.4534 23.3373 23.3931ZM23.0883 26.1095C21.0208 26.1095 19.2968 25.4002 17.9162 23.9816C16.5357 22.5631 15.8451 20.7974 15.8445 18.6846C15.8445 17.1755 16.4445 15.5345 17.6446 13.7615C18.8446 11.9886 20.6592 10.0681 23.0883 8C25.518 10.0675 27.3329 11.988 28.5329 13.7615C29.733 15.5351 30.3327 17.1761 30.3321 18.6846C30.3321 20.7974 29.6418 22.5631 28.2613 23.9816C26.8807 25.4002 25.1564 26.1095 23.0883 26.1095ZM23.0883 24.2986C24.6578 24.2986 25.9556 23.7664 26.9819 22.7022C28.0081 21.638 28.5212 20.2988 28.5212 18.6846C28.5212 17.5829 28.0645 16.3379 27.1512 14.9495C26.2379 13.5611 24.8836 12.0445 23.0883 10.3995C21.2924 12.0445 19.9382 13.5611 19.0254 14.9495C18.1127 16.3379 17.6561 17.5829 17.6555 18.6846C17.6555 20.2994 18.1686 21.6389 19.1948 22.7031C20.221 23.7673 21.5188 24.2992 23.0883 24.2986Z" fill="#00E6AF"/>
<path d="M23.3373 23.3931C23.5184 23.378 23.6732 23.3062 23.8018 23.1776C23.9304 23.049 23.9944 22.8945 23.9938 22.714C23.9938 22.5027 23.9259 22.3331 23.79 22.2051C23.6542 22.0771 23.4807 22.0204 23.2694 22.0349C22.6507 22.0801 21.9942 21.9105 21.3 21.526C20.6058 21.1415 20.1681 20.4433 19.9871 19.4316C19.9569 19.2656 19.8778 19.1298 19.7498 19.0242C19.6218 18.9185 19.4746 18.8657 19.3079 18.8657C19.0967 18.8657 18.9231 18.9451 18.7873 19.1038C18.6515 19.2626 18.6062 19.4473 18.6515 19.658C18.908 21.0313 19.5117 22.0122 20.4624 22.6008C21.4132 23.1894 22.3715 23.4534 23.3373 23.3931ZM23.0883 26.1095C21.0208 26.1095 19.2968 25.4002 17.9162 23.9816C16.5357 22.5631 15.8451 20.7974 15.8445 18.6846C15.8445 17.1755 16.4445 15.5345 17.6446 13.7615C18.8446 11.9886 20.6592 10.0681 23.0883 8C25.518 10.0675 27.3329 11.988 28.5329 13.7615C29.733 15.5351 30.3327 17.1761 30.3321 18.6846C30.3321 20.7974 29.6418 22.5631 28.2613 23.9816C26.8807 25.4002 25.1564 26.1095 23.0883 26.1095ZM23.0883 24.2986C24.6578 24.2986 25.9556 23.7664 26.9819 22.7022C28.0081 21.638 28.5212 20.2988 28.5212 18.6846C28.5212 17.5829 28.0645 16.3379 27.1512 14.9495C26.2379 13.5611 24.8836 12.0445 23.0883 10.3995C21.2924 12.0445 19.9382 13.5611 19.0254 14.9495C18.1127 16.3379 17.6561 17.5829 17.6555 18.6846C17.6555 20.2994 18.1686 21.6389 19.1948 22.7031C20.221 23.7673 21.5188 24.2992 23.0883 24.2986Z" fill="black" fill-opacity="0.5"/>
<path d="M13.9204 16.9487C13.045 16.9487 12.3787 17.2587 11.8164 17.7936C11.2541 18.3285 10.8133 19.1051 10.5167 19.9948C10.1419 21.1192 10.0104 22.4182 10.0782 23.5672C10.1304 23.5621 10.1826 23.5581 10.2349 23.5553C10.7684 23.5295 11.2738 23.625 11.7307 23.8249C12.6446 24.2247 13.3501 24.988 13.899 25.88C14.8606 27.4426 15.3752 29.4291 15.4881 31.0106C22.7522 30.105 23.4244 30.105 30.6886 31.0106C30.8014 29.4291 31.316 27.4426 32.2776 25.8799C32.8264 24.988 33.532 24.2247 34.4459 23.8248C34.9473 23.6055 35.5072 23.513 36.0984 23.5672C36.1662 22.4182 36.0347 21.1192 35.6599 19.9948C35.3633 19.105 34.9225 18.3285 34.3602 17.7936C33.7979 17.2587 33.1317 16.9487 32.2562 16.9487H13.9204ZM10.4167 24.6842C10.3731 24.6837 10.3289 24.6846 10.2842 24.6868C9.92633 24.7049 9.53293 24.8127 9.08332 25.0375C7.5927 25.7829 7.40578 29.2196 10.0269 30.0933L10.3137 30.1889L12.3153 37.1945H33.8613L35.8629 30.1889L36.1497 30.0933C38.7708 29.2196 38.5839 25.7829 37.0932 25.0375C36.1942 24.588 35.5193 24.6062 34.9052 24.8748C34.2911 25.1435 33.7233 25.7172 33.2535 26.4805C32.3139 28.0075 31.8106 30.2549 31.8106 31.6556V32.3046L31.1665 32.2241C23.0172 31.2054 23.1594 31.2054 15.0101 32.2241L14.366 32.3046V31.6556C14.366 30.2549 13.8627 28.0075 12.9231 26.4806C12.4532 25.7172 11.8855 25.1435 11.2714 24.8749C11.0027 24.7573 10.7223 24.6877 10.4167 24.6842ZM12.1203 38.3405L10.6387 39.8221C11.4023 40.0283 12.7874 40.0617 13.3474 39.716C13.5557 39.4171 13.7869 38.7906 14.0119 38.3405H12.1203ZM32.1648 38.3405C32.2599 38.7236 32.6074 39.5578 32.8292 39.716C33.6696 40.0638 34.7331 40.0836 35.5379 39.8221L34.0563 38.3405H32.1648Z" fill="#00E6AF"/>
<path d="M13.9204 16.9487C13.045 16.9487 12.3787 17.2587 11.8164 17.7936C11.2541 18.3285 10.8133 19.1051 10.5167 19.9948C10.1419 21.1192 10.0104 22.4182 10.0782 23.5672C10.1304 23.5621 10.1826 23.5581 10.2349 23.5553C10.7684 23.5295 11.2738 23.625 11.7307 23.8249C12.6446 24.2247 13.3501 24.988 13.899 25.88C14.8606 27.4426 15.3752 29.4291 15.4881 31.0106C22.7522 30.105 23.4244 30.105 30.6886 31.0106C30.8014 29.4291 31.316 27.4426 32.2776 25.8799C32.8264 24.988 33.532 24.2247 34.4459 23.8248C34.9473 23.6055 35.5072 23.513 36.0984 23.5672C36.1662 22.4182 36.0347 21.1192 35.6599 19.9948C35.3633 19.105 34.9225 18.3285 34.3602 17.7936C33.7979 17.2587 33.1317 16.9487 32.2562 16.9487H13.9204ZM10.4167 24.6842C10.3731 24.6837 10.3289 24.6846 10.2842 24.6868C9.92633 24.7049 9.53293 24.8127 9.08332 25.0375C7.5927 25.7829 7.40578 29.2196 10.0269 30.0933L10.3137 30.1889L12.3153 37.1945H33.8613L35.8629 30.1889L36.1497 30.0933C38.7708 29.2196 38.5839 25.7829 37.0932 25.0375C36.1942 24.588 35.5193 24.6062 34.9052 24.8748C34.2911 25.1435 33.7233 25.7172 33.2535 26.4805C32.3139 28.0075 31.8106 30.2549 31.8106 31.6556V32.3046L31.1665 32.2241C23.0172 31.2054 23.1594 31.2054 15.0101 32.2241L14.366 32.3046V31.6556C14.366 30.2549 13.8627 28.0075 12.9231 26.4806C12.4532 25.7172 11.8855 25.1435 11.2714 24.8749C11.0027 24.7573 10.7223 24.6877 10.4167 24.6842ZM12.1203 38.3405L10.6387 39.8221C11.4023 40.0283 12.7874 40.0617 13.3474 39.716C13.5557 39.4171 13.7869 38.7906 14.0119 38.3405H12.1203ZM32.1648 38.3405C32.2599 38.7236 32.6074 39.5578 32.8292 39.716C33.6696 40.0638 34.7331 40.0836 35.5379 39.8221L34.0563 38.3405H32.1648Z" fill="black" fill-opacity="0.5"/>
<path d="M17.9162 23.9816C19.2968 25.4002 21.0208 26.1095 23.0883 26.1095C25.1564 26.1095 26.8807 25.4002 28.2613 23.9816C29.6418 22.5631 30.3321 20.7974 30.3321 18.6846C30.3323 18.1276 30.2507 17.5525 30.0872 16.9594H28.1913C28.4112 17.569 28.5212 18.1441 28.5212 18.6846C28.5212 20.2988 28.0081 21.638 26.9819 22.7022C25.9556 23.7664 24.6578 24.2986 23.0883 24.2986C21.5188 24.2992 20.221 23.7673 19.1948 22.7031C18.1686 21.6389 17.6555 20.2994 17.6555 18.6846C17.6558 18.1365 17.7689 17.5529 17.995 16.9339H16.0969C15.9286 17.536 15.8445 18.1195 15.8445 18.6846C15.8451 20.7974 16.5357 22.5631 17.9162 23.9816Z" fill="white"/>
<path d="M23.8018 23.1776C23.6732 23.3062 23.5184 23.378 23.3373 23.3931C22.3715 23.4534 21.4132 23.1894 20.4624 22.6008C19.5117 22.0122 18.908 21.0313 18.6515 19.658C18.6062 19.4473 18.6515 19.2626 18.7873 19.1038C18.9231 18.9451 19.0967 18.8657 19.3079 18.8657C19.4746 18.8657 19.6218 18.9185 19.7498 19.0242C19.8778 19.1298 19.9569 19.2656 19.9871 19.4316C20.1681 20.4433 20.6058 21.1415 21.3 21.526C21.9942 21.9105 22.6507 22.0801 23.2694 22.0349C23.4807 22.0204 23.6542 22.0771 23.79 22.2051C23.9259 22.3331 23.9938 22.5027 23.9938 22.714C23.9944 22.8945 23.9304 23.049 23.8018 23.1776Z" fill="white"/>
</svg>
