<svg width="168" height="121" viewBox="0 0 168 121" fill="none" xmlns="http://www.w3.org/2000/svg">
<path d="M42.775 88.9759H62.6963L62.7612 91.6965L95.7413 91.3229L95.6844 88.9759H125.684C125.684 88.9759 121.51 51.3749 150.056 50.7008C150.048 48.2158 150.291 46.0636 149.918 43.6192C147.303 28.5625 137.013 16.7868 123.857 13.7982C120.657 13.0673 116.808 13.0673 109.101 13.0673H61.2832C60.9177 12.7506 60.5523 12.4339 60.1787 12.1172C58.7331 10.8909 57.1901 9.70517 55.5171 8.63318L62.2821 16.8031L67.7801 23.3812C90.43 53.2184 93.8734 75.7871 94.2145 84.9153L63.0049 85.2645C58.7006 71.7834 52.22 59.0981 45.3657 48.0452C44.716 46.7783 44.0257 45.5276 43.3192 44.2932C41.3457 40.8417 39.1368 37.4958 36.7654 34.2473C34.4021 30.9989 31.8683 27.8397 29.0909 24.843C28.4006 24.0959 27.694 23.3568 26.955 22.6341C26.2322 21.9032 25.477 21.2047 24.7136 20.5063C23.1868 19.1176 21.5625 17.7939 19.8084 16.6244L26.4759 25.5577C22.5371 30.5441 19.7353 36.7243 18.5415 43.6029C18.1679 46.0474 18.2572 49.0847 18.2491 51.5617C46.1291 49.9131 42.775 88.9596 42.775 88.9596V88.9759Z" fill="#4EBDC5"/>
<path d="M167.589 71.7267C166.964 62.8908 159.679 55.7848 150.827 55.3625C143.599 55.0214 137.281 59.0252 134.236 64.978C130.321 70.8577 130.289 83.2425 130.394 87.4005C130.411 88.1558 130.492 88.9111 130.589 89.6582C131.393 96.009 132.165 93.3452 98.8598 93.735C94.5312 94.8233 86.9623 97.3652 81.513 102.717L77.022 102.79C70.3058 96.3094 60.9908 94.4984 57.7099 94.0436C36.4649 94.2386 37.1389 95.4648 37.8292 89.9831C37.9267 89.2278 37.9998 88.4806 38.0241 87.7254C38.1297 83.5673 38.1054 71.1907 34.1828 65.3028C31.1374 59.35 24.811 55.3463 17.5913 55.6874C8.74733 56.1097 1.45452 63.2157 0.829189 72.0515C0.114527 82.1948 7.9677 90.6652 17.8755 90.9819C19.9464 101.604 24.876 120.372 34.329 120.04H34.2803L87.0922 120.007C86.3532 119.56 85.4761 119.008 84.4285 118.318C81.9921 116.718 80.1486 114.33 79.2391 112.341C78.4107 110.53 77.4768 107.874 77.4037 105.99H81.5861C81.6429 107.541 82.3089 109.701 83.0966 111.041C84.0387 112.633 86.1583 115.264 88.9033 116.888C90.6818 117.944 92.3629 118.911 93.7272 119.682L134.122 119.698H134.073C143.526 120.039 148.456 101.271 150.527 90.649C160.434 90.3323 168.288 81.8619 167.573 71.7186L167.589 71.7267Z" fill="#4EBDC5"/>
<path d="M44.7566 19.5724L51.9926 29.0661C54.3883 32.2496 56.7516 35.4331 59.1148 38.6978C57.8317 34.9945 55.9801 31.47 53.9822 28.0347C51.9844 24.5994 49.743 21.2779 47.3554 18.0457C44.9678 14.8134 42.4015 11.6787 39.5997 8.70632C38.9012 7.96729 38.1866 7.22827 37.4476 6.51361C36.7248 5.79082 35.9533 5.0924 35.1899 4.4021C33.655 3.0215 32.0145 1.714 30.2603 0.560791L37.5125 10.1113L44.7728 19.5724H44.7566Z" fill="#4EBDC5"/>
</svg>
