<svg width="18" height="18" viewBox="0 0 18 18" fill="none" xmlns="http://www.w3.org/2000/svg">
<path d="M18 3.40541V8.27027H16.5V4.86486H10.87L13.3 7.22919L12.24 8.27027L8 4.13513L12.24 0L13.3 1.04108L10.87 3.40541H18ZM5.82 5.91568C6.08 5.6627 6.17 5.28324 6.06 4.9427C5.69 3.81405 5.5 2.64649 5.5 1.45946C5.5 1.20141 5.39464 0.953931 5.20711 0.771464C5.01957 0.588996 4.76522 0.486486 4.5 0.486486H1C0.734784 0.486486 0.48043 0.588996 0.292893 0.771464C0.105357 0.953931 0 1.20141 0 1.45946C0 5.84628 1.79107 10.0534 4.97919 13.1554C8.1673 16.2573 12.4913 18 17 18C17.2652 18 17.5196 17.8975 17.7071 17.715C17.8946 17.5326 18 17.2851 18 17.027V13.6216C18 13.3636 17.8946 13.1161 17.7071 12.9336C17.5196 12.7512 17.2652 12.6486 17 12.6486C15.79 12.6486 14.58 12.4638 13.43 12.0941C13.08 11.987 12.69 12.0746 12.43 12.3276L10.23 14.4681C7.39 13.0573 5.09 10.8195 3.64 8.05622L5.82 5.91568Z" fill="#00E6AF"/>
<path d="M18 3.40541V8.27027H16.5V4.86486H10.87L13.3 7.22919L12.24 8.27027L8 4.13513L12.24 0L13.3 1.04108L10.87 3.40541H18ZM5.82 5.91568C6.08 5.6627 6.17 5.28324 6.06 4.9427C5.69 3.81405 5.5 2.64649 5.5 1.45946C5.5 1.20141 5.39464 0.953931 5.20711 0.771464C5.01957 0.588996 4.76522 0.486486 4.5 0.486486H1C0.734784 0.486486 0.48043 0.588996 0.292893 0.771464C0.105357 0.953931 0 1.20141 0 1.45946C0 5.84628 1.79107 10.0534 4.97919 13.1554C8.1673 16.2573 12.4913 18 17 18C17.2652 18 17.5196 17.8975 17.7071 17.715C17.8946 17.5326 18 17.2851 18 17.027V13.6216C18 13.3636 17.8946 13.1161 17.7071 12.9336C17.5196 12.7512 17.2652 12.6486 17 12.6486C15.79 12.6486 14.58 12.4638 13.43 12.0941C13.08 11.987 12.69 12.0746 12.43 12.3276L10.23 14.4681C7.39 13.0573 5.09 10.8195 3.64 8.05622L5.82 5.91568Z" fill="black" fill-opacity="0.5"/>
</svg>
