<svg width="14" height="13" viewBox="0 0 14 13" fill="none" xmlns="http://www.w3.org/2000/svg">
<path d="M6.52734 0.369872C6.68234 -0.0793496 7.31766 -0.0793487 7.47266 0.369873L8.75747 4.09358C8.82595 4.29206 9.01115 4.42662 9.22108 4.43041L13.1596 4.50166C13.6347 4.51025 13.831 5.11447 13.4517 5.4007L10.3073 7.77332C10.1397 7.89979 10.0689 8.1175 10.1302 8.31833L11.2795 12.0861C11.4181 12.5406 10.9041 12.914 10.5147 12.6417L7.28653 10.3844C7.11446 10.264 6.88554 10.264 6.71347 10.3844L3.4853 12.6417C3.09585 12.914 2.58187 12.5406 2.72052 12.0861L3.86983 8.31833C3.93109 8.1175 3.86035 7.89979 3.69274 7.77332L0.548315 5.4007C0.168977 5.11447 0.365301 4.51025 0.840433 4.50166L4.77892 4.43041C4.98885 4.42662 5.17405 4.29206 5.24253 4.09358L6.52734 0.369872Z" fill="url(#paint0_linear_6053_821)"/>
<defs>
<linearGradient id="paint0_linear_6053_821" x1="15" y1="7" x2="-1" y2="7" gradientUnits="userSpaceOnUse">
<stop offset="0.5" stop-color="#97C7BB"/>
<stop offset="0.5" stop-color="#007357"/>
</linearGradient>
</defs>
</svg>
