<svg width="20" height="20" viewBox="0 0 20 20" fill="none" xmlns="http://www.w3.org/2000/svg">
<path d="M20 2L18 0C16.85 0.64 15.4 1 14 1C12.6 1 11.14 0.63 10 0C8.86 0.63 7.4 1 6 1C4.6 1 3.15 0.64 2 0L0 2C0 2 2 4 2 6C2 8 0 12 0 14C0 18 10 20 10 20C10 20 20 18 20 14C20 12 18 8 18 6C18 4 20 2 20 2ZM13.05 14.45L9.97 12.59L6.9 14.45L7.72 10.95L5 8.61L8.58 8.3L9.97 5L11.37 8.29L14.95 8.6L12.23 10.94L13.05 14.45Z" fill="#00E6AF"/>
<path d="M20 2L18 0C16.85 0.64 15.4 1 14 1C12.6 1 11.14 0.63 10 0C8.86 0.63 7.4 1 6 1C4.6 1 3.15 0.64 2 0L0 2C0 2 2 4 2 6C2 8 0 12 0 14C0 18 10 20 10 20C10 20 20 18 20 14C20 12 18 8 18 6C18 4 20 2 20 2ZM13.05 14.45L9.97 12.59L6.9 14.45L7.72 10.95L5 8.61L8.58 8.3L9.97 5L11.37 8.29L14.95 8.6L12.23 10.94L13.05 14.45Z" fill="black" fill-opacity="0.5"/>
</svg>
