<svg width="27" height="27" viewBox="0 0 27 27" fill="none" xmlns="http://www.w3.org/2000/svg">
<path d="M26.6667 13.3333C26.6667 5.97333 20.6933 0 13.3333 0C5.97333 0 0 5.97333 0 13.3333C0 20.6933 5.97333 26.6667 13.3333 26.6667C20.6933 26.6667 26.6667 20.6933 26.6667 13.3333ZM13.3333 14.6667H8V12H13.3333V8L18.6667 13.3333L13.3333 18.6667V14.6667Z" fill="#727AFF"/>
<path d="M26.6667 13.3333C26.6667 5.97333 20.6933 0 13.3333 0C5.97333 0 0 5.97333 0 13.3333C0 20.6933 5.97333 26.6667 13.3333 26.6667C20.6933 26.6667 26.6667 20.6933 26.6667 13.3333ZM13.3333 14.6667H8V12H13.3333V8L18.6667 13.3333L13.3333 18.6667V14.6667Z" fill="black" fill-opacity="0.5"/>
</svg>
