<svg width="32" height="32" viewBox="0 0 32 32" fill="none" xmlns="http://www.w3.org/2000/svg">
<path fill-rule="evenodd" clip-rule="evenodd" d="M2 16C2 19.713 3.475 23.274 6.10051 25.8995C8.72601 28.525 12.287 30 16 30C19.713 30 23.274 28.525 25.8995 25.8995C28.525 23.274 30 19.713 30 16C30 12.287 28.525 8.72601 25.8995 6.10051C23.274 3.475 19.713 2 16 2C12.287 2 8.72601 3.475 6.10051 6.10051C3.475 8.72601 2 12.287 2 16ZM27.6 16C27.6 19.0765 26.3779 22.027 24.2024 24.2024C22.027 26.3779 19.0765 27.6 16 27.6C12.9235 27.6 9.97298 26.3779 7.79756 24.2024C5.62214 22.027 4.4 19.0765 4.4 16C4.4 12.9235 5.62214 9.97298 7.79756 7.79756C9.97298 5.62214 12.9235 4.4 16 4.4C19.0765 4.4 22.027 5.62214 24.2024 7.79756C26.3779 9.97298 27.6 12.9235 27.6 16Z" fill="#00E6AF"/>
<path fill-rule="evenodd" clip-rule="evenodd" d="M2 16C2 19.713 3.475 23.274 6.10051 25.8995C8.72601 28.525 12.287 30 16 30C19.713 30 23.274 28.525 25.8995 25.8995C28.525 23.274 30 19.713 30 16C30 12.287 28.525 8.72601 25.8995 6.10051C23.274 3.475 19.713 2 16 2C12.287 2 8.72601 3.475 6.10051 6.10051C3.475 8.72601 2 12.287 2 16ZM27.6 16C27.6 19.0765 26.3779 22.027 24.2024 24.2024C22.027 26.3779 19.0765 27.6 16 27.6C12.9235 27.6 9.97298 26.3779 7.79756 24.2024C5.62214 22.027 4.4 19.0765 4.4 16C4.4 12.9235 5.62214 9.97298 7.79756 7.79756C9.97298 5.62214 12.9235 4.4 16 4.4C19.0765 4.4 22.027 5.62214 24.2024 7.79756C26.3779 9.97298 27.6 12.9235 27.6 16Z" fill="black" fill-opacity="0.5"/>
<path fill-rule="evenodd" clip-rule="evenodd" d="M10 16C10 23.2352 12.3856 29.2 16 29.2C19.6144 29.2 22 23.2352 22 16C22 8.76479 19.6144 2.79999 16 2.79999C12.3856 2.79999 10 8.76479 10 16ZM19.6 16C19.6 22.0192 17.688 26.8 16 26.8C14.312 26.8 12.4 22.0192 12.4 16C12.4 9.98079 14.312 5.19999 16 5.19999C17.688 5.19999 19.6 9.98079 19.6 16Z" fill="#00E6AF"/>
<path fill-rule="evenodd" clip-rule="evenodd" d="M10 16C10 23.2352 12.3856 29.2 16 29.2C19.6144 29.2 22 23.2352 22 16C22 8.76479 19.6144 2.79999 16 2.79999C12.3856 2.79999 10 8.76479 10 16ZM19.6 16C19.6 22.0192 17.688 26.8 16 26.8C14.312 26.8 12.4 22.0192 12.4 16C12.4 9.98079 14.312 5.19999 16 5.19999C17.688 5.19999 19.6 9.98079 19.6 16Z" fill="black" fill-opacity="0.5"/>
<path d="M5.76319 8.74722L7.37279 6.96802C7.53279 7.11202 7.70719 7.25602 7.89279 7.39522C9.92639 8.91842 13.1728 9.85922 16.7168 9.85922C19.7424 9.85922 22.5616 9.17602 24.6064 8.00642C25.0992 7.72482 25.5376 7.41922 25.9168 7.09442L27.4752 8.92002C26.9545 9.36163 26.3931 9.75272 25.7984 10.088C23.3728 11.4768 20.144 12.2576 16.7168 12.2576C12.6816 12.2576 8.93279 11.1728 6.45279 9.31522C6.21432 9.13658 5.98421 8.94704 5.76319 8.74722ZM5.76319 23.2784L7.37279 25.0576C7.53279 24.912 7.70719 24.7696 7.89279 24.6304C9.92639 23.1072 13.1728 22.1664 16.7168 22.1664C19.7424 22.1664 22.5616 22.8496 24.6064 24.0192C25.0992 24.3008 25.5376 24.6064 25.9168 24.9312L27.4752 23.1056C26.9539 22.6648 26.3925 22.2738 25.7984 21.9376C23.3728 20.5488 20.144 19.768 16.7168 19.768C12.6816 19.768 8.93279 20.8528 6.45279 22.7104C6.21432 22.8891 5.98421 23.0786 5.76319 23.2784ZM2.79999 17.2V14.8H29.2V17.2H2.79999Z" fill="#00E6AF"/>
<path d="M5.76319 8.74722L7.37279 6.96802C7.53279 7.11202 7.70719 7.25602 7.89279 7.39522C9.92639 8.91842 13.1728 9.85922 16.7168 9.85922C19.7424 9.85922 22.5616 9.17602 24.6064 8.00642C25.0992 7.72482 25.5376 7.41922 25.9168 7.09442L27.4752 8.92002C26.9545 9.36163 26.3931 9.75272 25.7984 10.088C23.3728 11.4768 20.144 12.2576 16.7168 12.2576C12.6816 12.2576 8.93279 11.1728 6.45279 9.31522C6.21432 9.13658 5.98421 8.94704 5.76319 8.74722ZM5.76319 23.2784L7.37279 25.0576C7.53279 24.912 7.70719 24.7696 7.89279 24.6304C9.92639 23.1072 13.1728 22.1664 16.7168 22.1664C19.7424 22.1664 22.5616 22.8496 24.6064 24.0192C25.0992 24.3008 25.5376 24.6064 25.9168 24.9312L27.4752 23.1056C26.9539 22.6648 26.3925 22.2738 25.7984 21.9376C23.3728 20.5488 20.144 19.768 16.7168 19.768C12.6816 19.768 8.93279 20.8528 6.45279 22.7104C6.21432 22.8891 5.98421 23.0786 5.76319 23.2784ZM2.79999 17.2V14.8H29.2V17.2H2.79999Z" fill="black" fill-opacity="0.5"/>
</svg>
