<svg width="33" height="33" viewBox="0 0 33 33" fill="none" xmlns="http://www.w3.org/2000/svg">
<path fill-rule="evenodd" clip-rule="evenodd" d="M32.8111 16.5434C32.8111 25.5146 25.5385 32.7872 16.5673 32.7872C7.59609 32.7872 0.323486 25.5146 0.323486 16.5434C0.323486 7.57216 7.59609 0.299561 16.5673 0.299561C25.5385 0.299561 32.8111 7.57216 32.8111 16.5434ZM16.5673 8.14473C19.2866 8.14473 19.6235 8.14473 20.7065 8.19286C21.6931 8.24099 22.2466 8.40944 22.6076 8.55383C23.0889 8.74635 23.4258 8.96293 23.7868 9.32391C24.1477 9.68488 24.3643 10.0218 24.5568 10.5031C24.7012 10.8641 24.8697 11.3935 24.9178 12.4042C24.966 13.4871 24.966 13.8 24.966 16.5434C24.966 19.2868 24.966 19.5996 24.9178 20.6825C24.8697 21.6692 24.7012 22.2227 24.5568 22.5837C24.3643 23.065 24.1477 23.4019 23.7868 23.7628C23.4258 24.1238 23.0889 24.3404 22.6076 24.5329C22.2466 24.6773 21.7172 24.8458 20.7065 24.8939C19.6235 24.942 19.3107 24.942 16.5673 24.942C13.848 24.942 13.5111 24.942 12.4281 24.8939C11.4415 24.8458 10.888 24.6773 10.527 24.5329C10.0457 24.3404 9.7088 24.1238 9.34783 23.7628C8.98685 23.4019 8.77027 23.065 8.57775 22.5837C8.43336 22.2227 8.2649 21.6933 8.21677 20.6825C8.16865 19.5996 8.16864 19.2868 8.16864 16.5434C8.16864 13.8 8.16865 13.4871 8.21677 12.4042C8.2649 11.4176 8.43336 10.8641 8.57775 10.5031C8.77027 10.0218 8.98685 9.68488 9.34783 9.32391C9.7088 8.96293 10.0457 8.74635 10.527 8.55383C10.888 8.40944 11.4174 8.24099 12.4281 8.19286C12.6294 8.18838 12.8041 8.18391 12.9728 8.17959L12.9728 8.17959L12.973 8.17959L12.9731 8.17958H12.9731C13.7115 8.16067 14.3342 8.14473 16.5673 8.14473ZM16.5673 6.31579C13.7998 6.31579 13.4389 6.31579 12.3559 6.38799C11.273 6.43612 10.527 6.60457 9.87725 6.86929C9.20344 7.134 8.62588 7.47091 8.07239 8.04847C7.49483 8.62602 7.15792 9.17952 6.89321 9.85333C6.62849 10.5031 6.46004 11.2491 6.41191 12.332L6.40358 12.5182C6.361 13.4664 6.33971 13.9405 6.33971 16.5434C6.33971 19.3108 6.33971 19.6718 6.41191 20.7547C6.46004 21.8377 6.62849 22.5837 6.89321 23.2334C7.15792 23.9072 7.49483 24.4848 8.07239 25.0383C8.64994 25.6158 9.20344 25.9528 9.87725 26.2175C10.527 26.4822 11.273 26.6506 12.3559 26.6988L12.5421 26.7071C13.4903 26.7497 13.9644 26.771 16.5673 26.771C19.3348 26.771 19.6957 26.771 20.7787 26.6988C21.8616 26.6506 22.6076 26.4822 23.2573 26.2175C23.9312 25.9528 24.5087 25.6158 25.0622 25.0383C25.6398 24.4607 25.9767 23.9072 26.2414 23.2334C26.5061 22.5837 26.6746 21.8377 26.7227 20.7547L26.731 20.5686C26.7736 19.6204 26.7949 19.1463 26.7949 16.5434C26.7949 13.7759 26.7949 13.4149 26.7227 12.332C26.6746 11.2491 26.5061 10.5031 26.2414 9.85333C25.9767 9.17952 25.6398 8.60196 25.0622 8.04847C24.4847 7.47091 23.9312 7.134 23.2573 6.86929C22.6076 6.60457 21.8616 6.43612 20.7787 6.38799C19.6717 6.31579 19.3348 6.31579 16.5673 6.31579ZM16.5673 11.2972C13.6554 11.2972 11.3211 13.6556 11.3211 16.5434C11.3211 19.4312 13.6554 21.7895 16.5673 21.7895C19.4792 21.7895 21.8134 19.4312 21.8134 16.5434C21.8134 13.6556 19.4551 11.2972 16.5673 11.2972ZM16.5673 19.9606C14.6902 19.9606 13.1501 18.4445 13.1501 16.5434C13.1501 14.6423 14.6662 13.1262 16.5673 13.1262C18.4684 13.1262 19.9845 14.6423 19.9845 16.5434C19.9845 18.4445 18.4444 19.9606 16.5673 19.9606ZM23.2333 11.0806C23.2333 11.7585 22.6838 12.308 22.006 12.308C21.3281 12.308 20.7787 11.7585 20.7787 11.0806C20.7787 10.4028 21.3281 9.85333 22.006 9.85333C22.6838 9.85333 23.2333 10.4028 23.2333 11.0806Z" fill="white"/>
</svg>
