<svg width="35" height="35" viewBox="0 0 35 35" fill="none" xmlns="http://www.w3.org/2000/svg">
<path fill-rule="evenodd" clip-rule="evenodd" d="M35 17.5C35 27.165 27.165 35 17.5 35C7.83502 35 0 27.165 0 17.5C0 7.83502 7.83502 0 17.5 0C27.165 0 35 7.83502 35 17.5ZM18.0704 6.04077C21.0518 6.0667 23.8259 7.20744 25.9259 9.30744C28.0259 11.4074 29.1667 14.1815 29.1667 17.1371C29.1667 23.2556 24.1889 28.2334 18.0704 28.2334C16.2037 28.2334 14.3889 27.7667 12.7555 26.8852L6.87036 28.4408L8.45184 22.6852C7.49258 21 6.97406 19.0815 6.97406 17.1371C6.97406 11.0185 11.9518 6.04077 18.0704 6.04077ZM13.3778 25.0704C14.7778 25.926 16.4111 26.3667 18.0704 26.3667C23.1518 26.3667 27.3 22.2445 27.3 17.1371C27.3 14.6741 26.3407 12.3408 24.6037 10.6037C22.8407 8.8667 20.5333 7.90744 18.0704 7.90744C12.9889 7.90744 8.84073 12.0556 8.84073 17.1371C8.84073 18.8741 9.3074 20.5593 10.2407 22.0371L10.4741 22.4L9.54073 25.7963L13.0407 24.8889L13.3778 25.0704ZM22.424 19.1311C22.7354 19.2833 23.0134 19.4193 23.1259 19.4704C23.1377 19.4758 23.1494 19.4811 23.1608 19.4863C23.4259 19.6066 23.5947 19.6832 23.6444 19.8074C23.7222 19.9371 23.7222 20.4815 23.4889 21.1297C23.2555 21.7778 22.1667 22.3741 21.6222 22.4519C21.1555 22.5297 20.5592 22.5556 19.8852 22.3482C19.4704 22.2185 18.9778 22.0371 18.3037 21.7519C15.6426 20.5938 13.8713 18.0072 13.5909 17.5977C13.5763 17.5763 13.5657 17.5609 13.5592 17.5519C13.4037 17.3704 12.4185 16.0482 12.4185 14.6741C12.4185 13.4036 13.0402 12.7317 13.3288 12.4199C13.3465 12.4008 13.3628 12.3831 13.3778 12.3667C13.637 12.1074 13.9481 12.0297 14.1296 12.0297H14.6741C14.6906 12.0297 14.708 12.0288 14.7261 12.0279C14.8791 12.0202 15.0877 12.0097 15.2963 12.4963C15.3896 12.7141 15.5327 13.0646 15.6758 13.4151C15.8905 13.9409 16.1052 14.4667 16.1518 14.5445C16.2296 14.7 16.2815 14.8556 16.1778 15.0371C16.1494 15.0868 16.1249 15.1326 16.1016 15.1761C16.0398 15.2915 15.9867 15.3908 15.8926 15.5037C15.763 15.6852 15.6074 15.8667 15.4778 15.9963C15.3222 16.1519 15.1926 16.2815 15.3481 16.5667C15.3603 16.5859 15.3742 16.6078 15.3896 16.6324C15.6041 16.973 16.1298 17.8081 16.9037 18.4852C17.8426 19.3097 18.64 19.6486 19.0098 19.8058C19.0587 19.8266 19.1001 19.8442 19.1333 19.8593C19.4185 19.9889 19.5741 19.963 19.7296 19.7815C19.7465 19.7618 19.7679 19.737 19.793 19.7079C19.999 19.469 20.4493 18.9469 20.6111 18.6926C20.7926 18.4334 20.9741 18.4593 21.2333 18.563C21.3903 18.6258 21.9464 18.8976 22.424 19.1311Z" fill="white"/>
</svg>
