<svg width="116" height="117" viewBox="0 0 116 117" fill="none" xmlns="http://www.w3.org/2000/svg">
<circle cx="58" cy="58.9639" r="58" fill="#677A46"/>
<path d="M42.0003 80.3333H55.3337V85.6666H42.0003C39.0403 85.6666 36.667 83.2933 36.667 80.3333V37.6666C36.667 36.2521 37.2289 34.8955 38.2291 33.8953C39.2293 32.8952 40.5858 32.3333 42.0003 32.3333H74.0003C75.4148 32.3333 76.7714 32.8952 77.7716 33.8953C78.7718 34.8955 79.3337 36.2521 79.3337 37.6666V54.4666C78.747 54.7866 78.187 55.1599 77.707 55.6399L74.0003 59.3466V37.6666H60.667V58.9999L54.0003 52.9999L47.3337 58.9999V37.6666H42.0003V80.3333ZM86.9337 62.9199L83.4137 59.3999C82.8803 58.8666 82.0003 58.8666 81.4937 59.3999L78.8803 62.0133L84.3203 67.4533L86.9337 64.8399C87.467 64.3333 87.467 63.4533 86.9337 62.9199ZM60.667 80.2266V85.6666H66.107L82.4537 69.3466L77.0137 63.8799L60.667 80.2266Z" fill="#E0EFED"/>
</svg>
