<svg width="48" height="52" viewBox="0 0 48 52" fill="none" xmlns="http://www.w3.org/2000/svg">
<path fill-rule="evenodd" clip-rule="evenodd" d="M6.4 3.25C6.4 2.38805 6.73714 1.5614 7.33726 0.951903C7.93737 0.34241 8.75131 0 9.6 0L35.2 0C36.0486 0.000184072 36.8624 0.342715 37.4624 0.95225L43.8624 7.45225C44.4626 8.0616 44.7998 8.88812 44.8 9.75V26C43.8093 25.2436 42.7355 24.6067 41.6 24.102V13H35.2C34.3513 13 33.5374 12.6576 32.9373 12.0481C32.3371 11.4386 32 10.612 32 9.75V3.25H9.6V42.25H19.52C19.7461 43.3832 20.0832 44.4665 20.5312 45.5H9.6C8.75131 45.5 7.93737 45.1576 7.33726 44.5481C6.73714 43.9386 6.4 43.112 6.4 42.25V3.25ZM22.4 48.75H3.2V6.5C2.35131 6.5 1.53737 6.84241 0.937258 7.4519C0.337142 8.0614 0 8.88805 0 9.75V48.75C0 49.612 0.337142 50.4386 0.937258 51.0481C1.53737 51.6576 2.35131 52 3.2 52H25.6C24.3871 51.0761 23.3097 49.9818 22.4 48.75ZM48 39C48 42.4478 46.6514 45.7544 44.251 48.1924C41.8505 50.6304 38.5948 52 35.2 52C31.8052 52 28.5495 50.6304 26.149 48.1924C23.7486 45.7544 22.4 42.4478 22.4 39C22.4 35.5522 23.7486 32.2456 26.149 29.8076C28.5495 27.3696 31.8052 26 35.2 26C38.5948 26 41.8505 27.3696 44.251 29.8076C46.6514 32.2456 48 35.5522 48 39ZM42.7328 34.5995C42.8818 34.7504 43 34.9298 43.0807 35.1272C43.1613 35.3246 43.2029 35.5363 43.2029 35.75C43.2029 35.9637 43.1613 36.1754 43.0807 36.3728C43 36.5702 42.8818 36.7496 42.7328 36.9005L34.7328 45.0255C34.5842 45.1768 34.4076 45.2969 34.2132 45.3788C34.0188 45.4607 33.8105 45.5029 33.6 45.5029C33.3895 45.5029 33.1812 45.4607 32.9868 45.3788C32.7924 45.2969 32.6158 45.1768 32.4672 45.0255L29.2672 41.7755C28.9668 41.4704 28.798 41.0565 28.798 40.625C28.798 40.1935 28.9668 39.7796 29.2672 39.4745C29.5676 39.1694 29.9751 38.9979 30.4 38.9979C30.8249 38.9979 31.2324 39.1694 31.5328 39.4745L33.6 41.5773L40.4672 34.5995C40.6158 34.4482 40.7924 34.3281 40.9868 34.2462C41.1812 34.1643 41.3895 34.1221 41.6 34.1221C41.8105 34.1221 42.0188 34.1643 42.2132 34.2462C42.4076 34.3281 42.5842 34.4482 42.7328 34.5995Z" fill="#8A5900"/>
</svg>

