<svg width="116" height="116" viewBox="0 0 116 116" fill="none" xmlns="http://www.w3.org/2000/svg">
<path fill-rule="evenodd" clip-rule="evenodd" d="M58 115.922C90.0325 115.922 116 89.9721 116 57.9611C116 25.9501 90.0325 0 58 0C25.9675 0 0 25.9501 0 57.9611C0 89.9721 25.9675 115.922 58 115.922ZM77.43 74.5499C78.2306 74.1594 79.1091 73.9544 80 73.9503C81.1867 73.9503 82.3467 74.302 83.3334 74.9608C84.3201 75.6197 85.0892 76.5561 85.5433 77.6518C85.9974 78.7474 86.1162 79.953 85.8847 81.1161C85.6532 82.2792 85.0818 83.3476 84.2426 84.1861C83.4035 85.0247 82.3344 85.5957 81.1705 85.8271C80.0067 86.0584 78.8003 85.9397 77.7039 85.4859C76.6075 85.0321 75.6705 84.2635 75.0112 83.2775C74.3519 82.2915 74 81.1322 74 79.9463C74.0052 79.0559 74.2109 78.1781 74.602 77.378L67.172 69.953H62V65.9557H68.83L77.43 74.5499ZM78.8889 81.6081C79.2178 81.8278 79.6044 81.945 80 81.945C80.5304 81.945 81.0391 81.7344 81.4142 81.3596C81.7893 80.9848 82 80.4764 82 79.9463C82 79.551 81.8827 79.1646 81.6629 78.8359C81.4432 78.5072 81.1308 78.2511 80.7654 78.0998C80.3999 77.9485 79.9978 77.9089 79.6098 77.9861C79.2219 78.0632 78.8655 78.2535 78.5858 78.5331C78.3061 78.8126 78.1156 79.1687 78.0384 79.5564C77.9613 79.9441 78.0009 80.346 78.1522 80.7112C78.3036 81.0764 78.56 81.3885 78.8889 81.6081ZM76.5493 53.0707C77.5577 52.355 78.7631 51.9688 80 51.9651C81.098 51.9631 82.1754 52.2628 83.1145 52.8314C84.0536 53.4 84.8183 54.2156 85.3249 55.1891C85.8316 56.1625 86.0607 57.2565 85.9873 58.3513C85.9139 59.4461 85.5407 60.4997 84.9087 61.3969C84.2766 62.2942 83.4099 63.0005 82.4033 63.4388C81.3967 63.8771 80.2888 64.0304 79.2009 63.8821C78.113 63.7338 77.0868 63.2894 76.2345 62.5977C75.3821 61.906 74.7365 60.9934 74.368 59.9597H62V55.9624H74.368C74.7789 54.7966 75.5409 53.7864 76.5493 53.0707ZM78.8889 59.6229C79.2178 59.8425 79.6044 59.9597 80 59.9597C80.5304 59.9597 81.0391 59.7492 81.4142 59.3743C81.7893 58.9995 82 58.4911 82 57.9611C82 57.5658 81.8827 57.1794 81.6629 56.8507C81.4432 56.522 81.1308 56.2658 80.7654 56.1146C80.3999 55.9633 79.9978 55.9237 79.6098 56.0008C79.2219 56.0779 78.8655 56.2683 78.5858 56.5478C78.3061 56.8273 78.1156 57.1835 78.0384 57.5712C77.9613 57.9589 78.0009 58.3607 78.1522 58.7259C78.3036 59.0911 78.56 59.4033 78.8889 59.6229ZM75.7591 31.7378C76.884 30.6137 78.4092 29.9814 80 29.9799C80.8918 29.979 81.7726 30.177 82.5782 30.5592C83.3838 30.9415 84.0939 31.4984 84.657 32.1896C85.22 32.8807 85.6217 33.6886 85.8329 34.5545C86.0441 35.4203 86.0594 36.3223 85.8777 37.1949C85.6961 38.0674 85.322 38.8884 84.7827 39.5983C84.2435 40.3081 83.5526 40.8888 82.7605 41.2981C81.9683 41.7075 81.0948 41.9351 80.2034 41.9645C79.3121 41.994 78.4255 41.8244 77.608 41.4681L68.808 49.9664H62V45.9691H67.192L74.696 38.72C74.2456 37.8749 74.0068 36.9333 74 35.9758C74.0016 34.3861 74.6342 32.8619 75.7591 31.7378ZM78.8889 37.6377C79.2178 37.8573 79.6044 37.9745 80 37.9745C80.5304 37.9745 81.0391 37.7639 81.4142 37.3891C81.7893 37.0143 82 36.5059 82 35.9758C82 35.5805 81.8827 35.1941 81.6629 34.8654C81.4432 34.5368 81.1308 34.2806 80.7654 34.1293C80.3999 33.978 79.9978 33.9385 79.6098 34.0156C79.2219 34.0927 78.8655 34.2831 78.5858 34.5626C78.3061 34.8421 78.1156 35.1982 78.0384 35.5859C77.9613 35.9736 78.0009 36.3755 78.1522 36.7407C78.3036 37.1059 78.56 37.418 78.8889 37.6377ZM66 37.9745H62C60.9395 37.9756 59.9227 38.397 59.1727 39.1465C58.4228 39.8959 58.0011 40.912 58 41.9718V73.9503C58.0011 75.0102 58.4228 76.0263 59.1727 76.7757C59.9227 77.5251 60.9395 77.9466 62 77.9477H66V81.945H62C60.8602 81.9412 59.7346 81.6926 58.6994 81.216C57.6642 80.7394 56.7436 80.046 56 79.1828C55.2564 80.046 54.3358 80.7394 53.3006 81.216C52.2654 81.6926 51.1398 81.9412 50 81.945H48C43.2277 81.9397 38.6524 80.0428 35.2779 76.6706C31.9034 73.2983 30.0053 68.7261 30 63.9571V51.9651C30.0053 47.196 31.9034 42.6238 35.2779 39.2516C38.6524 35.8793 43.2277 33.9825 48 33.9772H50C51.1398 33.981 52.2654 34.2296 53.3006 34.7062C54.3358 35.1827 55.2564 35.8761 56 36.7393C56.7436 35.8761 57.6642 35.1827 58.6994 34.7062C59.7346 34.2296 60.8602 33.981 62 33.9772H66V37.9745ZM48 77.9477H50C51.0605 77.9466 52.0773 77.5251 52.8273 76.7757C53.5772 76.0263 53.9989 75.0102 54 73.9503V65.9557H50C49.4696 65.9557 48.9609 66.1663 48.5858 66.5411C48.2107 66.9159 48 67.4243 48 67.9544V71.9517H44V67.9544C44.0016 66.3646 44.6342 64.8404 45.7591 63.7163C46.884 62.5922 48.4092 61.96 50 61.9584H54V53.9638H50V49.9664H54V41.9718C53.9989 40.912 53.5772 39.8959 52.8273 39.1465C52.0773 38.397 51.0605 37.9756 50 37.9745H48C44.6369 37.9805 41.3882 39.1953 38.8472 41.397C36.3062 43.5987 34.6425 46.6403 34.16 49.9664H40C40.5304 49.9664 41.0391 49.7559 41.4142 49.3811C41.7893 49.0062 42 48.4979 42 47.9678V43.9705H46V47.9678C45.9984 49.5575 45.3658 51.0817 44.2409 52.2058C43.116 53.3299 41.5908 53.9622 40 53.9638H34V61.9584H38V65.9557H34.16C34.6425 69.2818 36.3062 72.3235 38.8472 74.5252C41.3882 76.7269 44.6369 77.9417 48 77.9477Z" fill="#E0A273"/>
</svg>
