<svg width="116" height="116" viewBox="0 0 116 116" fill="none" xmlns="http://www.w3.org/2000/svg">
<circle cx="58" cy="58" r="58" fill="#00A4A4"/>
<path d="M46.6663 57.9998H69.333V63.6665H46.6663V57.9998ZM52.333 80.6665H40.9997V35.3332H60.833V49.4998H74.9997V58.2832L80.6663 52.6165V46.6665L63.6663 29.6665H40.9997C39.4968 29.6665 38.0554 30.2635 36.9927 31.3262C35.93 32.3889 35.333 33.8303 35.333 35.3332V80.6665C35.333 82.1694 35.93 83.6107 36.9927 84.6734C38.0554 85.7361 39.4968 86.3332 40.9997 86.3332H52.333V80.6665ZM46.6663 74.9998H58.283L60.833 72.4498V69.3332H46.6663V74.9998ZM81.233 60.8332C81.5163 60.8332 82.083 61.1165 82.3663 61.3998L86.0497 65.0832C86.6163 65.6498 86.6163 66.7832 86.0497 67.3498L83.2163 70.1832L77.2663 64.2332L80.0997 61.3998C80.383 61.1165 80.6663 60.8332 81.233 60.8332ZM81.233 71.8832L63.9497 89.1665H57.9997V83.2165L75.283 65.9332L81.233 71.8832Z" fill="#E0EFED"/>
</svg>

