<svg width="116" height="116" viewBox="0 0 116 116" fill="none" xmlns="http://www.w3.org/2000/svg">
<path d="M56 73.9503C55.1091 73.9544 54.2306 74.1594 53.43 74.5499L44.83 65.9557H38V69.953H43.172L50.602 77.378C50.2109 78.1781 50.0052 79.0559 50 79.9463C50 81.1322 50.3519 82.2915 51.0112 83.2775C51.6705 84.2635 52.6075 85.0321 53.7039 85.4859C54.8003 85.9397 56.0067 86.0584 57.1705 85.8271C58.3344 85.5957 59.4035 85.0247 60.2426 84.1861C61.0818 83.3476 61.6532 82.2792 61.8847 81.1161C62.1162 79.953 61.9974 78.7474 61.5433 77.6518C61.0892 76.5561 60.3201 75.6197 59.3334 74.9608C58.3467 74.302 57.1867 73.9503 56 73.9503ZM56 81.945C55.6044 81.945 55.2178 81.8278 54.8889 81.6081C54.56 81.3885 54.3036 81.0764 54.1522 80.7112C54.0009 80.346 53.9613 79.9441 54.0384 79.5564C54.1156 79.1687 54.3061 78.8126 54.5858 78.5331C54.8655 78.2535 55.2219 78.0632 55.6098 77.9861C55.9978 77.9089 56.3999 77.9485 56.7654 78.0998C57.1308 78.2511 57.4432 78.5072 57.6629 78.8359C57.8827 79.1646 58 79.551 58 79.9463C58 80.4764 57.7893 80.9848 57.4142 81.3596C57.0391 81.7344 56.5304 81.945 56 81.945ZM56 51.9651C54.7631 51.9688 53.5577 52.355 52.5493 53.0707C51.5409 53.7864 50.7789 54.7966 50.368 55.9624H38V59.9597H50.368C50.7365 60.9934 51.3821 61.906 52.2345 62.5977C53.0868 63.2894 54.113 63.7338 55.2009 63.8821C56.2889 64.0304 57.3967 63.8771 58.4033 63.4388C59.4099 63.0005 60.2766 62.2942 60.9087 61.3969C61.5407 60.4997 61.9139 59.4461 61.9873 58.3513C62.0607 57.2565 61.8316 56.1625 61.3249 55.1891C60.8183 54.2156 60.0536 53.4 59.1145 52.8314C58.1754 52.2628 57.098 51.9631 56 51.9651ZM56 59.9597C55.6044 59.9597 55.2178 59.8425 54.8889 59.6229C54.56 59.4033 54.3036 59.0911 54.1522 58.7259C54.0009 58.3607 53.9613 57.9589 54.0384 57.5712C54.1156 57.1835 54.3061 56.8273 54.5858 56.5478C54.8655 56.2683 55.2219 56.0779 55.6098 56.0008C55.9978 55.9237 56.3999 55.9633 56.7654 56.1146C57.1308 56.2658 57.4432 56.522 57.6629 56.8507C57.8827 57.1794 58 57.5658 58 57.9611C58 58.4912 57.7893 58.9995 57.4142 59.3743C57.0391 59.7492 56.5304 59.9597 56 59.9597ZM56 29.9799C54.4092 29.9814 52.884 30.6137 51.7591 31.7378C50.6342 32.8619 50.0016 34.3861 50 35.9758C50.0068 36.9333 50.2456 37.8749 50.696 38.72L43.192 45.9691H38V49.9664H44.808L53.608 41.4681C54.4255 41.8244 55.3121 41.994 56.2034 41.9645C57.0948 41.9351 57.9683 41.7075 58.7605 41.2981C59.5526 40.8888 60.2435 40.3081 60.7827 39.5983C61.322 38.8884 61.6961 38.0674 61.8777 37.1949C62.0594 36.3223 62.0441 35.4203 61.8329 34.5545C61.6217 33.6886 61.22 32.8807 60.657 32.1896C60.0939 31.4984 59.3838 30.9415 58.5782 30.5592C57.7726 30.177 56.8918 29.979 56 29.9799ZM56 37.9745C55.6044 37.9745 55.2178 37.8573 54.8889 37.6377C54.56 37.418 54.3036 37.1059 54.1522 36.7407C54.0009 36.3755 53.9613 35.9736 54.0384 35.5859C54.1156 35.1982 54.3061 34.8421 54.5858 34.5626C54.8655 34.2831 55.2219 34.0927 55.6098 34.0156C55.9978 33.9385 56.3999 33.978 56.7654 34.1293C57.1308 34.2806 57.4432 34.5368 57.6629 34.8654C57.8827 35.1941 58 35.5805 58 35.9758C58 36.5059 57.7893 37.0143 57.4142 37.3891C57.0391 37.7639 56.5304 37.9745 56 37.9745Z" fill="#FFEADA"/>
<path d="M38 37.9745H42V33.9772H38C36.8602 33.981 35.7346 34.2296 34.6994 34.7062C33.6642 35.1827 32.7436 35.8761 32 36.7393C31.2564 35.8761 30.3358 35.1827 29.3006 34.7062C28.2654 34.2296 27.1398 33.981 26 33.9772H24C19.2277 33.9825 14.6524 35.8793 11.2779 39.2516C7.90342 42.6238 6.00529 47.196 6 51.9651V63.9571C6.00529 68.7261 7.90342 73.2983 11.2779 76.6706C14.6524 80.0428 19.2277 81.9397 24 81.945H26C27.1398 81.9412 28.2654 81.6926 29.3006 81.216C30.3358 80.7394 31.2564 80.046 32 79.1828C32.7436 80.046 33.6642 80.7394 34.6994 81.216C35.7346 81.6926 36.8602 81.9412 38 81.945H42V77.9477H38C36.9395 77.9466 35.9227 77.5251 35.1727 76.7757C34.4228 76.0263 34.0011 75.0102 34 73.9503V41.9718C34.0011 40.912 34.4228 39.8959 35.1727 39.1465C35.9227 38.397 36.9395 37.9756 38 37.9745ZM26 77.9477H24C20.6369 77.9416 17.3882 76.7269 14.8472 74.5252C12.3062 72.3235 10.6425 69.2818 10.16 65.9557H14V61.9584H10V53.9638H16C17.5908 53.9622 19.116 53.3299 20.2409 52.2058C21.3658 51.0817 21.9984 49.5575 22 47.9678V43.9705H18V47.9678C18 48.4979 17.7893 49.0062 17.4142 49.381C17.0391 49.7559 16.5304 49.9664 16 49.9664H10.16C10.6425 46.6403 12.3062 43.5987 14.8472 41.397C17.3882 39.1953 20.6369 37.9805 24 37.9745H26C27.0605 37.9756 28.0773 38.397 28.8273 39.1465C29.5772 39.8959 29.9989 40.912 30 41.9718V49.9664H26V53.9638H30V61.9584H26C24.4092 61.96 22.884 62.5922 21.7591 63.7163C20.6342 64.8404 20.0016 66.3646 20 67.9544V71.9517H24V67.9544C24 67.4243 24.2107 66.9159 24.5858 66.5411C24.9609 66.1663 25.4696 65.9557 26 65.9557H30V73.9503C29.9989 75.0102 29.5772 76.0263 28.8273 76.7757C28.0773 77.5251 27.0605 77.9466 26 77.9477Z" fill="#FFEADA"/>
<path fill-rule="evenodd" clip-rule="evenodd" d="M58 115.922C90.0325 115.922 116 89.9721 116 57.9611C116 25.9501 90.0325 0 58 0C25.9675 0 0 25.9501 0 57.9611C0 89.9721 25.9675 115.922 58 115.922ZM91.503 71.3927C90.8167 72.8834 88.5752 75.2798 88.5752 75.2798C88.5752 75.2798 85.3759 78.2159 81.0405 78.1598C77.138 78.1094 46.0329 78.1467 37.0844 78.1574C36.0914 78.1586 35.3713 78.1595 34.9914 78.1598C31.1881 78.1636 27.4566 75.2798 27.4566 75.2798C27.4566 75.2798 25.2151 72.8834 24.5288 71.3927C23.8426 69.902 23.4846 68.2811 23.4791 66.6398V63.7598C23.4867 56.8878 26.2182 50.2993 31.0742 45.4401C35.9302 40.5808 42.5143 37.8475 49.3817 37.8398H66.6501C73.5176 37.8475 80.1016 40.5808 84.9576 45.4401C89.8137 50.2993 92.5451 56.8878 92.5527 63.7598V66.6398C92.5473 68.2811 92.1893 69.902 91.503 71.3927ZM29.2352 63.7598V66.6398C29.2368 68.167 29.8437 69.6312 30.9228 70.7111C32.002 71.791 33.4652 72.3983 34.9914 72.3998H46.5037V66.6398C46.5037 65.876 46.2004 65.1435 45.6607 64.6034C45.1209 64.0633 44.3889 63.7598 43.6256 63.7598H37.8694V57.9998H43.6256C45.9148 58.0021 48.1096 58.9131 49.7284 60.533C51.3471 62.1528 52.2575 64.3491 52.2598 66.6398V72.3998H63.7721V66.6398H69.5282V72.3998H81.0405C82.5666 72.3983 84.0298 71.791 85.109 70.7111C86.1881 69.6312 86.7951 68.167 86.7966 66.6398V63.7598C86.7879 58.917 85.0386 54.2388 81.8682 50.5798C78.6978 46.9207 74.3178 44.525 69.5282 43.8302V52.2398C69.5282 53.0037 69.8314 53.7362 70.3712 54.2763C70.9109 54.8164 71.643 55.1198 72.4063 55.1198H78.1624V60.8798H72.4063C70.117 60.8776 67.9222 59.9665 66.3035 58.3467C64.6848 56.7269 63.7743 54.5306 63.7721 52.2398V43.5998H52.2598V49.3598H46.5037V43.8302C41.7141 44.525 37.3341 46.9207 34.1636 50.5798C30.9932 54.2388 29.2439 58.917 29.2352 63.7598Z" fill="#86B886"/>
</svg>
