<svg width="44" height="46" viewBox="0 0 44 46" fill="none" xmlns="http://www.w3.org/2000/svg">
<path d="M2.73658 1.98155L27.9049 0.104408C30.9964 -0.16351 31.7907 0.017163 33.7345 1.44417L41.7686 7.1601C43.0938 8.14298 43.535 8.41107 43.535 9.48137V40.829C43.535 42.7935 42.8284 43.9555 40.3555 44.1333L11.1286 45.9201C9.27278 46.0089 8.38898 45.741 7.4171 44.49L1.50094 36.7209C0.439771 35.2908 0 34.2203 0 32.9694V5.1052C0 3.49907 0.706592 2.1593 2.73658 1.98155Z" fill="white"/>
<path d="M27.9049 0.104408L2.73658 1.98155C0.706592 2.1593 0 3.49907 0 5.1052V32.9694C0 34.2203 0.439771 35.2908 1.50094 36.7209L7.4171 44.49C8.38898 45.741 9.27278 46.0089 11.1286 45.9201L40.3555 44.1333C42.8268 43.9555 43.535 42.7935 43.535 40.829V9.48137C43.535 8.4662 43.1377 8.17372 41.9687 7.30711L41.7672 7.1601L33.7345 1.44417C31.7907 0.017163 30.9964 -0.16351 27.9049 0.104408ZM11.7896 8.96837C9.40321 9.13067 8.86191 9.16742 7.50655 8.05419L4.06031 5.28587C3.70999 4.92762 3.88583 4.4804 4.76827 4.39161L28.9632 2.60635C30.9948 2.42722 32.0531 3.14219 32.8476 3.76698L36.9972 6.80339C37.1746 6.89355 37.6159 7.42801 37.0851 7.42801L12.099 8.9469L11.7896 8.96837ZM9.00748 40.5611V13.9492C9.00748 12.7871 9.36069 12.2512 10.419 12.1609L39.1168 10.4642C40.0902 10.3755 40.53 11.0001 40.53 12.1609V38.5949C40.53 39.7571 40.3525 40.74 38.7636 40.829L11.3014 42.4366C9.71255 42.5254 9.00748 41.9912 9.00748 40.5611ZM36.1165 15.3761C36.2923 16.18 36.1165 16.9839 35.3204 17.0758L33.9969 17.3406V36.9886C32.8476 37.6133 31.7894 37.9701 30.9052 37.9701C29.4924 37.9701 29.139 37.5229 28.0807 36.1847L19.4251 22.4318V35.7377L22.163 36.3638C22.163 36.3638 22.163 37.9717 19.9541 37.9717L13.8637 38.3284C13.6863 37.9701 13.8637 37.0774 14.481 36.8999L16.0712 36.4542V18.8612L13.8638 18.6806C13.6863 17.8768 14.1274 16.716 15.3648 16.6257L21.8994 16.1817L30.9054 30.1123V17.788L28.6099 17.5215C28.4326 16.5369 29.139 15.8219 30.0214 15.7347L36.1165 15.3761Z" fill="#82006D"/>
</svg>
