<svg width="116" height="116" viewBox="0 0 116 116" fill="none" xmlns="http://www.w3.org/2000/svg">
<circle cx="58" cy="58" r="58" fill="#58B8B6"/>
<path d="M33.5201 32.4157L65.8947 30.1273C69.8713 29.8007 70.8931 30.0209 73.3934 31.7606L83.7278 38.7289C85.4326 39.9271 86 40.2539 86 41.5587V79.7745C86 82.1695 85.0911 83.5861 81.9103 83.8028L44.315 85.9811C41.9278 86.0893 40.7909 85.7627 39.5408 84.2376L31.9307 74.7663C30.5657 73.0229 30 71.7179 30 70.1928V36.2237C30 34.2657 30.9089 32.6324 33.5201 32.4157Z" fill="#58B8B6"/>
<path d="M65.8947 30.1273L33.5201 32.4157C30.9089 32.6324 30 34.2657 30 36.2237V70.1928C30 71.7179 30.5657 73.0229 31.9307 74.7663L39.5408 84.2376C40.7909 85.7627 41.9278 86.0893 44.315 85.9811L81.9103 83.8028C85.0891 83.5861 86 82.1695 86 79.7745V41.5587C86 40.3211 85.489 39.9646 83.9853 38.9081L83.7261 38.7289L73.3934 31.7606C70.8931 30.0209 69.8713 29.8007 65.8947 30.1273ZM45.1653 40.9333C42.0956 41.1312 41.3993 41.176 39.6558 39.8188L35.2229 36.444C34.7722 36.0072 34.9984 35.462 36.1335 35.3538L67.256 33.1774C69.8694 32.959 71.2307 33.8306 72.2527 34.5923L77.5904 38.294C77.8185 38.4039 78.3862 39.0555 77.7035 39.0555L45.5632 40.9071L45.1653 40.9333ZM41.5865 79.4479V47.0055C41.5865 45.5887 42.0409 44.9354 43.4022 44.8253L80.3169 42.7569C81.569 42.6487 82.1347 43.4102 82.1347 44.8253V77.051C82.1347 78.4678 81.9063 79.666 79.8625 79.7745L44.5373 81.7344C42.4935 81.8426 41.5865 81.1913 41.5865 79.4479ZM76.4575 48.7449C76.6837 49.725 76.4575 50.7051 75.4335 50.8171L73.731 51.1399V75.0928C72.2527 75.8542 70.8914 76.2893 69.7541 76.2893C67.9367 76.2893 67.4822 75.7441 66.1209 74.1127L54.9869 57.3465V73.5677L58.5088 74.3311C58.5088 74.3311 58.5088 76.2912 55.6675 76.2912L47.8332 76.726C47.605 76.2893 47.8332 75.201 48.6272 74.9845L50.6728 74.4412V52.9937L47.8334 52.7734C47.605 51.7936 48.1724 50.3784 49.7641 50.2683L58.1698 49.7271L69.7543 66.7098V51.6853L66.8016 51.3604C66.5735 50.1601 67.4822 49.2885 68.6172 49.1821L76.4575 48.7449Z" fill="#FFEADA"/>
</svg>
