<svg width="40" height="48" viewBox="0 0 40 48" fill="none" xmlns="http://www.w3.org/2000/svg">
<path d="M17.0343 48C16.2324 48 15.5552 47.7271 15.0029 47.1812C14.4505 46.6372 14.1743 45.9689 14.1743 45.1765V30.4602H4.67143C3.35714 30.4602 2.25048 30.0254 1.35143 29.1558C0.450476 28.2842 0 27.2169 0 25.9539V7.32988C0 5.31012 0.734285 3.584 2.20286 2.15153C3.67143 0.719059 5.44667 0.00188235 7.52857 0H40V25.9539C40 27.2169 39.541 28.2842 38.6229 29.1558C37.7048 30.0273 36.5886 30.4631 35.2743 30.4631H25.7714V45.1765C25.7714 45.9689 25.4952 46.6372 24.9429 47.1812C24.3943 47.7271 23.7181 48 22.9143 48H17.0343ZM2.85714 18.2456H37.1429V2.82353H32.4743V13.3045H29.6171V2.82353H24.34V8.36329H21.4829V2.82353H7.52857C6.21429 2.82353 5.10667 3.24988 4.20571 4.10259C3.30667 4.95529 2.85714 6.03106 2.85714 7.32988V18.2456ZM4.67143 27.6395H35.2743C35.7886 27.6395 36.2286 27.4767 36.5943 27.1511C36.96 26.8235 37.1429 26.4245 37.1429 25.9539V21.0692H2.85714V25.9539C2.85714 26.4245 3.03143 26.8235 3.38 27.1511C3.72857 27.4767 4.15905 27.6395 4.67143 27.6395Z" fill="#1B6C6A"/>
</svg>
