<svg width="116" height="116" viewBox="0 0 116 116" fill="none" xmlns="http://www.w3.org/2000/svg">
<circle cx="58" cy="58" r="58" fill="#E0A273"/>
<g clip-path="url(#clip0_171_6)">
<path d="M44.6663 34.9015C48.7184 32.5573 53.3184 31.3263 57.9997 31.3335C72.7277 31.3335 84.6663 43.2722 84.6663 58.0002C84.6663 59.7282 83.8663 61.3335 82.645 62.5549L62.5543 82.6455C61.333 83.8669 59.7277 84.6669 57.9997 84.6669C43.2717 84.6669 31.333 72.7282 31.333 58.0002C31.333 53.1442 32.6317 48.5869 34.901 44.6669" stroke="#E0EFED" stroke-width="4" stroke-linecap="round"/>
<path d="M58 71.3337C55.0267 71.3337 52.2667 70.347 50 68.667" stroke="#E0EFED" stroke-width="4" stroke-linecap="round"/>
<path d="M65.9997 58C67.4724 58 68.6663 56.2091 68.6663 54C68.6663 51.7909 67.4724 50 65.9997 50C64.5269 50 63.333 51.7909 63.333 54C63.333 56.2091 64.5269 58 65.9997 58Z" fill="#E0EFED"/>
<path d="M49.9997 58C51.4724 58 52.6663 56.2091 52.6663 54C52.6663 51.7909 51.4724 50 49.9997 50C48.5269 50 47.333 51.7909 47.333 54C47.333 56.2091 48.5269 58 49.9997 58Z" fill="#E0EFED"/>
<path d="M58 84.6667C58 77.2187 58 73.4933 59.048 70.5013C59.9742 67.8546 61.4848 65.4505 63.4677 63.4677C65.4505 61.4848 67.8546 59.9742 70.5013 59.048C73.496 58 77.2213 58 84.6667 58" stroke="#E0EFED" stroke-width="4"/>
</g>
<defs>
<clipPath id="clip0_171_6">
<rect width="64" height="64" fill="white" transform="translate(26 26.0361)"/>
</clipPath>
</defs>
</svg>
