<svg width="48" height="48" viewBox="0 0 48 48" fill="none" xmlns="http://www.w3.org/2000/svg">
<path fill-rule="evenodd" clip-rule="evenodd" d="M9.71799 2.71763C7.66699 4.76629 7.66699 8.06796 7.66699 14.6666V33.3333C7.66699 39.932 7.66699 43.2336 9.71799 45.2823C11.7667 47.3333 15.0683 47.3333 21.667 47.3333H26.3337C32.9323 47.3333 36.234 47.3333 38.2827 45.2823C40.3337 43.2336 40.3337 39.932 40.3337 33.3333V14.6666C40.3337 8.06796 40.3337 4.76629 38.2827 2.71763C36.234 0.666626 32.9323 0.666626 26.3337 0.666626H21.667C15.0683 0.666626 11.7667 0.666626 9.71799 2.71763ZM15.2503 35.6666C15.2503 35.2025 15.4347 34.7574 15.7629 34.4292C16.0911 34.101 16.5362 33.9166 17.0003 33.9166H24.0003C24.4645 33.9166 24.9096 34.101 25.2378 34.4292C25.566 34.7574 25.7503 35.2025 25.7503 35.6666C25.7503 36.1308 25.566 36.5759 25.2378 36.9041C24.9096 37.2323 24.4645 37.4166 24.0003 37.4166H17.0003C16.5362 37.4166 16.0911 37.2323 15.7629 36.9041C15.4347 36.5759 15.2503 36.1308 15.2503 35.6666ZM17.0003 24.5833C16.5362 24.5833 16.0911 24.7677 15.7629 25.0959C15.4347 25.424 15.2503 25.8692 15.2503 26.3333C15.2503 26.7974 15.4347 27.2425 15.7629 27.5707C16.0911 27.8989 16.5362 28.0833 17.0003 28.0833H31.0003C31.4645 28.0833 31.9096 27.8989 32.2378 27.5707C32.566 27.2425 32.7503 26.7974 32.7503 26.3333C32.7503 25.8692 32.566 25.424 32.2378 25.0959C31.9096 24.7677 31.4645 24.5833 31.0003 24.5833H17.0003ZM15.2503 17C15.2503 16.5358 15.4347 16.0907 15.7629 15.7625C16.0911 15.4343 16.5362 15.25 17.0003 15.25H31.0003C31.4645 15.25 31.9096 15.4343 32.2378 15.7625C32.566 16.0907 32.7503 16.5358 32.7503 17C32.7503 17.4641 32.566 17.9092 32.2378 18.2374C31.9096 18.5656 31.4645 18.75 31.0003 18.75H17.0003C16.5362 18.75 16.0911 18.5656 15.7629 18.2374C15.4347 17.9092 15.2503 17.4641 15.2503 17Z" fill="#113B00"/>
<path opacity="0.5" d="M8.21533 5.46863C7.66699 7.52896 7.66699 10.413 7.66699 14.6666V33.3333C7.66699 37.587 7.66699 40.4686 8.21533 42.5313L7.66699 42.4893C5.39199 42.2653 3.86133 41.759 2.71799 40.6156C0.666992 38.567 0.666992 35.2653 0.666992 28.6666V19.3333C0.666992 12.7323 0.666992 9.43296 2.71799 7.38429C3.86133 6.24096 5.39199 5.73463 7.66699 5.51063L8.21533 5.46863ZM39.7853 42.5313C40.3337 40.4686 40.3337 37.5846 40.3337 33.3333V14.6666C40.3337 10.413 40.3337 7.52896 39.7853 5.46863L40.3337 5.51063C42.6087 5.73463 44.1393 6.24096 45.2827 7.38429C47.3337 9.43296 47.3337 12.73 47.3337 19.331V28.6643C47.3337 35.2676 47.3337 38.5646 45.2827 40.6156C44.1393 41.759 42.6087 42.2653 40.3337 42.4893L39.7853 42.5313Z" fill="#113B00"/>
</svg>
