<svg width="116" height="116" viewBox="0 0 116 116" fill="none" xmlns="http://www.w3.org/2000/svg">
<path fill-rule="evenodd" clip-rule="evenodd" d="M58 116C90.0325 116 116 90.0325 116 58C116 25.9675 90.0325 0 58 0C25.9675 0 0 25.9675 0 58C0 90.0325 25.9675 116 58 116ZM69.2249 47.5732C68.5685 48.2733 67.6783 48.6667 66.75 48.6667H49.25C48.3217 48.6667 47.4315 48.2733 46.7751 47.5732C46.1188 46.8731 45.75 45.9235 45.75 44.9333V33.7333C45.75 32.7432 46.1188 31.7936 46.7751 31.0935C47.4315 30.3933 48.3217 30 49.25 30H66.75C67.6783 30 68.5685 30.3933 69.2249 31.0935C69.8812 31.7936 70.25 32.7432 70.25 33.7333V44.9333C70.25 45.9235 69.8812 46.8731 69.2249 47.5732ZM66.75 44.9333V33.7333H49.25V44.9333H66.75ZM72.35 65.2427V59.4933H43.65V65.2427H40.85V56.5067H56.6V50.5333H59.4V56.5067H75.15V65.2427H72.35ZM33.5 67.3333H51C51.9283 67.3333 52.8185 67.7267 53.4749 68.4268C54.1312 69.1269 54.5 70.0765 54.5 71.0667V82.2667C54.5 83.2568 54.1312 84.2064 53.4749 84.9065C52.8185 85.6067 51.9283 86 51 86H33.5C32.5717 86 31.6815 85.6067 31.0251 84.9065C30.3687 84.2064 30 83.2568 30 82.2667V71.0667C30 70.0765 30.3687 69.1269 31.0251 68.4268C31.6815 67.7267 32.5717 67.3333 33.5 67.3333ZM33.5 71.0667V82.2667H51V71.0667H33.5ZM82.5 67.3333H65C64.0717 67.3333 63.1815 67.7267 62.5251 68.4268C61.8688 69.1269 61.5 70.0765 61.5 71.0667V82.2667C61.5 83.2568 61.8688 84.2064 62.5251 84.9065C63.1815 85.6067 64.0717 86 65 86H82.5C83.4283 86 84.3185 85.6067 84.9749 84.9065C85.6313 84.2064 86 83.2568 86 82.2667V71.0667C86 70.0765 85.6313 69.1269 84.9749 68.4268C84.3185 67.7267 83.4283 67.3333 82.5 67.3333ZM65 82.2667V71.0667H82.5V82.2667H65Z" fill="#A1D1D1"/>
</svg>
