<svg xmlns="http://www.w3.org/2000/svg" xmlns:xlink="http://www.w3.org/1999/xlink" width="500" zoomAndPan="magnify" viewBox="0 0 375 374.999991" height="500" preserveAspectRatio="xMidYMid meet" version="1.0"><defs><g/><clipPath id="86b518783f"><path d="M 187.5 0 C 83.945312 0 0 83.945312 0 187.5 C 0 291.054688 83.945312 375 187.5 375 C 291.054688 375 375 291.054688 375 187.5 C 375 83.945312 291.054688 0 187.5 0 Z M 187.5 0 " clip-rule="nonzero"/></clipPath><clipPath id="65b0364627"><path d="M 173.609375 202 L 306.359375 202 L 306.359375 317.5 L 173.609375 317.5 Z M 173.609375 202 " clip-rule="nonzero"/></clipPath></defs><rect x="-37.5" width="450" fill="#ffffff" y="-37.499999" height="449.999989" fill-opacity="1"/><rect x="-37.5" width="450" fill="#ffffff" y="-37.499999" height="449.999989" fill-opacity="1"/><g clip-path="url(#86b518783f)"><rect x="-37.5" width="450" fill="#ffffff" y="-37.499999" height="449.999989" fill-opacity="1"/></g><g clip-path="url(#65b0364627)"><path fill="#fdde83" d="M 300.183594 218.585938 C 293.546875 208.324219 280.992188 202.003906 268.585938 202.679688 C 256.875 203.316406 245.746094 210.160156 239.96875 220.105469 C 234.191406 210.160156 223.058594 203.316406 211.351562 202.679688 C 198.945312 202.003906 186.390625 208.324219 179.753906 218.585938 C 175.457031 225.234375 173.609375 233.253906 173.957031 241.105469 C 174.882812 262.035156 189.890625 279.429688 204.878906 293.007812 C 215.429688 302.566406 227.257812 310.78125 239.96875 317.367188 C 252.683594 310.78125 264.503906 302.566406 275.058594 293.007812 C 290.046875 279.429688 305.054688 262.035156 305.980469 241.105469 C 306.328125 233.253906 304.480469 225.234375 300.183594 218.585938 Z M 300.183594 218.585938 " fill-opacity="1" fill-rule="nonzero"/></g><g fill="#f19797" fill-opacity="1"><g transform="translate(67.945415, 308.02734)"><g><path d="M 8.875 -92.21875 C 8.875 -96.3125 9.242188 -99.492188 9.984375 -101.765625 C 10.722656 -104.046875 12.0625 -106.210938 14 -108.265625 C 15.9375 -110.203125 18.097656 -111.625 20.484375 -112.53125 C 22.878906 -113.445312 25.84375 -113.90625 29.375 -113.90625 L 45.078125 -113.90625 C 49.628906 -113.90625 53.613281 -113.757812 57.03125 -113.46875 C 60.445312 -113.1875 63.460938 -112.703125 66.078125 -112.015625 C 68.703125 -111.335938 71.125 -110.457031 73.34375 -109.375 C 75.5625 -108.289062 77.753906 -106.894531 79.921875 -105.1875 C 85.046875 -101.320312 89 -96.539062 91.78125 -90.84375 C 94.570312 -85.15625 95.96875 -79.125 95.96875 -72.75 C 95.96875 -66.375 94.515625 -60.335938 91.609375 -54.640625 C 88.710938 -48.953125 84.644531 -44.113281 79.40625 -40.125 C 75.53125 -37.164062 71.546875 -35.0625 67.453125 -33.8125 C 63.359375 -32.5625 58.519531 -31.9375 52.9375 -31.9375 L 46.625 -31.9375 L 46.625 -20.828125 C 46.625 -14.335938 44.914062 -9.097656 41.5 -5.109375 C 38.082031 -1.128906 33.523438 0.859375 27.828125 0.859375 C 24.640625 0.859375 21.648438 0.09375 18.859375 -1.4375 C 16.078125 -2.976562 13.832031 -5.0625 12.125 -7.6875 C 11.4375 -8.820312 10.863281 -9.875 10.40625 -10.84375 C 9.957031 -11.8125 9.617188 -12.890625 9.390625 -14.078125 C 9.160156 -15.273438 9.015625 -16.785156 8.953125 -18.609375 C 8.898438 -20.429688 8.875 -22.765625 8.875 -25.609375 Z M 46.625 -66.765625 C 51.175781 -66.535156 54.390625 -66.875 56.265625 -67.78125 C 58.140625 -68.695312 59.078125 -70.46875 59.078125 -73.09375 C 59.078125 -75.019531 58.28125 -76.492188 56.6875 -77.515625 C 55.09375 -78.546875 52.875 -79.0625 50.03125 -79.0625 L 46.625 -79.0625 Z M 46.625 -66.765625 "/></g></g></g><g fill="#f19797" fill-opacity="1"><g transform="translate(55.881966, 173.080686)"><g><path d="M 4.53125 -78.0625 C 3.925781 -79.476562 3.445312 -80.914062 3.09375 -82.375 C 2.75 -83.84375 2.578125 -84.976562 2.578125 -85.78125 C 2.578125 -88 3.03125 -90.066406 3.9375 -91.984375 C 4.84375 -93.898438 6.050781 -95.5625 7.5625 -96.96875 C 9.070312 -98.382812 10.835938 -99.519531 12.859375 -100.375 C 14.878906 -101.238281 17.046875 -101.671875 19.359375 -101.671875 C 27.128906 -101.671875 32.832031 -97.179688 36.46875 -88.203125 L 47.203125 -62.640625 L 56.125 -89.109375 C 58.957031 -97.484375 64.351562 -101.671875 72.3125 -101.671875 C 80.28125 -101.671875 85.78125 -97.332031 88.8125 -88.65625 L 98.1875 -61.875 L 109.234375 -90.171875 C 110.648438 -93.703125 112.816406 -96.5 115.734375 -98.5625 C 118.660156 -100.632812 121.941406 -101.671875 125.578125 -101.671875 C 127.898438 -101.671875 130.066406 -101.238281 132.078125 -100.375 C 134.097656 -99.519531 135.863281 -98.363281 137.375 -96.90625 C 138.882812 -95.445312 140.066406 -93.707031 140.921875 -91.6875 C 141.785156 -89.664062 142.21875 -87.5 142.21875 -85.1875 C 142.21875 -84.175781 142.09375 -83.113281 141.84375 -82 C 141.59375 -80.894531 141.0625 -79.332031 140.25 -77.3125 L 116.34375 -12.25 C 113.21875 -3.582031 107.875 0.75 100.3125 0.75 C 92.445312 0.75 87.050781 -3.484375 84.125 -11.953125 L 72.921875 -45.09375 L 61.875 -12.109375 C 59.050781 -3.535156 53.757812 0.75 46 0.75 C 38.332031 0.75 33.085938 -3.078125 30.265625 -10.734375 Z M 4.53125 -78.0625 "/></g></g></g><g fill="#f19797" fill-opacity="1"><g transform="translate(200.513971, 173.080686)"><g><path d="M 61.578125 -34.953125 L 41.296875 -34.953125 L 41.296875 -20.734375 C 41.296875 -18.609375 41.242188 -16.863281 41.140625 -15.5 C 41.046875 -14.144531 40.894531 -12.960938 40.6875 -11.953125 C 40.488281 -10.941406 40.210938 -10.03125 39.859375 -9.21875 C 39.515625 -8.414062 39.035156 -7.5625 38.421875 -6.65625 C 36.910156 -4.332031 34.941406 -2.515625 32.515625 -1.203125 C 30.097656 0.0976562 27.476562 0.75 24.65625 0.75 C 21.738281 0.75 19.066406 0.0976562 16.640625 -1.203125 C 14.222656 -2.515625 12.253906 -4.332031 10.734375 -6.65625 C 10.128906 -7.5625 9.648438 -8.441406 9.296875 -9.296875 C 8.953125 -10.160156 8.675781 -11.117188 8.46875 -12.171875 C 8.269531 -13.234375 8.117188 -14.445312 8.015625 -15.8125 C 7.921875 -17.175781 7.875 -18.816406 7.875 -20.734375 L 7.875 -81.546875 C 7.875 -85.078125 8.097656 -87.800781 8.546875 -89.71875 C 9.003906 -91.632812 9.9375 -93.453125 11.34375 -95.171875 C 12.957031 -97.179688 14.898438 -98.765625 17.171875 -99.921875 C 19.441406 -101.085938 21.890625 -101.671875 24.515625 -101.671875 C 27.128906 -101.671875 29.644531 -101.085938 32.0625 -99.921875 C 34.488281 -98.765625 36.457031 -97.179688 37.96875 -95.171875 C 38.675781 -94.253906 39.234375 -93.394531 39.640625 -92.59375 C 40.046875 -91.789062 40.375 -90.882812 40.625 -89.875 C 40.875 -88.863281 41.046875 -87.625 41.140625 -86.15625 C 41.242188 -84.695312 41.296875 -82.910156 41.296875 -80.796875 L 41.296875 -66.578125 L 61.578125 -66.578125 L 61.578125 -80.34375 C 61.578125 -84.375 61.800781 -87.375 62.25 -89.34375 C 62.707031 -91.3125 63.644531 -93.253906 65.0625 -95.171875 C 66.570312 -97.179688 68.4375 -98.765625 70.65625 -99.921875 C 72.875 -101.085938 75.296875 -101.671875 77.921875 -101.671875 C 80.546875 -101.671875 83.039062 -101.113281 85.40625 -100 C 87.78125 -98.894531 89.722656 -97.332031 91.234375 -95.3125 C 92.546875 -93.601562 93.476562 -91.6875 94.03125 -89.5625 C 94.582031 -87.445312 94.859375 -84.773438 94.859375 -81.546875 L 94.859375 -20.421875 C 94.859375 -18.710938 94.804688 -17.226562 94.703125 -15.96875 C 94.609375 -14.707031 94.457031 -13.570312 94.25 -12.5625 C 94.050781 -11.550781 93.773438 -10.640625 93.421875 -9.828125 C 93.066406 -9.023438 92.640625 -8.171875 92.140625 -7.265625 C 90.628906 -4.742188 88.632812 -2.773438 86.15625 -1.359375 C 83.6875 0.046875 80.988281 0.75 78.0625 0.75 C 75.445312 0.75 72.953125 0.171875 70.578125 -0.984375 C 68.210938 -2.140625 66.269531 -3.78125 64.75 -5.90625 C 64.144531 -6.8125 63.613281 -7.691406 63.15625 -8.546875 C 62.707031 -9.398438 62.378906 -10.378906 62.171875 -11.484375 C 61.972656 -12.597656 61.820312 -13.863281 61.71875 -15.28125 C 61.625 -16.695312 61.578125 -18.410156 61.578125 -20.421875 Z M 61.578125 -34.953125 "/></g></g></g></svg>