<svg width="59" height="23" viewBox="0 0 59 23" fill="none" xmlns="http://www.w3.org/2000/svg">
<path d="M1.82184 10.1709C0.993411 10.1709 0.321838 10.8425 0.321838 11.6709C0.321838 12.4993 0.993411 13.1709 1.82184 13.1709V10.1709ZM57.6957 12.7316C58.2815 12.1458 58.2815 11.196 57.6957 10.6102L48.1498 1.0643C47.564 0.47851 46.6142 0.47851 46.0285 1.0643C45.4427 1.65008 45.4427 2.59983 46.0285 3.18562L54.5137 11.6709L46.0285 20.1562C45.4427 20.742 45.4427 21.6917 46.0285 22.2775C46.6142 22.8633 47.564 22.8633 48.1498 22.2775L57.6957 12.7316ZM1.82184 13.1709H56.6351V10.1709H1.82184V13.1709Z" fill="white"/>
</svg>
