<svg width="35" height="35" viewBox="0 0 35 35" fill="none" xmlns="http://www.w3.org/2000/svg">
<path fill-rule="evenodd" clip-rule="evenodd" d="M35 17.5C35 27.165 27.165 35 17.5 35C7.83502 35 0 27.165 0 17.5C0 7.83502 7.83502 0 17.5 0C27.165 0 35 7.83502 35 17.5ZM12.7555 10.0333C13.4555 10.0333 14.0777 10.0852 14.674 10.2148C15.2443 10.3445 15.7369 10.5519 16.1517 10.8111C16.5666 11.0963 16.8777 11.4593 17.111 11.9259C17.3443 12.3926 17.448 12.963 17.448 13.637C17.448 14.363 17.2925 14.9852 16.9555 15.4778C16.6184 15.9704 16.1258 16.3852 15.4517 16.6963C16.3592 16.9556 17.0332 17.4222 17.474 18.0704C17.9147 18.7185 18.148 19.4963 18.148 20.4296C18.148 21.1815 18.0184 21.8037 17.7332 22.3482C17.448 22.8926 17.0592 23.3333 16.5666 23.6704C16.074 24.0074 15.5295 24.2667 14.9073 24.4222C14.2851 24.5778 13.6369 24.6815 12.9888 24.6815H5.83323V10.0333H12.7555ZM12.3406 15.9445C12.911 15.9445 13.3777 15.8148 13.7666 15.5296C14.1295 15.2704 14.311 14.8037 14.311 14.2074C14.311 13.8704 14.2592 13.5852 14.1295 13.3778C13.9999 13.1704 13.8443 12.9889 13.6369 12.8593C13.4295 12.7296 13.1962 12.6519 12.9369 12.6C12.6777 12.5482 12.3925 12.5222 12.1073 12.5222H9.07397V15.9445H12.3406ZM12.5221 22.1926C12.8332 22.1926 13.1443 22.1667 13.4295 22.0889C13.7147 22.037 13.974 21.9333 14.1814 21.7778C14.3888 21.6482 14.5703 21.4407 14.6999 21.1815C14.8295 20.9482 14.8814 20.6111 14.8814 20.2222C14.8814 19.4704 14.674 18.9259 14.2332 18.6148C13.8184 18.3037 13.248 18.1222 12.548 18.1222H9.07397V22.1667H12.5221V22.1926ZM22.711 22.1407C23.1518 22.5556 23.774 22.7889 24.6036 22.7889C25.1999 22.7889 25.6925 22.6333 26.1332 22.3482C26.548 22.063 26.8073 21.7259 26.911 21.4148H29.4777C29.0629 22.6852 28.4406 23.6185 27.5851 24.163C26.7295 24.7074 25.7184 24.9926 24.4999 24.9926C23.6703 24.9926 22.9184 24.863 22.2443 24.5778C21.5703 24.3185 20.9999 23.9296 20.5332 23.437C20.0666 22.9445 19.7036 22.3482 19.4443 21.6741C19.1851 21 19.0555 20.2222 19.0555 19.4185C19.0555 18.6148 19.1851 17.8889 19.4443 17.1889C19.7036 16.4889 20.0666 15.9185 20.5592 15.4C21.0518 14.9074 21.6221 14.4926 22.2703 14.2074C22.9443 13.9222 23.6703 13.7667 24.474 13.7667C25.3814 13.7667 26.1592 13.9482 26.8332 14.2852C27.5073 14.6222 28.0518 15.1148 28.4925 15.6852C28.9332 16.2815 29.2443 16.9556 29.4258 17.7074C29.6073 18.4593 29.6851 19.237 29.6332 20.0667H22.011C22.011 20.9222 22.2962 21.7259 22.711 22.1407ZM26.0814 16.5667C25.7443 16.1778 25.148 15.9704 24.4221 15.9704C23.9555 15.9704 23.5666 16.0482 23.2555 16.2037C22.9443 16.3593 22.711 16.5667 22.5295 16.8C22.348 17.0333 22.2184 17.2926 22.1406 17.5519C22.0629 17.8111 22.011 18.0445 22.011 18.2519H26.7555C26.6777 17.5 26.4184 16.9556 26.0814 16.5667ZM21.4147 11.0185H27.3517V12.4704H21.4147V11.0185Z" fill="white"/>
</svg>
