<svg width="53" height="36" viewBox="0 0 53 36" fill="none" xmlns="http://www.w3.org/2000/svg">
<path d="M39.8954 0H36.2291C36.1535 0 36.0922 0.0614161 36.0922 0.137176V3.81309C36.0922 3.88885 36.1535 3.95026 36.2291 3.95026H39.8954C39.9711 3.95026 40.0324 3.88885 40.0324 3.81309V0.137176C40.0324 0.0614161 39.9711 0 39.8954 0Z" fill="white"/>
<path d="M35.8202 8.41923L35.7605 8.59456C35.7502 8.6255 35.7461 8.65748 35.7481 8.69048C35.7893 9.26704 35.7121 9.83224 35.744 10.4109C35.7584 10.6687 35.7131 10.9389 35.7389 11.1927C35.7595 11.3917 35.7821 11.5217 35.7317 11.729C35.708 11.829 35.6925 11.9311 35.6843 12.0333C35.6833 12.0498 35.6905 12.0601 35.7059 12.0632C35.7152 12.0652 35.7255 12.0652 35.7378 12.0642C35.6822 12.0529 35.641 12.0745 35.6143 12.1312L28.9449 6.01606C28.9027 5.9779 28.9017 5.93767 28.9398 5.89539L32.4536 2.0627C32.5154 1.99566 32.6205 1.99153 32.6874 2.05342L36.8089 5.84175C36.848 5.87785 36.8408 5.89539 36.7883 5.89539L35.915 5.88507C35.8666 5.88404 35.8264 5.92323 35.8264 5.97171L35.8202 8.41923Z" fill="white"/>
<path d="M19.5391 9.6931C19.5144 9.66113 19.5082 9.62812 19.5196 9.59512C19.5247 9.58171 19.5206 9.57036 19.5082 9.56211C19.4804 9.54458 19.4568 9.53839 19.4382 9.54458C19.4125 9.55283 19.3898 9.52704 19.4001 9.50229C19.5391 9.17946 19.5062 8.80197 19.5319 8.55237C19.5577 8.29142 19.567 8.02842 19.5587 7.76541C19.5494 7.489 19.5845 7.23011 19.5793 6.95782C19.5783 6.92688 19.5721 6.89697 19.5587 6.86912C19.5052 6.75258 19.6154 6.44419 19.5803 6.25957C19.5299 5.9945 19.5793 5.71086 19.5711 5.49014C19.5597 5.19722 19.5587 4.9043 19.567 4.61139C19.5752 4.34838 19.5268 4.06887 19.5247 3.79452C19.5237 3.68106 19.4671 3.57792 19.4743 3.45828C19.4856 3.2324 19.4568 3.08904 19.4413 2.87863C19.4382 2.83944 19.3898 2.82191 19.362 2.85079C19.3445 2.86935 19.3229 2.86626 19.2982 2.84254C19.2848 2.82913 19.2765 2.81159 19.2734 2.78993C19.2621 2.72908 19.2693 2.67029 19.293 2.61356C19.3054 2.58365 19.328 2.56509 19.361 2.55993C19.4423 2.54652 19.4804 2.47845 19.4774 2.35365L19.8182 2.05351C19.8862 1.99369 19.9902 1.99885 20.051 2.06589L23.5741 5.9192C23.5947 5.94189 23.5937 5.97593 23.571 5.99656L19.5391 9.6931Z" fill="white"/>
<path d="M19.4773 2.35364C19.4804 2.47844 19.4423 2.54651 19.361 2.55992C19.328 2.56507 19.3054 2.58364 19.293 2.61355C19.2693 2.67028 19.2621 2.72907 19.2734 2.78992C19.2765 2.81158 19.2848 2.82911 19.2981 2.84252C19.3229 2.86624 19.3445 2.86934 19.362 2.85077C19.3898 2.82189 19.4382 2.83943 19.4413 2.87862C19.4567 3.08903 19.4856 3.23239 19.4742 3.45827C19.467 3.57791 19.5237 3.68105 19.5247 3.7945C19.5268 4.06886 19.5752 4.34837 19.5669 4.61137C19.5587 4.90429 19.5597 5.19721 19.5711 5.49013C19.5793 5.71085 19.5299 5.99448 19.5803 6.25955C19.6153 6.44417 19.5051 6.75256 19.5587 6.86911C19.5721 6.89696 19.5783 6.92687 19.5793 6.95781C19.5844 7.2301 19.5494 7.48898 19.5587 7.7654C19.5669 8.02841 19.5577 8.29141 19.5319 8.55236C19.5062 8.80195 19.5391 9.17945 19.4001 9.50228C19.3898 9.52703 19.4125 9.55282 19.4382 9.54457C19.4567 9.53838 19.4804 9.54456 19.5082 9.5621C19.5206 9.57035 19.5247 9.5817 19.5196 9.5951C19.5082 9.62811 19.5144 9.66111 19.5391 9.69309L11.254 17.2955L11.152 17.1604C11.1324 17.1336 11.1273 17.1037 11.1365 17.0717C11.1602 16.9913 11.1664 16.9077 11.1551 16.8211C11.1499 16.7871 11.1644 16.7737 11.1973 16.7809C11.2375 16.7891 11.2612 16.7767 11.2663 16.7437C11.3199 16.4044 11.3446 15.9919 11.3415 15.5061C11.3405 15.3586 11.3013 15.207 11.3085 15.0935C11.3508 14.4117 11.3456 13.731 11.2921 13.0513C11.2776 12.8616 11.325 12.6573 11.3127 12.4531C11.2838 12.0158 11.3394 11.627 11.3281 11.2051C11.3178 10.8287 11.3374 10.4532 11.3878 10.0788C11.3889 10.0716 11.3889 10.0665 11.3878 10.0654C11.3837 10.0572 11.3796 10.0489 11.3755 10.0407C11.3703 10.0304 11.3714 10.0252 11.3765 10.0252C11.3858 10.0252 11.3961 10.0252 11.4053 10.0252C11.4228 10.0262 11.4301 10.018 11.4259 10.0004C11.4115 9.9334 11.4321 9.8808 11.4888 9.84264C11.5207 9.82098 11.532 9.80035 11.5238 9.78282C11.5155 9.76322 11.498 9.74053 11.4702 9.71268L19.4773 2.35364Z" fill="white"/>
<path d="M44.5647 3.43561H41.5472C41.5205 3.43561 41.4988 3.45731 41.4988 3.48408V6.51021C41.4988 6.53699 41.5205 6.55869 41.5472 6.55869H44.5647C44.5914 6.55869 44.6131 6.53699 44.6131 6.51021V3.48408C44.6131 3.45731 44.5914 3.43561 44.5647 3.43561Z" fill="white"/>
<path d="M42.0407 10.641C41.8657 10.8329 41.8306 10.9896 41.9367 11.1113C41.9604 11.1392 41.9645 11.1784 41.947 11.2103C41.8718 11.3455 41.9275 11.4249 41.9275 11.5352C41.9254 12.2221 41.8821 12.9152 41.9244 13.6001C41.9408 13.8765 41.8893 14.1364 41.9171 14.4139C41.946 14.7016 41.9017 15.0492 41.913 15.273C41.9295 15.5928 41.9501 15.8774 41.9223 16.2188C41.8966 16.5396 41.9027 16.8614 41.9429 17.1832C41.946 17.211 41.9408 17.2368 41.9264 17.2605C41.9048 17.2946 41.8945 17.3296 41.8935 17.3668C41.8924 17.4266 41.8924 17.4586 41.8914 17.4617C41.8698 17.6184 41.8708 17.7608 41.8966 17.8887L35.6144 12.1314C35.6412 12.0747 35.6824 12.053 35.738 12.0643C35.7257 12.0654 35.7154 12.0654 35.7061 12.0633C35.6906 12.0602 35.6834 12.0499 35.6845 12.0334C35.6927 11.9313 35.7082 11.8292 35.7318 11.7291C35.7823 11.5218 35.7596 11.3919 35.7391 11.1928C35.7133 10.9391 35.7586 10.6689 35.7442 10.411C35.7123 9.83239 35.7895 9.26719 35.7483 8.69063C35.7463 8.65763 35.7504 8.62565 35.7607 8.59471L35.8204 8.41937L38.2766 8.43691C38.3312 8.43794 38.3765 8.39256 38.3765 8.33789L38.3714 7.31474C38.3714 7.29927 38.3899 7.29205 38.4012 7.30237L42.0407 10.641Z" fill="white"/>
<path d="M11.4703 9.71249C11.4981 9.74034 11.5156 9.76303 11.5238 9.78263C11.5321 9.80017 11.5207 9.82079 11.4888 9.84245C11.4322 9.88061 11.4116 9.93321 11.426 10.0003C11.4301 10.0178 11.4229 10.026 11.4054 10.025C11.3961 10.025 11.3858 10.025 11.3766 10.025C11.3714 10.025 11.3704 10.0302 11.3755 10.0405C11.3796 10.0487 11.3838 10.057 11.3879 10.0652C11.3889 10.0663 11.3889 10.0714 11.3879 10.0786C11.3374 10.453 11.3179 10.8285 11.3282 11.2049C11.3395 11.6268 11.2839 12.0156 11.3127 12.4529C11.3251 12.6571 11.2777 12.8614 11.2921 13.0511C11.3457 13.7308 11.3508 14.4116 11.3086 15.0933C11.3014 15.2068 11.3405 15.3584 11.3415 15.5059C11.3446 15.9917 11.3199 16.4042 11.2664 16.7436C11.2612 16.7766 11.2375 16.7889 11.1974 16.7807C11.1644 16.7735 11.15 16.7869 11.1551 16.8209C11.1665 16.9075 11.1603 16.9911 11.1366 17.0715C11.1273 17.1035 11.1325 17.1334 11.152 17.1602L11.254 17.2954L10.1315 18.3371C10.0934 18.3711 10.0944 18.4051 10.1325 18.4392L11.6845 19.7872C11.5197 20.0028 11.4466 20.2606 11.4662 20.5597C11.496 21.0352 11.5063 21.5942 11.496 22.2347C11.4929 22.4152 11.5372 22.6504 11.5115 22.8598C11.4898 23.0444 11.4826 23.197 11.4898 23.3177C11.5094 23.6261 11.4466 23.9128 11.494 24.2119C11.5527 24.5884 11.5743 24.8328 11.5588 24.9453C11.5218 25.2041 11.5166 25.462 11.5434 25.7188C11.5475 25.7528 11.5403 25.7879 11.5238 25.8178C11.4033 26.0396 11.5135 26.2716 11.3766 26.5181C11.3714 26.5274 11.3724 26.5357 11.3776 26.5439C11.391 26.5656 11.392 26.5883 11.3796 26.612C11.3776 26.6172 11.3735 26.6202 11.3673 26.6213C11.3395 26.6233 11.3168 26.6316 11.2973 26.6471C9.27565 24.8988 7.25817 23.1465 5.24377 21.39C4.36016 20.6185 3.91526 19.3932 3.97293 18.2226C4.02957 17.0849 4.52081 16.0917 5.44768 15.2408C7.4559 13.3977 9.46309 11.5546 11.4703 9.71249Z" fill="white"/>
<path d="M34.7862 18.296C34.3763 18.3444 33.6873 18.3723 32.7203 18.3805C31.9994 18.3878 31.2785 18.3909 30.5576 18.3909C30.3743 18.3909 30.191 18.3929 30.0066 18.397C29.9953 18.397 29.986 18.395 29.9768 18.3909C29.9675 18.3857 29.9572 18.3805 29.9479 18.3754C29.9222 18.3599 29.8954 18.3527 29.8655 18.3548C29.6678 18.3661 29.4701 18.3764 29.2724 18.3836C29.1601 18.3878 29.0221 18.3826 28.8583 18.3671C28.6318 18.3475 28.4217 18.3795 28.2003 18.3011C28.0087 18.2341 27.882 18.2269 27.6926 18.1103C27.5947 18.0505 27.4989 18.0144 27.4073 18.003L26.2394 16.6313C26.2127 16.5993 26.1859 16.6003 26.1581 16.6323L25.2899 17.6617C25.2827 17.6565 25.2745 17.6503 25.2672 17.6441C25.2569 17.6369 25.2477 17.6369 25.2384 17.6462L25.0149 17.8576C25.0108 17.8607 25.0088 17.8597 25.0088 17.8545C25.0088 17.8452 25.0088 17.836 25.0088 17.8267C25.0088 17.7885 24.9912 17.7772 24.9552 17.7926C24.7204 17.8948 24.5319 18.0216 24.2673 18.0206C24.016 18.0206 23.7657 18.0113 23.5155 17.9917C23.5062 17.9907 23.499 17.9917 23.4938 17.9948C23.4856 17.9989 23.4794 18.0051 23.4743 18.0134C23.465 18.0288 23.4506 18.035 23.432 18.033C23.2477 18.0103 23.0634 17.9979 22.879 17.9958C22.636 17.9938 22.4516 17.9876 22.326 17.9783C22.0448 17.9566 21.8358 17.9484 21.6998 17.9535C20.4424 17.9979 19.1942 17.9948 17.9573 17.9432C19.0253 16.6633 20.1097 15.3699 21.2106 14.061C21.81 13.3473 22.5587 12.3396 23.1756 11.696C24.5299 10.281 26.7564 9.93853 28.4073 11.0246C28.7224 11.2319 29.1508 11.6527 29.6936 12.287C31.398 14.2787 33.0952 16.2816 34.7862 18.296Z" fill="white"/>
<path d="M42.0405 10.6413C43.5204 11.9955 45.0085 13.36 46.5059 14.7359C47.2453 15.4156 47.717 15.9128 47.9199 16.2253C48.752 17.5104 48.7551 19.3195 47.9086 20.6129C47.6954 20.9388 47.2361 21.407 46.5327 22.0187C45.0631 23.2955 43.5904 24.5734 42.1156 25.8534C42.0157 25.5058 41.9848 25.1448 42.025 24.7704C42.0662 24.3785 42.0178 24.0557 42.0219 23.7071C42.0353 22.5653 42.0343 21.4246 42.0178 20.2838C42.0137 20.0064 42.0528 19.5794 41.9848 19.2184C41.9529 19.0523 41.9879 19.0018 42.1136 18.8811C42.1939 18.8038 42.2124 18.7151 42.1682 18.615L42.3669 18.4118C42.3947 18.383 42.3947 18.3551 42.3659 18.3283L41.8963 17.8889C41.8705 17.761 41.8695 17.6187 41.8911 17.4619C41.8922 17.4588 41.8922 17.4269 41.8932 17.367C41.8942 17.3299 41.9045 17.2948 41.9261 17.2608C41.9406 17.2371 41.9457 17.2113 41.9426 17.1834C41.9024 16.8616 41.8963 16.5398 41.922 16.2191C41.9498 15.8777 41.9292 15.593 41.9128 15.2733C41.9014 15.0495 41.9457 14.7019 41.9169 14.4141C41.8891 14.1367 41.9406 13.8768 41.9241 13.6004C41.8819 12.9155 41.9251 12.2224 41.9272 11.5355C41.9272 11.4251 41.8716 11.3457 41.9467 11.2106C41.9642 11.1786 41.9601 11.1394 41.9364 11.1116C41.8304 10.9899 41.8654 10.8331 42.0405 10.6413Z" fill="white"/>
<path d="M25.2898 17.6617L21.4577 22.2401C21.4547 22.1411 21.3795 22.0864 21.2332 22.0771C21.0015 22.0627 20.812 22.1236 20.5875 22.1071C20.2456 22.0823 19.9027 22.0782 19.5597 22.0937C19.3198 22.105 19.0314 22.0998 18.6926 22.0802C18.0901 22.0452 17.5886 22.1555 16.9099 22.0988C16.7935 22.0885 16.7225 22.0184 16.6051 21.9915C16.5917 21.9884 16.5824 21.9936 16.5773 22.005C16.5721 22.0142 16.568 22.0245 16.5639 22.0338C16.5515 22.0617 16.5319 22.0689 16.5052 22.0545C16.4156 22.006 16.3754 22.0142 16.3867 22.0792L15.3898 21.2427C15.327 21.1901 15.3188 21.0953 15.3713 21.0323L17.9573 17.9433C19.1941 17.9949 20.4423 17.998 21.6998 17.9536C21.8357 17.9485 22.0448 17.9567 22.3259 17.9784C22.4515 17.9876 22.6359 17.9938 22.8789 17.9959C23.0633 17.998 23.2476 18.0103 23.432 18.033C23.4505 18.0351 23.4649 18.0289 23.4742 18.0134C23.4793 18.0052 23.4855 17.999 23.4938 17.9949C23.4989 17.9918 23.5061 17.9907 23.5154 17.9918C23.7656 18.0114 24.0159 18.0206 24.2672 18.0206C24.5319 18.0217 24.7203 17.8948 24.9551 17.7927C24.9912 17.7772 25.0087 17.7886 25.0087 17.8267C25.0087 17.836 25.0087 17.8453 25.0087 17.8546C25.0087 17.8597 25.0107 17.8608 25.0149 17.8577L25.2383 17.6463C25.2476 17.637 25.2569 17.637 25.2672 17.6442C25.2744 17.6504 25.2826 17.6566 25.2898 17.6617Z" fill="white"/>
<path d="M27.4072 18.0031C27.4988 18.0145 27.5946 18.0506 27.6924 18.1104C27.8819 18.2269 28.0086 18.2341 28.2002 18.3012C28.4216 18.3796 28.6317 18.3476 28.8582 18.3672C29.022 18.3827 29.16 18.3878 29.2722 18.3837C29.47 18.3765 29.6677 18.3662 29.8654 18.3548C29.8953 18.3528 29.9221 18.36 29.9478 18.3755C29.9571 18.3806 29.9674 18.3858 29.9767 18.3909C29.9859 18.395 29.9952 18.3971 30.0065 18.3971C30.1909 18.393 30.3742 18.3909 30.5575 18.3909C31.2784 18.3909 31.9993 18.3878 32.7202 18.3806C33.6872 18.3724 34.3762 18.3445 34.7861 18.296L37.1764 21.1148C36.9652 21.0509 36.7201 21.0561 36.4421 21.1293C36.4235 21.1344 36.4143 21.1272 36.4153 21.1076C36.4153 21.0983 36.4153 21.088 36.4143 21.0788C36.4132 21.053 36.3999 21.0437 36.3762 21.053C36.2207 21.1087 36.0857 21.0437 35.9663 21.0416C35.2341 21.0282 34.5039 21.0581 33.7758 21.1293C33.7583 21.1303 33.7212 21.1221 33.6646 21.1035C33.6316 21.0922 33.6028 21.0994 33.577 21.1231C33.5533 21.1458 33.5307 21.1437 33.5101 21.1179C33.5008 21.1076 33.4885 21.1014 33.4751 21.1014C33.1754 21.1014 32.8757 21.0994 32.576 21.0963C32.5606 21.0963 32.5379 21.1004 32.507 21.1097C32.4771 21.1179 32.4514 21.1138 32.4308 21.0963C32.4092 21.0788 32.3855 21.0715 32.3587 21.0736L30.9138 21.1582C30.8943 21.1592 30.8747 21.153 30.8603 21.1396C30.8139 21.0953 30.7635 21.0829 30.7089 21.1025C30.679 21.1128 30.6491 21.1107 30.6213 21.0963C30.5688 21.0705 30.5153 21.0602 30.4607 21.0653C30.4288 21.0684 30.3979 21.0622 30.3701 21.0478C30.2393 20.9808 30.0941 20.9591 29.9344 20.9849L27.4072 18.0031Z" fill="white"/>
<path d="M42.1679 18.6147C42.2122 18.7148 42.1937 18.8035 42.1134 18.8808C41.9877 19.0015 41.9527 19.052 41.9846 19.2181C42.0526 19.5791 42.0135 20.0061 42.0176 20.2835C42.0341 21.4243 42.0351 22.565 42.0217 23.7067C42.0176 24.0554 42.066 24.3782 42.0248 24.7701C41.9846 25.1445 42.0155 25.5055 42.1154 25.8531L34.5244 32.4283L34.4945 32.3819C34.4749 32.3499 34.4832 32.3323 34.5192 32.3292L34.5995 32.322C34.616 32.32 34.6201 32.2973 34.6047 32.2911C34.5645 32.2756 34.548 32.2488 34.5542 32.2127C34.5779 32.0735 34.5285 31.8992 34.5995 31.8135C34.6212 31.7878 34.6222 31.7599 34.6026 31.7321C34.548 31.6568 34.5233 31.5763 34.5285 31.4928C34.5522 31.1483 34.5604 30.8502 34.5553 30.5986C34.5522 30.4624 34.4945 30.3149 34.5058 30.1582C34.5563 29.4939 34.511 28.807 34.5233 28.1387C34.5326 27.6838 34.5357 27.2372 34.5347 26.7978C34.5326 26.3513 34.5388 25.9057 34.5522 25.4591C34.5542 25.3982 34.5099 25.3518 34.4203 25.3209L42.1679 18.6147Z" fill="white"/>
<path d="M11.6845 19.7874L18.8255 25.9686C18.8131 25.9903 18.8059 26.015 18.8039 26.0439C18.8028 26.0666 18.7905 26.0821 18.7688 26.0903C18.7101 26.112 18.6895 26.1542 18.707 26.2192C18.7112 26.2368 18.7091 26.2564 18.6998 26.2718C18.6658 26.3306 18.6638 26.3904 18.6937 26.4534C18.7091 26.4874 18.7173 26.5225 18.7163 26.5606C18.7153 26.5885 18.706 26.6039 18.6906 26.6081C18.6483 26.6194 18.6257 26.6473 18.6205 26.6906C18.5886 27.0124 18.7101 27.2909 18.6916 27.5931C18.6669 28.0025 18.707 28.4264 18.6885 28.8039C18.6556 29.498 18.6432 30.1922 18.6514 30.8873C18.6525 30.9008 18.6483 30.9131 18.6391 30.9234C18.6319 30.9307 18.6288 30.9399 18.6298 30.9513C18.6453 31.2886 18.6823 31.6238 18.741 31.9559C18.7647 32.0889 18.7235 32.222 18.7657 32.3684C18.775 32.4004 18.7771 32.4334 18.7699 32.4664L18.6597 33.0327L11.2972 26.6473C11.3168 26.6318 11.3395 26.6235 11.3673 26.6215C11.3735 26.6204 11.3776 26.6173 11.3796 26.6122C11.392 26.5885 11.391 26.5658 11.3776 26.5441C11.3724 26.5359 11.3714 26.5276 11.3765 26.5183C11.5135 26.2718 11.4033 26.0398 11.5238 25.818C11.5403 25.7881 11.5475 25.753 11.5434 25.719C11.5166 25.4622 11.5218 25.2043 11.5588 24.9454C11.5743 24.833 11.5526 24.5886 11.4939 24.2121C11.4466 23.913 11.5094 23.6263 11.4898 23.3179C11.4826 23.1972 11.4898 23.0446 11.5115 22.86C11.5372 22.6506 11.4929 22.4154 11.496 22.2349C11.5063 21.5944 11.496 21.0354 11.4661 20.5599C11.4466 20.2608 11.5197 20.003 11.6845 19.7874Z" fill="white"/>
<path d="M37.1765 21.1149C37.2414 21.1675 37.2857 21.218 37.3094 21.2665C37.3258 21.2985 37.3207 21.3263 37.2929 21.35L33.2435 24.8001C33.2198 24.8207 33.1838 24.8176 33.1632 24.7939L29.9346 20.9849C30.0942 20.9591 30.2394 20.9808 30.3702 21.0478C30.398 21.0623 30.4289 21.0685 30.4608 21.0654C30.5154 21.0602 30.569 21.0705 30.6215 21.0963C30.6493 21.1107 30.6792 21.1128 30.709 21.1025C30.7636 21.0829 30.8141 21.0953 30.8604 21.1396C30.8748 21.153 30.8944 21.1592 30.914 21.1582L32.3588 21.0736C32.3856 21.0716 32.4093 21.0788 32.4309 21.0963C32.4515 21.1138 32.4773 21.118 32.5071 21.1097C32.538 21.1004 32.5607 21.0963 32.5761 21.0963C32.8758 21.0994 33.1755 21.1015 33.4752 21.1015C33.4886 21.1015 33.501 21.1077 33.5102 21.118C33.5308 21.1438 33.5535 21.1458 33.5772 21.1231C33.6029 21.0994 33.6317 21.0922 33.6647 21.1035C33.7213 21.1221 33.7584 21.1303 33.7759 21.1293C34.504 21.0581 35.2342 21.0282 35.9664 21.0416C36.0859 21.0437 36.2208 21.1087 36.3763 21.053C36.4 21.0437 36.4134 21.053 36.4144 21.0788C36.4154 21.0881 36.4154 21.0984 36.4154 21.1077C36.4144 21.1273 36.4237 21.1345 36.4422 21.1293C36.7203 21.0561 36.9654 21.0509 37.1765 21.1149Z" fill="white"/>
<path d="M46.166 31.3278C46.1434 31.3009 46.1073 31.2948 46.0579 31.3102C46.0332 31.3174 46.0239 31.3082 46.0311 31.2834C46.0435 31.2411 46.0352 31.2009 46.0074 31.1627C45.9889 31.1369 45.9786 31.1091 45.9755 31.0782C45.9446 30.7192 45.8581 30.45 45.8633 29.9694C45.8633 29.9436 45.8478 29.9199 45.8231 29.9096C45.8035 29.9024 45.7912 29.8879 45.785 29.8683C45.7386 29.7167 45.7139 29.563 45.7088 29.4052C45.6995 29.1123 45.6789 28.8204 45.646 28.5285C45.5605 27.7746 45.5224 27.0175 45.5306 26.2584C45.5317 26.1821 45.4781 26.1378 45.476 26.049C45.4699 25.7995 45.4997 25.1868 45.3648 24.997C45.3494 24.9754 45.3422 24.9506 45.3442 24.9238L45.3545 24.8021C45.3576 24.7711 45.3669 24.7423 45.3823 24.7154C45.4081 24.6732 45.4009 24.6371 45.3586 24.6072L49.3143 21.1117C49.3442 21.0849 49.3905 21.088 49.4183 21.1179L52.9796 25.1703C53.0094 25.2054 53.0063 25.258 52.9713 25.2889L46.166 31.3278Z" fill="white"/>
<path d="M6.67528 24.6009C6.55685 25.0496 6.51566 25.5055 6.54964 25.9686C6.5517 26.0016 6.54243 26.0305 6.52081 26.0562C6.49712 26.0841 6.48579 26.1181 6.48785 26.1563C6.49197 26.2202 6.49403 26.2543 6.493 26.2574C6.37869 27.4765 6.27364 28.6956 6.1758 29.9157C6.1758 29.9188 6.17477 29.9209 6.17271 29.9219C6.16551 29.9271 6.15624 29.9312 6.14697 29.9322C6.13049 29.9343 6.12019 29.9436 6.11607 29.9601L5.81844 31.2328L0.0399299 26.1841C-0.00847325 26.1408 -0.0136226 26.0676 0.0286015 26.0191L3.5126 21.9905C3.5507 21.9451 3.61868 21.9409 3.66296 21.9791L6.67528 24.6009Z" fill="white"/>
<path d="M21.4577 22.2401L19.5401 24.5422C19.4783 24.6154 19.4104 24.6216 19.3372 24.5597L16.3867 22.0792C16.3754 22.0142 16.4155 22.006 16.5051 22.0545C16.5319 22.0689 16.5515 22.0617 16.5638 22.0338C16.568 22.0246 16.5721 22.0142 16.5772 22.005C16.5824 21.9936 16.5916 21.9885 16.605 21.9915C16.7224 22.0184 16.7935 22.0885 16.9099 22.0988C17.5885 22.1555 18.0901 22.0452 18.6925 22.0802C19.0314 22.0998 19.3197 22.105 19.5597 22.0937C19.9026 22.0782 20.2456 22.0823 20.5875 22.1071C20.812 22.1236 21.0015 22.0627 21.2332 22.0772C21.3794 22.0864 21.4546 22.1411 21.4577 22.2401Z" fill="white"/>
<path d="M45.3587 24.6072C45.4009 24.6371 45.4082 24.6732 45.3824 24.7155C45.367 24.7423 45.3577 24.7712 45.3546 24.8021L45.3443 24.9238C45.3422 24.9506 45.3495 24.9754 45.3649 24.997C45.4998 25.1868 45.4699 25.7995 45.4761 26.0491C45.4782 26.1378 45.5317 26.1821 45.5307 26.2585C45.5225 27.0176 45.5606 27.7746 45.6461 28.5286C45.679 28.8205 45.6996 29.1123 45.7089 29.4053C45.714 29.5631 45.7387 29.7167 45.7851 29.8684C45.7913 29.888 45.8036 29.9024 45.8232 29.9096C45.8479 29.9199 45.8634 29.9436 45.8634 29.9694C45.8582 30.4501 45.9447 30.7193 45.9756 31.0782C45.9787 31.1091 45.989 31.137 46.0075 31.1628C46.0353 31.2009 46.0436 31.2411 46.0312 31.2834C46.024 31.3082 46.0333 31.3175 46.058 31.3103C46.1074 31.2948 46.1435 31.301 46.1661 31.3278L42.6337 34.4602C42.6162 34.191 42.6039 33.9207 42.5987 33.6515C42.5936 33.3741 42.5699 33.1059 42.5256 32.847C42.3618 31.8765 42.2558 30.8998 42.2063 29.9168C42.1847 29.4867 42.1559 29.0938 42.1198 28.739C42.0817 28.3594 42.0477 27.9675 42.0168 27.5632L45.3587 24.6072Z" fill="white"/>
<path d="M6.67532 24.601L9.90906 27.4136C9.80505 27.6426 9.90288 27.8479 9.89568 28.0376C9.88435 28.2862 9.87611 28.5358 9.8689 28.7854C9.86581 28.8968 9.81844 28.9886 9.81947 29.0969C9.82256 29.4156 9.80711 29.7333 9.77518 30.0499C9.69588 30.8317 9.61556 31.6135 9.5342 32.3953C9.49197 32.8068 9.47138 33.1049 9.47241 33.2916C9.47344 33.3256 9.46726 33.3576 9.45593 33.3896C9.41782 33.4886 9.4343 33.6124 9.40341 33.698C9.34058 33.8723 9.25717 34.0208 9.15315 34.1415L5.81848 31.2329L6.11611 29.9602C6.12023 29.9437 6.13053 29.9344 6.14701 29.9323C6.15627 29.9313 6.16554 29.9272 6.17275 29.922C6.17481 29.921 6.17584 29.9189 6.17584 29.9158C6.27368 28.6957 6.37872 27.4766 6.49304 26.2574C6.49407 26.2543 6.49201 26.2203 6.48789 26.1564C6.48583 26.1182 6.49716 26.0842 6.52084 26.0563C6.54247 26.0305 6.55174 26.0017 6.54968 25.9687C6.51569 25.5056 6.55689 25.0497 6.67532 24.601Z" fill="white"/>
<path d="M34.4206 25.3209C34.5102 25.3518 34.5545 25.3982 34.5525 25.4591C34.5391 25.9057 34.5329 26.3512 34.5349 26.7978C34.536 27.2372 34.5329 27.6838 34.5236 28.1387C34.5113 28.807 34.5566 29.4939 34.5061 30.1581C34.4948 30.3149 34.5525 30.4624 34.5555 30.5985C34.5607 30.8502 34.5525 31.1483 34.5288 31.4928C34.5236 31.5763 34.5483 31.6568 34.6029 31.7321C34.6225 31.7599 34.6215 31.7877 34.5998 31.8135C34.5288 31.8991 34.5782 32.0734 34.5545 32.2127C34.5483 32.2488 34.5648 32.2756 34.605 32.2911C34.6204 32.2973 34.6163 32.3199 34.5998 32.322L34.5195 32.3292C34.4835 32.3323 34.4752 32.3499 34.4948 32.3818L34.5246 32.4282L32.5473 34.1527C32.5236 34.1734 32.4886 34.1713 32.468 34.1476L28.9779 30.1076C28.9583 30.0849 28.9603 30.0509 28.983 30.0313L34.4206 25.3209Z" fill="white"/>
<path d="M18.8251 25.9688L23.512 30.0284C23.5367 30.05 23.5398 30.0872 23.5182 30.1119L20.0373 34.1385C20.0136 34.1664 19.9714 34.1694 19.9446 34.1457L18.6593 33.0328L18.7695 32.4666C18.7767 32.4336 18.7747 32.4006 18.7654 32.3686C18.7232 32.2222 18.7644 32.0891 18.7407 31.9561C18.682 31.624 18.6449 31.2887 18.6294 30.9515C18.6284 30.9401 18.6315 30.9309 18.6387 30.9236C18.648 30.9133 18.6521 30.9009 18.6511 30.8875C18.6428 30.1924 18.6552 29.4982 18.6882 28.8041C18.7067 28.4266 18.6665 28.0027 18.6912 27.5932C18.7098 27.291 18.5883 27.0126 18.6202 26.6908C18.6253 26.6474 18.648 26.6196 18.6902 26.6083C18.7057 26.6041 18.7149 26.5887 18.716 26.5608C18.717 26.5226 18.7087 26.4876 18.6933 26.4535C18.6634 26.3906 18.6655 26.3308 18.6995 26.272C18.7087 26.2565 18.7108 26.2369 18.7067 26.2194C18.6892 26.1544 18.7098 26.1121 18.7685 26.0905C18.7901 26.0822 18.8025 26.0668 18.8035 26.0441C18.8056 26.0152 18.8128 25.9904 18.8251 25.9688Z" fill="white"/>
<path d="M9.90917 27.4136L14.2078 31.1514C14.2325 31.172 14.2346 31.2091 14.214 31.2339L10.6991 35.278C10.6414 35.345 10.5394 35.3523 10.4725 35.2935L9.15326 34.1414C9.25727 34.0207 9.34069 33.8722 9.40351 33.6979C9.43441 33.6123 9.41793 33.4885 9.45604 33.3895C9.46737 33.3575 9.47354 33.3256 9.47251 33.2915C9.47148 33.1048 9.49208 32.8068 9.53431 32.3952C9.61566 31.6134 9.69599 30.8316 9.77529 30.0498C9.80722 29.7332 9.82266 29.4155 9.81958 29.0968C9.81855 28.9885 9.86592 28.8967 9.86901 28.7853C9.87622 28.5357 9.88446 28.2861 9.89578 28.0376C9.90299 27.8478 9.80516 27.6425 9.90917 27.4136Z" fill="white"/>
<path d="M42.0168 27.5631C42.0477 27.9674 42.0817 28.3594 42.1198 28.7389C42.1558 29.0937 42.1847 29.4867 42.2063 29.9168C42.2557 30.8997 42.3618 31.8764 42.5256 32.847C42.5698 33.1059 42.5935 33.374 42.5987 33.6515C42.6038 33.9207 42.6162 34.1909 42.6337 34.4601L42.367 34.6767C42.3258 34.7107 42.2877 34.7076 42.2516 34.6674L38.6492 30.5882C38.6348 30.5717 38.6358 30.5459 38.6523 30.5315L42.0168 27.5631Z" fill="white"/>
</svg>
